<svg width="82" height="97" viewBox="0 0 82 97" fill="none" xmlns="http://www.w3.org/2000/svg">
<path d="M78.6849 1.00537H53.9904C52.7118 1.00537 51.6752 2.04188 51.6752 3.32048V5.82852V8.33656C51.6752 9.61516 50.6387 10.6517 49.3601 10.6517H30.1961V12.0665H27.3666V10.6517H15.1479V13.8671H12.3183V10.6517H1V16.9539H6.14469V15.4105H8.84566V16.9539H19.7781V15.4105H22.6077V16.9539H26.0804V15.4105H28.91V16.9539H33.4116V15.4105H36.3698V16.9539H49.3601C50.6387 16.9539 51.6752 17.9904 51.6752 19.269V24.1565C51.6752 25.4351 52.7118 26.4716 53.9904 26.4716H78.6849C79.9635 26.4716 81 25.4351 81 24.1565V3.32048C81 2.04188 79.9635 1.00537 78.6849 1.00537Z" stroke="black"/>
<mask id="path-2-inside-1_1029_1950" fill="white">
<rect x="73.668" y="8.85107" width="3.85852" height="9.77492" rx="0.771704"/>
</mask>
<rect x="73.668" y="8.85107" width="3.85852" height="9.77492" rx="0.771704" stroke="black" stroke-width="2" mask="url(#path-2-inside-1_1029_1950)"/>
<path d="M78.6849 36.0054H53.9904C52.7118 36.0054 51.6752 37.0419 51.6752 38.3205V40.8285V43.3366C51.6752 44.6152 50.6387 45.6517 49.3601 45.6517H30.1961V47.0665H27.3666V45.6517H15.1479V48.8671H12.3183V45.6517H1V51.9539H6.14469V50.4105H8.84566V51.9539H19.7781V50.4105H22.6077V51.9539H26.0804V50.4105H28.91V51.9539H33.4116V50.4105H36.3698V51.9539H49.3601C50.6387 51.9539 51.6752 52.9904 51.6752 54.269V59.1565C51.6752 60.4351 52.7118 61.4716 53.9904 61.4716H78.6849C79.9635 61.4716 81 60.4351 81 59.1565V38.3205C81 37.0419 79.9635 36.0054 78.6849 36.0054Z" fill="#BABABA" stroke="black"/>
<mask id="path-4-inside-2_1029_1950" fill="white">
<rect x="73.668" y="43.8511" width="3.85852" height="9.77492" rx="0.771704"/>
</mask>
<rect x="73.668" y="43.8511" width="3.85852" height="9.77492" rx="0.771704" fill="#BABABA" stroke="black" stroke-width="2" mask="url(#path-4-inside-2_1029_1950)"/>
<path d="M78.6849 71.0054H53.9904C52.7118 71.0054 51.6752 72.0419 51.6752 73.3205V75.8285V78.3366C51.6752 79.6152 50.6387 80.6517 49.3601 80.6517H30.1961V82.0665H27.3666V80.6517H15.1479V83.8671H12.3183V80.6517H1V86.9539H6.14469V85.4105H8.84566V86.9539H19.7781V85.4105H22.6077V86.9539H26.0804V85.4105H28.91V86.9539H33.4116V85.4105H36.3698V86.9539H49.3601C50.6387 86.9539 51.6752 87.9904 51.6752 89.269V94.1565C51.6752 95.4351 52.7118 96.4716 53.9904 96.4716H78.6849C79.9635 96.4716 81 95.4351 81 94.1565V73.3205C81 72.0419 79.9635 71.0054 78.6849 71.0054Z" fill="white" stroke="black"/>
<mask id="path-6-inside-3_1029_1950" fill="white">
<rect x="73.668" y="78.8511" width="3.85852" height="9.77492" rx="0.771704"/>
</mask>
<rect x="73.668" y="78.8511" width="3.85852" height="9.77492" rx="0.771704" fill="white" stroke="black" stroke-width="2" mask="url(#path-6-inside-3_1029_1950)"/>
</svg>
