<svg width="253" height="335" viewBox="0 0 253 335" fill="none" xmlns="http://www.w3.org/2000/svg">
<g clip-path="url(#clip0_1029_1961)">
<path d="M149.545 50.2769H17.1934V305.592H149.545V50.2769Z" fill="white" stroke="black" stroke-width="1.20939" stroke-miterlimit="10"/>
<path d="M30.5991 68.5363C32.9039 68.5363 34.7724 66.6677 34.7724 64.3626C34.7724 62.0576 32.9039 60.189 30.5991 60.189C28.2942 60.189 26.4258 62.0576 26.4258 64.3626C26.4258 66.6677 28.2942 68.5363 30.5991 68.5363Z" stroke="black" stroke-width="1.20939" stroke-miterlimit="10"/>
<path d="M135.749 68.5363C138.054 68.5363 139.923 66.6677 139.923 64.3626C139.923 62.0576 138.054 60.189 135.749 60.189C133.445 60.189 131.576 62.0576 131.576 64.3626C131.576 66.6677 133.445 68.5363 135.749 68.5363Z" stroke="black" stroke-width="1.20939" stroke-miterlimit="10"/>
<path d="M59.9662 166.547C62.5741 166.547 64.6882 164.433 64.6882 161.825C64.6882 159.217 62.5741 157.103 59.9662 157.103C57.3583 157.103 55.2441 159.217 55.2441 161.825C55.2441 164.433 57.3583 166.547 59.9662 166.547Z" stroke="black" stroke-width="1.20939" stroke-miterlimit="10"/>
<path d="M59.9666 165.161C61.8089 165.161 63.3024 163.667 63.3024 161.825C63.3024 159.982 61.8089 158.489 59.9666 158.489C58.1243 158.489 56.6309 159.982 56.6309 161.825C56.6309 163.667 58.1243 165.161 59.9666 165.161Z" stroke="black" stroke-width="1.20939" stroke-miterlimit="10"/>
<path d="M97.0892 166.547C99.6971 166.547 101.811 164.433 101.811 161.825C101.811 159.217 99.6971 157.103 97.0892 157.103C94.4813 157.103 92.3672 159.217 92.3672 161.825C92.3672 164.433 94.4813 166.547 97.0892 166.547Z" stroke="black" stroke-width="1.20939" stroke-miterlimit="10"/>
<path d="M97.0877 165.161C98.93 165.161 100.423 163.667 100.423 161.825C100.423 159.982 98.93 158.489 97.0877 158.489C95.2454 158.489 93.752 159.982 93.752 161.825C93.752 163.667 95.2454 165.161 97.0877 165.161Z" stroke="black" stroke-width="1.20939" stroke-miterlimit="10"/>
<path d="M66.364 169.484H63.9043V174.798H66.364V169.484Z" stroke="black" stroke-width="1.20939" stroke-miterlimit="10"/>
<path d="M97.7436 167.544H92.752V177.494H97.7436V167.544Z" stroke="black" stroke-width="1.20939" stroke-miterlimit="10"/>
<path d="M83.9998 168.502V160.434C85.3236 159.315 86.2718 157.817 86.7161 156.141C87.1603 154.466 87.0792 152.695 86.4836 151.067C85.888 149.439 84.8068 148.034 83.3863 147.041C81.9657 146.048 80.2744 145.515 78.5413 145.515C76.8082 145.515 75.1169 146.048 73.6963 147.041C72.2758 148.034 71.1946 149.439 70.599 151.067C70.0035 152.695 69.9223 154.466 70.3665 156.141C70.8108 157.817 71.759 159.315 73.0828 160.434V172.469C73.082 173.523 73.3869 174.556 73.9607 175.441C74.5346 176.326 75.3526 177.025 76.3159 177.455C77.2792 177.884 78.3463 178.025 79.388 177.86C80.4297 177.696 81.4013 177.232 82.1851 176.527H82.1274" stroke="black" stroke-width="1.20939" stroke-miterlimit="10"/>
<path d="M84.0002 168.502V172.478C84.0002 173.244 83.8386 174.001 83.5259 174.701C83.2132 175.4 82.7565 176.025 82.1855 176.536H92.7464V168.502H84.0002Z" stroke="black" stroke-width="1.20939" stroke-miterlimit="10"/>
<path d="M90.7148 168.502V176.536" stroke="black" stroke-width="1.20939" stroke-miterlimit="10"/>
<path d="M26.3929 210.778C27.6928 210.778 28.7467 209.724 28.7467 208.424C28.7467 207.124 27.6928 206.07 26.3929 206.07C25.0929 206.07 24.0391 207.124 24.0391 208.424C24.0391 209.724 25.0929 210.778 26.3929 210.778Z" stroke="black" stroke-width="1.20939" stroke-miterlimit="10"/>
<path d="M74.5276 235.276C75.8276 235.276 76.8814 234.222 76.8814 232.922C76.8814 231.622 75.8276 230.568 74.5276 230.568C73.2277 230.568 72.1738 231.622 72.1738 232.922C72.1738 234.222 73.2277 235.276 74.5276 235.276Z" stroke="black" stroke-width="1.20939" stroke-miterlimit="10"/>
<path d="M92.178 235.276C93.478 235.276 94.5318 234.222 94.5318 232.922C94.5318 231.622 93.478 230.568 92.178 230.568C90.8781 230.568 89.8242 231.622 89.8242 232.922C89.8242 234.222 90.8781 235.276 92.178 235.276Z" stroke="black" stroke-width="1.20939" stroke-miterlimit="10"/>
<path d="M97.6331 256.563C98.9331 256.563 99.9869 255.509 99.9869 254.209C99.9869 252.909 98.9331 251.855 97.6331 251.855C96.3331 251.855 95.2793 252.909 95.2793 254.209C95.2793 255.509 96.3331 256.563 97.6331 256.563Z" stroke="black" stroke-width="1.20939" stroke-miterlimit="10"/>
<path d="M69.2854 256.563C70.5854 256.563 71.6392 255.509 71.6392 254.209C71.6392 252.909 70.5854 251.855 69.2854 251.855C67.9855 251.855 66.9316 252.909 66.9316 254.209C66.9316 255.509 67.9855 256.563 69.2854 256.563Z" stroke="black" stroke-width="1.20939" stroke-miterlimit="10"/>
<path d="M31.0461 241.962C33.3217 241.962 35.1665 240.117 35.1665 237.841C35.1665 235.566 33.3217 233.721 31.0461 233.721C28.7705 233.721 26.9258 235.566 26.9258 237.841C26.9258 240.117 28.7705 241.962 31.0461 241.962Z" stroke="black" stroke-width="1.20939" stroke-miterlimit="10"/>
<path d="M31.0463 240.999C32.7903 240.999 34.204 239.586 34.204 237.842C34.204 236.097 32.7903 234.684 31.0463 234.684C29.3024 234.684 27.8887 236.097 27.8887 237.842C27.8887 239.586 29.3024 240.999 31.0463 240.999Z" stroke="black" stroke-width="1.20939" stroke-miterlimit="10"/>
<path d="M136.034 241.962C138.31 241.962 140.155 240.117 140.155 237.841C140.155 235.566 138.31 233.721 136.034 233.721C133.759 233.721 131.914 235.566 131.914 237.841C131.914 240.117 133.759 241.962 136.034 241.962Z" stroke="black" stroke-width="1.20939" stroke-miterlimit="10"/>
<path d="M136.035 240.999C137.779 240.999 139.192 239.586 139.192 237.842C139.192 236.097 137.779 234.684 136.035 234.684C134.291 234.684 132.877 236.097 132.877 237.842C132.877 239.586 134.291 240.999 136.035 240.999Z" stroke="black" stroke-width="1.20939" stroke-miterlimit="10"/>
<path d="M47.1428 259.239H41.8672V273.503H47.1428V259.239Z" stroke="black" stroke-width="1.20939" stroke-miterlimit="10"/>
<path d="M78.4407 78.1111C82.439 78.1111 85.6802 74.8696 85.6802 70.871C85.6802 66.8724 82.439 63.6309 78.4407 63.6309C74.4424 63.6309 71.2012 66.8724 71.2012 70.871C71.2012 74.8696 74.4424 78.1111 78.4407 78.1111Z" stroke="black" stroke-width="1.20939" stroke-miterlimit="10"/>
<path d="M82.7386 66.5769H74.1465V75.1697H82.7386V66.5769Z" stroke="black" stroke-width="1.20939" stroke-miterlimit="10"/>
<path d="M46.6482 56.6265H42.2246V63.26H46.6482V56.6265Z" stroke="black" stroke-width="1.20939" stroke-miterlimit="10"/>
<path d="M44.4337 61.1564C45.1036 61.1564 45.6467 60.6133 45.6467 59.9433C45.6467 59.2734 45.1036 58.7302 44.4337 58.7302C43.7638 58.7302 43.2207 59.2734 43.2207 59.9433C43.2207 60.6133 43.7638 61.1564 44.4337 61.1564Z" stroke="black" stroke-width="1.20939" stroke-miterlimit="10"/>
<path d="M46.6482 74.4187H42.2246V81.0523H46.6482V74.4187Z" stroke="black" stroke-width="1.20939" stroke-miterlimit="10"/>
<path d="M44.4337 78.9487C45.1036 78.9487 45.6467 78.4055 45.6467 77.7356C45.6467 77.0656 45.1036 76.5225 44.4337 76.5225C43.7638 76.5225 43.2207 77.0656 43.2207 77.7356C43.2207 78.4055 43.7638 78.9487 44.4337 78.9487Z" stroke="black" stroke-width="1.20939" stroke-miterlimit="10"/>
<path d="M17.1937 247.763L13.959 249.501V266.937L17.1937 268.67" stroke="black" stroke-width="1.20939" stroke-miterlimit="10"/>
<path d="M71.2441 305.592L73.3284 308.875H94.2671L96.3514 305.592" stroke="black" stroke-width="1.20939" stroke-miterlimit="10"/>
<path d="M31.5287 90.4299H13.4492V108.511H31.5287V90.4299Z" stroke="black" stroke-width="1.20939" stroke-miterlimit="10"/>
<path d="M31.5287 117.71H13.4492V135.791H31.5287V117.71Z" stroke="black" stroke-width="1.20939" stroke-miterlimit="10"/>
<path d="M31.5287 144.986H13.4492V163.067H31.5287V144.986Z" stroke="black" stroke-width="1.20939" stroke-miterlimit="10"/>
<path d="M31.5287 172.266H13.4492V190.347H31.5287V172.266Z" stroke="black" stroke-width="1.20939" stroke-miterlimit="10"/>
<path d="M17.1946 199.191H5.47852C6.42092 199.184 7.34766 199.432 8.16155 199.907C8.97544 200.382 9.64648 201.067 10.1043 201.891C11.5098 203.436 12.434 205.997 12.434 208.9C12.434 212.241 11.2114 215.125 9.4352 216.54C8.93669 217.095 8.3265 217.539 7.64462 217.841C6.96274 218.144 6.22459 218.299 5.47852 218.297H17.1946" stroke="black" stroke-width="1.20939" stroke-miterlimit="10"/>
<path d="M5.47733 218.297C4.1083 218.316 2.78763 217.791 1.80559 216.837C0.823556 215.883 0.260515 214.578 0.240234 213.209C0.240234 213.069 0.240234 212.93 0.240234 212.79V204.698C0.240234 204.563 0.240234 204.423 0.240234 204.279C0.260515 202.91 0.823556 201.605 1.80559 200.651C2.78763 199.697 4.1083 199.171 5.47733 199.191" stroke="black" stroke-width="1.20939" stroke-miterlimit="10"/>
<path d="M106.264 329.339C108.507 329.339 110.326 327.52 110.326 325.276C110.326 323.032 108.507 321.213 106.264 321.213C104.02 321.213 102.201 323.032 102.201 325.276C102.201 327.52 104.02 329.339 106.264 329.339Z" stroke="black" stroke-width="1.20939" stroke-miterlimit="10"/>
<path d="M94.1367 316.361L103.34 305.592H125.872L118.599 314.108V329.912L114.036 334.765H98.7047L94.1367 329.912V316.361Z" stroke="black" stroke-width="1.20939" stroke-miterlimit="10"/>
<path d="M118.58 50.277V25.3361L113.584 19.7712H98.9027L93.9062 25.3361V50.277" stroke="black" stroke-width="1.20939" stroke-miterlimit="10"/>
<path d="M106.244 33.3848C108.607 33.3848 110.523 31.4688 110.523 29.1052C110.523 26.7417 108.607 24.8257 106.244 24.8257C103.881 24.8257 101.965 26.7417 101.965 29.1052C101.965 31.4688 103.881 33.3848 106.244 33.3848Z" stroke="black" stroke-width="1.20939" stroke-miterlimit="10"/>
<path d="M118.58 30.7519V28.345" stroke="black" stroke-width="1.20939" stroke-miterlimit="10"/>
<path d="M118.58 26.2218V5.8108L115.898 2.82617" stroke="black" stroke-width="1.20939" stroke-miterlimit="10" stroke-dasharray="10.67 5.33"/>
<path d="M115.192 2.03687L113.584 0.246094H111.178" stroke="black" stroke-width="1.20939" stroke-miterlimit="10"/>
<path d="M108.709 0.246094H102.543" stroke="black" stroke-width="1.20939" stroke-miterlimit="10" stroke-dasharray="12.4 6.2"/>
<path d="M101.309 0.246094H98.9026L97.2949 2.03687" stroke="black" stroke-width="1.20939" stroke-miterlimit="10"/>
<path d="M95.875 3.61572L93.9062 5.81087V27.2809" stroke="black" stroke-width="1.20939" stroke-miterlimit="10" stroke-dasharray="10.67 5.33"/>
<path d="M93.9062 28.345V30.7519" stroke="black" stroke-width="1.20939" stroke-miterlimit="10"/>
<path d="M101.959 9.58035C101.959 8.44534 102.41 7.35681 103.212 6.55424C104.015 5.75166 105.103 5.30078 106.238 5.30078C111.913 5.52704 111.913 13.6337 106.238 13.8599C105.103 13.8599 104.015 13.409 103.212 12.6065C102.41 11.8039 101.959 10.7154 101.959 9.58035Z" stroke="black" stroke-width="1.20939" stroke-miterlimit="10" stroke-dasharray="11.26 5.62"/>
<path d="M250.807 50.2769H220.857V305.592H250.807V50.2769Z" fill="white" stroke="black" stroke-width="1.20939" stroke-miterlimit="10"/>
<path d="M235.833 269.363C241.838 269.363 246.706 264.494 246.706 258.488C246.706 252.482 241.838 247.614 235.833 247.614C229.827 247.614 224.959 252.482 224.959 258.488C224.959 264.494 229.827 269.363 235.833 269.363Z" stroke="black" stroke-width="1.20939" stroke-miterlimit="10"/>
<path d="M235.833 266.369C240.185 266.369 243.713 262.84 243.713 258.488C243.713 254.136 240.185 250.608 235.833 250.608C231.481 250.608 227.953 254.136 227.953 258.488C227.953 262.84 231.481 266.369 235.833 266.369Z" stroke="black" stroke-width="1.20939" stroke-miterlimit="10"/>
<path d="M235.833 218.586C241.267 218.586 245.672 214.18 245.672 208.746C245.672 203.312 241.267 198.906 235.833 198.906C230.399 198.906 225.994 203.312 225.994 208.746C225.994 214.18 230.399 218.586 235.833 218.586Z" stroke="black" stroke-width="1.20939" stroke-miterlimit="10"/>
<path d="M235.833 191.483C241.267 191.483 245.672 187.078 245.672 181.644C245.672 176.21 241.267 171.804 235.833 171.804C230.399 171.804 225.994 176.21 225.994 181.644C225.994 187.078 230.399 191.483 235.833 191.483Z" stroke="black" stroke-width="1.20939" stroke-miterlimit="10"/>
<path d="M235.832 190.203C240.559 190.203 244.39 186.371 244.39 181.644C244.39 176.917 240.559 173.085 235.832 173.085C231.105 173.085 227.273 176.917 227.273 181.644C227.273 186.371 231.105 190.203 235.832 190.203Z" stroke="black" stroke-width="1.20939" stroke-miterlimit="10"/>
<path d="M235.833 163.106C240.796 163.106 244.819 159.082 244.819 154.118C244.819 149.154 240.796 145.13 235.833 145.13C230.869 145.13 226.846 149.154 226.846 154.118C226.846 159.082 230.869 163.106 235.833 163.106Z" stroke="black" stroke-width="1.20939" stroke-miterlimit="10"/>
<path d="M235.832 161.931C240.146 161.931 243.644 158.433 243.644 154.118C243.644 149.803 240.146 146.305 235.832 146.305C231.517 146.305 228.02 149.803 228.02 154.118C228.02 158.433 231.517 161.931 235.832 161.931Z" stroke="black" stroke-width="1.20939" stroke-miterlimit="10"/>
<path d="M235.833 135.719C240.796 135.719 244.819 131.695 244.819 126.731C244.819 121.768 240.796 117.744 235.833 117.744C230.869 117.744 226.846 121.768 226.846 126.731C226.846 131.695 230.869 135.719 235.833 135.719Z" stroke="black" stroke-width="1.20939" stroke-miterlimit="10"/>
<path d="M235.832 134.544C240.146 134.544 243.644 131.046 243.644 126.731C243.644 122.416 240.146 118.918 235.832 118.918C231.517 118.918 228.02 122.416 228.02 126.731C228.02 131.046 231.517 134.544 235.832 134.544Z" stroke="black" stroke-width="1.20939" stroke-miterlimit="10"/>
<path d="M235.833 108.333C240.796 108.333 244.819 104.309 244.819 99.3452C244.819 94.3815 240.796 90.3577 235.833 90.3577C230.869 90.3577 226.846 94.3815 226.846 99.3452C226.846 104.309 230.869 108.333 235.833 108.333Z" stroke="black" stroke-width="1.20939" stroke-miterlimit="10"/>
<path d="M235.832 107.158C240.146 107.158 243.644 103.66 243.644 99.3452C243.644 95.0302 240.146 91.5322 235.832 91.5322C231.517 91.5322 228.02 95.0302 228.02 99.3452C228.02 103.66 231.517 107.158 235.832 107.158Z" stroke="black" stroke-width="1.20939" stroke-miterlimit="10"/>
<path d="M228.02 65.3397C229.091 65.3397 229.96 64.4712 229.96 63.3997C229.96 62.3283 229.091 61.4597 228.02 61.4597C226.949 61.4597 226.08 62.3283 226.08 63.3997C226.08 64.4712 226.949 65.3397 228.02 65.3397Z" stroke="black" stroke-width="1.20939" stroke-miterlimit="10"/>
<path d="M243.651 65.3397C244.722 65.3397 245.591 64.4712 245.591 63.3997C245.591 62.3283 244.722 61.4597 243.651 61.4597C242.579 61.4597 241.711 62.3283 241.711 63.3997C241.711 64.4712 242.579 65.3397 243.651 65.3397Z" stroke="black" stroke-width="1.20939" stroke-miterlimit="10"/>
<path d="M110.114 159.24C110.704 159.24 111.182 158.761 111.182 158.171C111.182 157.581 110.704 157.103 110.114 157.103C109.523 157.103 109.045 157.581 109.045 158.171C109.045 158.761 109.523 159.24 110.114 159.24Z" stroke="black" stroke-width="1.20939" stroke-miterlimit="10"/>
<path d="M112.25 159.24C112.84 159.24 113.319 158.761 113.319 158.171C113.319 157.581 112.84 157.103 112.25 157.103C111.66 157.103 111.182 157.581 111.182 158.171C111.182 158.761 111.66 159.24 112.25 159.24Z" stroke="black" stroke-width="1.20939" stroke-miterlimit="10"/>
<path d="M250.812 233.884H252.521V242.015H250.812" stroke="black" stroke-width="1.20939" stroke-miterlimit="10"/>
<path d="M243.053 277.551L246.711 273.898L243.053 270.239L240.945 272.348H230.726L228.617 270.239L224.959 273.898L228.617 277.551L230.726 275.443H240.945L243.053 277.551Z" stroke="black" stroke-width="1.20939" stroke-miterlimit="10"/>
<path d="M228.088 285.297C229.186 285.297 230.076 284.407 230.076 283.309C230.076 282.211 229.186 281.321 228.088 281.321C226.99 281.321 226.1 282.211 226.1 283.309C226.1 284.407 226.99 285.297 228.088 285.297Z" stroke="black" stroke-width="1.20939" stroke-miterlimit="10"/>
<path d="M243.582 285.297C244.68 285.297 245.57 284.407 245.57 283.309C245.57 282.211 244.68 281.321 243.582 281.321C242.484 281.321 241.594 282.211 241.594 283.309C241.594 284.407 242.484 285.297 243.582 285.297Z" stroke="black" stroke-width="1.20939" stroke-miterlimit="10"/>
<path d="M243.582 281.321V285.133" stroke="black" stroke-width="1.20939" stroke-miterlimit="10"/>
<path d="M244.015 305.592V308.606H229.738V305.592" stroke="black" stroke-width="1.20939" stroke-miterlimit="10"/>
</g>
<defs>
<clipPath id="clip0_1029_1961">
<rect width="252.762" height="335" fill="white" transform="translate(0 0.00537109)"/>
</clipPath>
</defs>
</svg>
