<svg width="37" height="37" viewBox="0 0 37 37" fill="none" xmlns="http://www.w3.org/2000/svg">
<rect x="1" y="1" width="35" height="35" stroke="#101010" stroke-width="0.87544"/>
<path d="M24.0687 23.7838C22.9357 23.7838 22.0172 24.7023 22.0172 25.8353C22.0172 26.9683 22.9357 27.8868 24.0687 27.8868C25.2018 27.8868 26.1203 26.9683 26.1203 25.8353C26.1203 24.7023 25.2018 23.7838 24.0687 23.7838ZM24.0687 23.7838C25.383 23.7651 25.448 21.7144 24.0687 21.5987L22.8904 21.4648M13.3843 25.8354C13.3843 26.9684 12.4658 27.8869 11.3328 27.8869C10.1998 27.8869 9.28125 26.9684 9.28125 25.8354C9.28125 24.7023 10.1998 23.7838 11.3328 23.7838C12.4658 23.7838 13.3843 24.7023 13.3843 25.8354Z" stroke="white" stroke-width="1.12059"/>
<path d="M10.0594 19.5336L8.57781 13.5357C8.47292 13.1111 8.75395 12.6877 9.18598 12.6195L27.4253 9.73828L24.2299 20.9765C24.1333 21.3163 23.8117 21.5418 23.4594 21.5169L11.4034 20.6647C10.7575 20.619 10.2147 20.1622 10.0594 19.5336Z" stroke="white" stroke-width="1.07944"/>
<path d="M27.9114 8.12838L27.8278 7.57436L27.4808 7.62674L27.3764 7.96176L27.9114 8.12838ZM30.3593 8.3255L30.9133 8.24187L30.746 7.13384L30.192 7.21747L30.3593 8.3255ZM27.995 8.68239L30.3593 8.3255L30.192 7.21747L27.8278 7.57436L27.995 8.68239ZM27.9412 9.91678L28.4463 8.295L27.3764 7.96176L26.8713 9.58354L27.9412 9.91678Z" fill="white"/>
<path d="M12.7031 11.9941L13.9637 20.8561" stroke="white" stroke-width="0.840439"/>
<path d="M22.3088 10.8457L21.2891 20.9649" stroke="white" stroke-width="0.840439"/>
<path d="M17.2266 11.4941L17.5849 21.0706" stroke="white" stroke-width="0.840439"/>
<path d="M9.42188 17.2913L25.5937 15.7305" stroke="white" stroke-width="0.840439"/>
<path d="M11.1953 23.7168H24.1629" stroke="white" stroke-width="0.980513"/>
</svg>
