<svg width="37" height="37" viewBox="0 0 37 37" fill="none" xmlns="http://www.w3.org/2000/svg">
<rect x="0.773438" y="1" width="35" height="35" stroke="#101010" stroke-width="0.87544"/>
<path d="M23.8422 23.7838C22.7091 23.7838 21.7906 24.7023 21.7906 25.8353C21.7906 26.9683 22.7091 27.8868 23.8422 27.8868C24.9752 27.8868 25.8937 26.9683 25.8937 25.8353C25.8937 24.7023 24.9752 23.7838 23.8422 23.7838ZM23.8422 23.7838C25.1565 23.7651 25.2215 21.7144 23.8422 21.5987L22.6638 21.4648M13.1578 25.8354C13.1578 26.9684 12.2393 27.8869 11.1062 27.8869C9.9732 27.8869 9.05469 26.9684 9.05469 25.8354C9.05469 24.7023 9.9732 23.7838 11.1062 23.7838C12.2393 23.7838 13.1578 24.7023 13.1578 25.8354Z" stroke="#101010" stroke-width="1.12059"/>
<path d="M9.83281 19.5336L8.35125 13.5357C8.24636 13.1111 8.52739 12.6877 8.95942 12.6195L27.1987 9.73828L24.0034 20.9765C23.9068 21.3163 23.5852 21.5418 23.2328 21.5169L11.1768 20.6647C10.5309 20.619 9.98809 20.1622 9.83281 19.5336Z" stroke="#101010" stroke-width="1.07944"/>
<path d="M27.6848 8.12838L27.6012 7.57436L27.2542 7.62674L27.1499 7.96176L27.6848 8.12838ZM30.1327 8.3255L30.6867 8.24187L30.5195 7.13384L29.9655 7.21747L30.1327 8.3255ZM27.7685 8.68239L30.1327 8.3255L29.9655 7.21747L27.6012 7.57436L27.7685 8.68239ZM27.7146 9.91678L28.2198 8.295L27.1499 7.96176L26.6447 9.58354L27.7146 9.91678Z" fill="#101010"/>
<path d="M12.4766 11.9941L13.7372 20.8561" stroke="#101010" stroke-width="0.840439"/>
<path d="M22.0823 10.8457L21.0625 20.9649" stroke="#101010" stroke-width="0.840439"/>
<path d="M17 11.4941L17.3584 21.0706" stroke="#101010" stroke-width="0.840439"/>
<path d="M9.19531 17.2913L25.3671 15.7305" stroke="#101010" stroke-width="0.840439"/>
<path d="M10.9688 23.7168H23.9364" stroke="#101010" stroke-width="0.980513"/>
</svg>
