<svg width="82" height="82" viewBox="0 0 82 82" fill="none" xmlns="http://www.w3.org/2000/svg">
<path d="M59.5002 21V50.1412H58.0902C57.2779 50.1408 56.4736 50.2901 55.723 50.5805C54.9725 50.8708 54.2905 51.2965 53.7161 51.8333C53.1416 52.37 52.6859 53.0074 52.375 53.7088C52.064 54.4102 51.904 55.162 51.904 55.9213C51.904 56.6806 52.064 57.4325 52.3749 58.1341C52.6858 58.8356 53.1415 59.4731 53.7159 60.01C54.2904 60.547 54.9723 60.9729 55.7229 61.2635C56.4734 61.5541 57.2778 61.7036 58.0902 61.7036H63.0071V21H59.5002ZM52.5229 41.353C52.5229 35.9557 50.2291 30.7794 46.1461 26.9629C42.0631 23.1463 36.5253 21.0023 30.7511 21.0023H19V61.7036H30.7414C36.5154 61.7031 42.0528 59.5587 46.1357 55.7424C50.2185 51.9261 52.5125 46.7501 52.5132 41.353H52.5229Z" fill="#101010"/>
<path d="M1 1H81V81H1V1Z" stroke="#101010" stroke-width="2"/>
</svg>
