<svg width="82" height="82" viewBox="0 0 82 82" fill="none" xmlns="http://www.w3.org/2000/svg">
<mask id="mask0_1_197" style="mask-type:luminance" maskUnits="userSpaceOnUse" x="19" y="21" width="44" height="40">
<path d="M63 21H19V60.6988H63V21Z" fill="white"/>
</mask>
<g mask="url(#mask0_1_197)">
<path d="M59.4904 21V49.4218H58.0804C57.2681 49.4214 56.4638 49.5671 55.7132 49.8502C54.9627 50.1334 54.2807 50.5486 53.7063 51.0721C53.1318 51.5956 52.6761 52.2172 52.3652 52.9013C52.0542 53.5854 51.8942 54.3187 51.8942 55.0592C51.8942 55.7998 52.0542 56.5331 52.3651 57.2174C52.676 57.9016 53.1317 58.5233 53.7061 59.047C54.2806 59.5707 54.9625 59.9861 55.7131 60.2695C56.4636 60.5529 57.268 60.6988 58.0804 60.6988H62.9973V21H59.4904ZM52.5131 40.8505C52.5131 35.5865 50.2193 30.538 46.1363 26.8157C42.0533 23.0933 36.5155 21.0022 30.7413 21.0022H18.9902V60.6988H30.7316C36.5056 60.6983 42.043 58.6069 46.1259 54.8847C50.2087 51.1626 52.5027 46.1144 52.5034 40.8505H52.5131Z" fill="white"/>
</g>
<path d="M1 1H81V81H1V1Z" stroke="white" stroke-width="2"/>
</svg>
