<svg width="41" height="42" viewBox="0 0 41 42" fill="none" xmlns="http://www.w3.org/2000/svg">
<g clip-path="url(#clip0_1029_405)">
<path d="M20.5352 41.0095C31.5809 41.0095 40.5352 32.0552 40.5352 21.0095C40.5352 9.96383 31.5809 1.00952 20.5352 1.00952C9.48946 1.00952 0.535156 9.96383 0.535156 21.0095C0.535156 32.0552 9.48946 41.0095 20.5352 41.0095Z" fill="white" stroke="black" stroke-width="0.5" stroke-miterlimit="10"/>
<path d="M0.535156 21.0095C0.535156 32.0595 9.48516 41.0095 20.5352 41.0095V1.00952C9.48516 1.00952 0.535156 9.95952 0.535156 21.0095Z" fill="black"/>
<path d="M7.30516 17.7496C7.25516 18.2696 7.22516 18.9096 7.09516 19.5296C7.05516 19.7196 6.72516 19.8496 6.52516 19.9996C6.44516 19.7696 6.28516 19.5396 6.28516 19.3096C6.28516 18.5196 6.42516 17.7196 6.36516 16.9396C6.12516 14.2096 8.78516 11.6596 11.3552 11.4796C14.4452 11.2596 16.8152 13.0696 17.1552 16.1096C17.6052 20.1496 16.8652 24.0196 14.9352 27.6096C14.2352 28.9096 13.2952 30.0396 11.7652 30.4296C10.0152 30.8796 8.18516 30.1396 7.39516 28.5096C6.96516 27.6196 6.78516 26.5896 6.55516 25.6196C6.51516 25.4496 6.75516 25.2096 6.86516 24.9996C7.04516 25.1696 7.31516 25.3196 7.38516 25.5296C7.60516 26.2196 7.67516 26.9596 7.94516 27.6296C8.84516 29.8496 11.3952 30.3296 13.0852 28.6296C14.3952 27.2996 15.0152 25.5996 15.5152 23.8496C16.1052 21.7596 16.4552 19.6296 16.3752 17.4496C16.3552 16.7696 16.2452 16.0796 16.0652 15.4296C15.6152 13.8596 14.5952 12.8596 12.9552 12.5296C10.9852 12.1296 9.40516 12.7296 8.13516 14.2696C7.31516 15.2496 7.12516 16.3896 7.30516 17.7496Z" fill="white"/>
<path d="M10.7455 30.6895C9.27555 30.6895 7.93555 29.8995 7.28555 28.5695C6.93555 27.8395 6.74555 27.0195 6.56555 26.2195C6.52555 26.0295 6.47555 25.8395 6.43555 25.6495C6.39555 25.4795 6.51555 25.2995 6.63555 25.1295C6.67555 25.0695 6.72555 24.9995 6.75555 24.9395L6.83555 24.7895L6.95555 24.9095C7.00555 24.9595 7.07555 25.0095 7.13555 25.0595C7.29555 25.1795 7.45555 25.3095 7.51555 25.4895C7.61555 25.7895 7.67555 26.1095 7.74555 26.4095C7.82555 26.7995 7.91555 27.2095 8.06555 27.5795C8.47555 28.5895 9.26555 29.2795 10.2355 29.4695C11.2155 29.6595 12.2155 29.3195 12.9955 28.5295C14.2255 27.2895 14.8455 25.7395 15.3955 23.7995C16.0455 21.5195 16.3255 19.4395 16.2555 17.4395C16.2355 16.7495 16.1255 16.0695 15.9455 15.4495C15.5055 13.8995 14.4855 12.9595 12.9355 12.6395C11.0255 12.2495 9.49555 12.8095 8.23555 14.3395C7.49555 15.2395 7.24555 16.3095 7.44555 17.7295V17.7495V17.7695C7.43555 17.9095 7.41555 18.0495 7.40555 18.1995C7.36555 18.6195 7.32555 19.0895 7.23555 19.5595C7.19555 19.7395 7.00555 19.8595 6.82555 19.9695C6.75555 20.0095 6.68555 20.0595 6.62555 20.0995L6.49555 20.2095L6.43555 20.0495C6.40555 19.9795 6.37555 19.9095 6.34555 19.8495C6.26555 19.6795 6.18555 19.5095 6.18555 19.3295C6.18555 19.0095 6.20555 18.6795 6.23555 18.3595C6.26555 17.8995 6.30555 17.4195 6.26555 16.9595C6.15555 15.7495 6.60555 14.4995 7.51555 13.4295C8.53555 12.2295 9.97555 11.4595 11.3755 11.3595C14.5855 11.1195 16.9655 13.0395 17.3155 16.0995C17.7755 20.1795 17.0255 24.0695 15.0855 27.6795C14.5355 28.6995 13.5955 30.1095 11.8355 30.5595C11.4455 30.6395 11.0855 30.6895 10.7455 30.6895ZM6.89555 25.1895C6.87555 25.2195 6.85555 25.2495 6.83555 25.2695C6.76555 25.3795 6.65555 25.5195 6.67555 25.5795C6.72555 25.7695 6.76555 25.9595 6.80555 26.1595C6.98555 26.9395 7.16555 27.7495 7.50555 28.4495C8.25555 29.9895 9.98555 30.7495 11.7255 30.3095C12.9955 29.9895 13.9755 29.1095 14.8155 27.5495C16.7355 23.9895 17.4755 20.1495 17.0255 16.1195C16.6955 13.1995 14.4055 11.3795 11.3555 11.5995C10.0255 11.6995 8.64555 12.4395 7.66555 13.5795C6.80555 14.5895 6.37555 15.7795 6.47555 16.9195C6.51555 17.3995 6.48555 17.8795 6.44555 18.3595C6.42555 18.6695 6.39555 18.9895 6.39555 19.3095C6.39555 19.4395 6.46555 19.5795 6.52555 19.7195C6.53555 19.7495 6.54555 19.7695 6.56555 19.7995C6.59555 19.7795 6.62555 19.7595 6.65555 19.7395C6.78555 19.6595 6.93555 19.5695 6.95555 19.4895C7.04555 19.0395 7.08555 18.5795 7.12555 18.1695C7.13555 18.0195 7.14555 17.8795 7.16555 17.7495C6.96555 16.2695 7.23555 15.1295 8.01555 14.1795C9.33555 12.5695 10.9555 11.9895 12.9555 12.3995C14.6055 12.7395 15.6855 13.7395 16.1555 15.3895C16.3355 16.0295 16.4455 16.7195 16.4755 17.4395C16.5455 19.4595 16.2655 21.5695 15.6055 23.8795C15.1155 25.5895 14.4855 27.3595 13.1455 28.7195C12.3055 29.5695 11.2155 29.9395 10.1555 29.7295C9.12555 29.4995 8.26555 28.7595 7.82555 27.6695C7.66555 27.2795 7.57555 26.8595 7.48555 26.4595C7.42555 26.1595 7.35555 25.8495 7.26555 25.5595C7.23555 25.4495 7.10555 25.3495 6.97555 25.2495C6.94555 25.2295 6.91555 25.2095 6.89555 25.1895Z" fill="black"/>
<path d="M9.28578 17.9796C9.48578 17.7096 9.65578 17.4296 9.86578 17.1796C10.5258 16.3996 11.5458 16.1496 12.5758 16.4996C13.4458 16.7896 13.9858 17.5296 14.0058 18.5896C14.0458 20.7896 13.4658 22.8296 12.2458 24.6496C11.4058 25.9096 10.6058 26.0796 9.38578 25.4196C8.58578 24.9796 8.31578 24.4996 8.48578 23.5696C8.59578 22.9596 8.47578 22.6196 7.81578 22.4696C7.46578 22.3896 7.10578 22.1896 6.84578 21.9496C6.69578 21.8096 6.72578 21.4796 6.67578 21.2296C6.91578 21.2396 7.16578 21.1996 7.37578 21.2696C7.70578 21.3796 7.98578 21.6096 8.31578 21.7196C9.29578 22.0496 9.62578 22.5296 9.41578 23.5696C9.28578 24.2096 9.50578 24.5496 10.0958 24.7896C10.6158 24.9996 10.9458 24.7796 11.2358 24.4096C12.2158 23.1896 12.6658 21.7396 12.9258 20.2296C13.0258 19.6696 13.1258 19.0696 13.0258 18.5296C12.9558 18.1096 12.6558 17.5996 12.3058 17.3796C11.8458 17.0896 11.2458 17.1596 10.7558 17.5396C9.93578 18.1796 9.76578 19.0796 10.2558 19.9996C10.3358 20.1596 10.2858 20.4596 10.1858 20.6096C10.1258 20.6896 9.75578 20.6696 9.62578 20.5696C8.45578 19.6596 7.85578 17.3496 8.39578 15.9696C8.93578 14.6096 10.0558 13.7596 11.4858 13.7896C13.1158 13.8296 14.4558 14.4796 15.1758 16.0296C15.8458 17.4596 15.8758 18.9996 15.5358 20.4996C15.2658 21.6696 14.7858 22.7896 14.3858 23.9296C14.2858 24.1996 14.1558 24.5696 13.7258 24.3396C13.3258 24.1296 13.4958 23.8396 13.6358 23.5496C14.5758 21.6996 15.0458 19.7596 14.7958 17.6796C14.5458 15.6196 12.7158 14.2796 10.8758 14.7696C9.66578 15.0996 8.64578 16.8296 9.28578 17.9796Z" fill="white"/>
<path d="M10.5956 25.9196C10.2156 25.9196 9.79562 25.7896 9.31562 25.5296C8.44562 25.0596 8.17562 24.4996 8.35562 23.5396C8.46562 22.9396 8.32562 22.7096 7.78562 22.5896C7.42562 22.5096 7.04562 22.3096 6.75562 22.0396C6.61562 21.9096 6.59562 21.6996 6.57562 21.4896C6.56562 21.4096 6.56563 21.3296 6.54563 21.2596L6.51562 21.0996L6.67562 21.1096C6.74562 21.1096 6.81562 21.1096 6.88562 21.1096C7.06562 21.1096 7.24563 21.0996 7.41563 21.1596C7.58563 21.2196 7.75562 21.3096 7.90562 21.3896C8.05562 21.4696 8.20562 21.5496 8.35562 21.5996C9.41562 21.9596 9.75563 22.5196 9.53562 23.5896C9.42563 24.1596 9.58563 24.4496 10.1356 24.6796C10.5856 24.8596 10.8556 24.6896 11.1356 24.3396C11.9656 23.3096 12.4856 22.0296 12.8056 20.2196C12.8956 19.7196 13.0056 19.0996 12.9056 18.5596C12.8356 18.1396 12.5456 17.6896 12.2456 17.4996C11.8256 17.2396 11.2956 17.2996 10.8356 17.6496C10.0656 18.2496 9.90562 19.0696 10.3656 19.9496C10.4756 20.1596 10.4156 20.5096 10.2856 20.6896C10.2456 20.7396 10.1856 20.7696 10.0956 20.7896C9.93563 20.8096 9.67563 20.7796 9.54563 20.6796C8.33563 19.7296 7.70563 17.3796 8.28562 15.9296C8.84562 14.5096 10.0156 13.6696 11.4256 13.6696C11.4556 13.6696 11.4756 13.6696 11.5056 13.6696C13.3256 13.7096 14.6056 14.4896 15.3056 15.9796C15.9356 17.3196 16.0556 18.8496 15.6756 20.5296C15.4756 21.4196 15.1456 22.2996 14.8256 23.1496C14.7256 23.4296 14.6156 23.6996 14.5156 23.9796C14.4456 24.1696 14.3556 24.4296 14.1256 24.5196C13.9956 24.5696 13.8456 24.5496 13.6756 24.4696C13.1756 24.2096 13.3856 23.8096 13.5256 23.5396C14.5456 21.5296 14.9156 19.6396 14.6856 17.7096C14.5656 16.7096 14.0456 15.8296 13.2556 15.3096C12.5556 14.8396 11.7256 14.6996 10.9156 14.9096C10.3056 15.0696 9.70562 15.6596 9.40562 16.3596C9.19562 16.8596 9.16562 17.3396 9.31562 17.7496C9.33562 17.7196 9.35562 17.6996 9.36562 17.6696C9.49563 17.4796 9.62562 17.2896 9.77562 17.1096C10.4656 16.2896 11.5356 16.0196 12.6256 16.3896C13.5656 16.7096 14.1156 17.5096 14.1356 18.5996C14.1756 20.8496 13.5756 22.9096 12.3556 24.7296C11.8056 25.5296 11.2556 25.9196 10.5956 25.9196ZM6.81563 21.3496C6.81563 21.3896 6.82562 21.4196 6.82562 21.4596C6.83562 21.6196 6.85562 21.7896 6.92562 21.8496C7.18562 22.0896 7.52563 22.2696 7.83563 22.3396C8.67563 22.5196 8.69563 23.0396 8.59563 23.5796C8.43563 24.4396 8.64563 24.8796 9.42563 25.2996C10.6056 25.9396 11.3356 25.7396 12.1256 24.5696C13.3156 22.7896 13.9056 20.7796 13.8656 18.5796C13.8456 17.5896 13.3756 16.8896 12.5256 16.5996C11.5356 16.2696 10.5756 16.5096 9.94562 17.2496C9.80562 17.4196 9.68563 17.5996 9.55563 17.7896C9.49563 17.8796 9.43563 17.9596 9.37563 18.0496L9.26562 18.2096L9.16563 18.0396C8.88563 17.5396 8.88562 16.8996 9.15562 16.2496C9.48562 15.4696 10.1456 14.8496 10.8356 14.6596C11.7056 14.4196 12.6156 14.5796 13.3756 15.0896C14.2156 15.6596 14.7756 16.5996 14.9156 17.6696C15.1556 19.6396 14.7756 21.5896 13.7456 23.6196C13.5656 23.9696 13.5256 24.1096 13.7756 24.2396C13.8756 24.2896 13.9556 24.3096 14.0156 24.2796C14.1356 24.2296 14.2056 24.0396 14.2556 23.8896C14.3556 23.6096 14.4556 23.3396 14.5656 23.0596C14.8856 22.2196 15.2056 21.3496 15.4056 20.4796C15.7756 18.8496 15.6556 17.3696 15.0556 16.0896C14.3956 14.6896 13.1956 13.9596 11.4756 13.9196C11.4556 13.9196 11.4256 13.9196 11.4056 13.9196C10.1056 13.9196 9.02563 14.6996 8.50563 16.0196C7.98563 17.3596 8.58563 19.6096 9.70563 20.4696C9.78562 20.5296 10.0456 20.5496 10.1056 20.5196C10.1756 20.4096 10.2056 20.1596 10.1556 20.0496C9.63562 19.0596 9.83562 18.1096 10.6956 17.4296C11.2356 17.0096 11.8856 16.9396 12.3856 17.2596C12.7956 17.5196 13.0856 18.0796 13.1556 18.4896C13.2556 19.0796 13.1456 19.7196 13.0556 20.2396C12.7256 22.0996 12.1956 23.4096 11.3356 24.4796C11.0556 24.8296 10.6856 25.1496 10.0556 24.8996C9.39563 24.6296 9.16563 24.2196 9.30563 23.5296C9.49563 22.5796 9.23563 22.1496 8.28562 21.8196C8.11563 21.7596 7.95563 21.6696 7.79563 21.5896C7.64563 21.5096 7.49562 21.4296 7.34562 21.3696C7.21562 21.3296 7.06562 21.3296 6.90562 21.3296C6.86562 21.3496 6.84563 21.3496 6.81563 21.3496Z" fill="black"/>
<path d="M23.9456 23.4995C23.5756 23.7195 23.2056 23.9395 22.8856 24.2195C22.8056 24.2895 22.7756 24.4295 22.7456 24.5695C22.7256 24.6795 22.7956 24.7895 22.9056 24.8195C23.0556 24.8595 23.2056 24.8895 23.3156 24.8395C23.6856 24.6595 24.0156 24.4095 24.3556 24.1595C24.4356 24.0995 24.5056 24.0095 24.5556 23.9395C24.5856 23.8895 24.6056 23.8395 24.5956 23.7795C24.5356 23.4595 24.2256 23.3295 23.9456 23.4995Z" fill="black"/>
<path d="M22.835 17.8995C23.195 18.1795 23.575 18.4495 23.985 18.6595C24.075 18.7095 24.215 18.6595 24.345 18.6095C24.435 18.5795 24.505 18.4895 24.495 18.3895C24.485 18.2495 24.465 18.1095 24.395 18.0395C24.095 17.7795 23.745 17.5695 23.415 17.3495C23.335 17.2995 23.245 17.2495 23.135 17.1995C23.065 17.1595 22.975 17.1695 22.915 17.2095C22.815 17.2795 22.705 17.3495 22.695 17.4395C22.655 17.5795 22.725 17.8095 22.835 17.8995Z" fill="black"/>
<path d="M23.2155 21.4495C23.4255 21.4495 23.6455 21.4995 23.8355 21.4395C23.9755 21.3895 24.1355 21.1995 24.1555 21.0595C24.1655 20.9595 23.9755 20.7395 23.8555 20.7295C23.4455 20.6895 23.0255 20.6895 22.6055 20.7295C22.4855 20.7395 22.2755 20.9495 22.2855 21.0495C22.3055 21.1995 22.4555 21.3895 22.5955 21.4395C22.7855 21.4995 23.0055 21.4495 23.2155 21.4495Z" fill="black"/>
<path d="M38.2759 23.4595C38.2859 21.9595 38.2559 20.4695 38.2859 18.9795C38.3059 18.1395 37.9759 17.7595 37.1259 17.7795C35.7359 17.8095 34.3359 17.8395 32.9459 17.7595C32.2959 17.7295 31.6759 17.5195 31.1259 17.1895C29.8859 16.4495 28.7259 15.5795 27.4959 14.8195C27.1859 14.6295 26.6759 14.4695 26.4059 14.6095C26.1459 14.7395 25.9459 15.2595 25.9459 15.6095C25.9159 19.1395 25.9159 22.6695 25.9259 26.1995C25.9259 27.3695 26.7359 27.7995 27.7159 27.1695C28.8759 26.4195 30.0159 25.6395 31.1759 24.8795C31.4159 24.7195 31.6859 24.5095 31.9459 24.4395C31.9959 24.4495 32.0459 24.4595 32.0959 24.4595H37.4159C37.8959 24.4595 38.2759 24.0695 38.2759 23.5995C38.2859 23.5495 38.2759 23.4995 38.2759 23.4595ZM27.6759 24.7495V17.3395C27.6759 17.1695 27.8659 17.0695 28.0059 17.1595C28.8959 17.7395 29.7359 18.2795 30.5559 18.8495C30.7059 18.9495 30.7959 19.1995 30.8259 19.3995C30.8759 19.6395 30.8359 19.8995 30.8359 20.1495C30.8359 23.3995 30.8359 23.5095 27.9759 24.9395C27.8459 25.0095 27.6759 24.9095 27.6759 24.7495ZM32.8059 19.4595H36.3959C36.5159 19.4595 36.6059 19.5595 36.6059 19.6695C36.6059 20.5495 36.6259 21.3795 36.5859 22.2195C36.5759 22.3995 36.2759 22.6995 36.0959 22.7095C35.0159 22.7495 33.9259 22.7395 32.8059 22.7295C32.6859 22.7295 32.5959 22.6295 32.5959 22.5195V19.6795C32.5959 19.5595 32.6859 19.4595 32.8059 19.4595Z" fill="black"/>
<path d="M26.8654 27.8095C26.6554 27.8095 26.4654 27.7595 26.2854 27.6695C25.8254 27.4195 25.5754 26.8995 25.5754 26.1995C25.5654 23.0395 25.5553 19.3195 25.5953 15.5995C25.5953 15.1995 25.8053 14.5095 26.2453 14.2895C26.6753 14.0695 27.3353 14.3095 27.6753 14.5195C28.2353 14.8695 28.7953 15.2395 29.3453 15.6195C29.9753 16.0495 30.6354 16.4895 31.2954 16.8895C31.8054 17.1995 32.3853 17.3795 32.9553 17.4095C34.3653 17.4895 35.8153 17.4495 37.1053 17.4295C37.6353 17.4095 38.0054 17.5395 38.2554 17.7995C38.5154 18.0595 38.6354 18.4495 38.6253 18.9895C38.6053 19.8795 38.6054 20.7695 38.6154 21.6595C38.6154 22.2495 38.6154 22.8395 38.6154 23.4295C38.6254 23.4895 38.6253 23.5395 38.6253 23.5995C38.6253 24.2695 38.0854 24.8095 37.4154 24.8095H32.0953C32.0553 24.8095 32.0054 24.8095 31.9654 24.7995C31.8354 24.8495 31.6754 24.9595 31.5254 25.0595L31.3554 25.1695C30.8253 25.5195 30.3054 25.8695 29.7754 26.2195C29.1554 26.6395 28.5254 27.0595 27.8954 27.4595C27.5554 27.6895 27.1954 27.8095 26.8654 27.8095ZM26.6554 14.9095C26.6154 14.9095 26.5854 14.9095 26.5654 14.9195C26.4654 14.9695 26.2954 15.3295 26.2954 15.6095C26.2654 19.3195 26.2653 23.0395 26.2753 26.1995C26.2753 26.6295 26.4054 26.9395 26.6154 27.0495C26.8354 27.1695 27.1653 27.0995 27.5253 26.8695C28.1553 26.4595 28.7754 26.0495 29.3954 25.6295C29.9254 25.2795 30.4454 24.9295 30.9754 24.5795L31.1254 24.4795C31.3454 24.3295 31.5854 24.1595 31.8554 24.0995L31.9353 24.0795L32.0153 24.0995L37.4053 24.1095C37.6853 24.1095 37.9154 23.8795 37.9154 23.5995L37.9053 23.4595C37.9053 22.8595 37.9053 22.2595 37.9053 21.6595C37.9053 20.7595 37.8954 19.8695 37.9154 18.9695C37.9254 18.6295 37.8654 18.4095 37.7554 18.2895C37.6454 18.1795 37.4354 18.1195 37.1154 18.1295C35.8154 18.1595 34.3454 18.1895 32.9154 18.1095C32.2254 18.0695 31.5353 17.8595 30.9253 17.4895C30.2453 17.0795 29.5854 16.6295 28.9454 16.1995C28.4054 15.8295 27.8554 15.4595 27.2954 15.1195C27.0854 14.9795 26.8054 14.9095 26.6554 14.9095ZM27.8854 25.3195C27.7854 25.3195 27.6753 25.2895 27.5853 25.2395C27.4153 25.1395 27.3154 24.9595 27.3154 24.7595V17.3495C27.3154 17.1395 27.4253 16.9495 27.6054 16.8595C27.7854 16.7595 28.0053 16.7695 28.1853 16.8795L28.6354 17.1795C29.3654 17.6495 30.0553 18.1095 30.7453 18.5795C31.0153 18.7695 31.1253 19.1395 31.1653 19.3495C31.2053 19.5595 31.1954 19.7595 31.1853 19.9595L31.1753 20.1695C31.1753 23.6095 31.0654 23.8095 28.1254 25.2795C28.0554 25.2995 27.9754 25.3195 27.8854 25.3195ZM28.0254 17.5895V24.5295C30.4953 23.2895 30.4953 23.2195 30.4953 20.1495C30.4953 20.0695 30.4953 19.9895 30.5053 19.9095C30.5153 19.7495 30.5153 19.5895 30.4953 19.4595C30.4553 19.2595 30.3954 19.1495 30.3654 19.1295C29.6854 18.6595 28.9954 18.2095 28.2754 17.7395L28.0254 17.5895ZM34.3353 23.0895C34.0453 23.0895 33.7553 23.0895 33.4553 23.0895H32.7953C32.4853 23.0895 32.2354 22.8395 32.2354 22.5295V19.6895C32.2354 19.3795 32.4853 19.1295 32.7953 19.1295H36.3853C36.6953 19.1295 36.9453 19.3795 36.9453 19.6895V20.2295C36.9553 20.9295 36.9554 21.5895 36.9154 22.2595C36.8954 22.6195 36.4454 23.0595 36.0954 23.0795C35.5254 23.0795 34.9353 23.0895 34.3353 23.0895ZM32.9454 22.3795H33.4654C34.3554 22.3795 35.2153 22.3895 36.0853 22.3595C36.1053 22.3395 36.2253 22.2295 36.2453 22.1695C36.2753 21.5495 36.2753 20.8995 36.2653 20.2195V19.8195H32.9454V22.3795Z" fill="white"/>
</g>
<defs>
<clipPath id="clip0_1029_405">
<rect width="40.5" height="40.5" fill="white" transform="translate(0.285156 0.759521)"/>
</clipPath>
</defs>
</svg>
