<svg width="41" height="42" viewBox="0 0 41 42" fill="none" xmlns="http://www.w3.org/2000/svg">
<g clip-path="url(#clip0_1029_424)">
<path d="M20.5352 41.0095C31.5809 41.0095 40.5352 32.0552 40.5352 21.0095C40.5352 9.96383 31.5809 1.00952 20.5352 1.00952C9.48946 1.00952 0.535156 9.96383 0.535156 21.0095C0.535156 32.0552 9.48946 41.0095 20.5352 41.0095Z" fill="white" stroke="black" stroke-width="0.5" stroke-miterlimit="10"/>
<path d="M0.535156 21.0095C0.535156 32.0595 9.48516 41.0095 20.5352 41.0095V1.00952C9.48516 1.00952 0.535156 9.95952 0.535156 21.0095Z" fill="black"/>
<path d="M7.98578 31.7196L10.6058 18.5996C10.6258 18.4796 10.5658 18.3596 10.4458 18.3196C8.79578 17.7396 7.67578 16.1796 7.67578 14.4296C7.67578 12.1496 9.52578 10.2996 11.8058 10.2996C14.0858 10.2996 15.9358 12.1496 15.9358 14.4296C15.9358 16.1796 14.8258 17.7396 13.1658 18.3196C13.0458 18.3596 12.9758 18.4796 13.0058 18.5996L15.6258 31.7196H7.98578Z" fill="black"/>
<path d="M11.8155 10.5496C13.9555 10.5496 15.6955 12.2896 15.6955 14.4296C15.6955 16.0696 14.6555 17.5396 13.0955 18.0896C12.8555 18.1696 12.7255 18.4196 12.7655 18.6596L15.3255 31.4796H8.29555L10.8555 18.6596C10.9055 18.4196 10.7655 18.1696 10.5255 18.0896C8.97555 17.5496 7.92555 16.0796 7.92555 14.4296C7.93555 12.2896 9.67555 10.5496 11.8155 10.5496ZM11.8155 10.0496C9.39555 10.0496 7.43555 12.0096 7.43555 14.4296C7.43555 16.3396 8.66555 17.9596 10.3655 18.5596L7.68555 31.9696H15.9455L13.2555 18.5596C14.9655 17.9596 16.1855 16.3396 16.1855 14.4296C16.1855 12.0096 14.2255 10.0496 11.8155 10.0496Z" fill="white"/>
<path d="M23.4551 14.1995C24.0151 13.0995 25.2151 12.2595 26.5451 12.1395C27.8651 11.9795 29.2751 12.5295 30.1851 13.5195C30.9251 14.3195 32.0251 14.7695 33.1451 14.7495C34.2851 14.7495 35.3651 14.2095 36.2851 13.3595C35.9551 13.8795 35.5551 14.3795 35.0251 14.7595C34.4951 15.1295 33.8651 15.3795 33.2051 15.4495C31.8851 15.6295 30.4651 15.1195 29.5351 14.1295C28.7851 13.2995 27.7251 12.8395 26.5951 12.8295C25.4651 12.8395 24.3151 13.3095 23.4551 14.1995Z" fill="black"/>
<path d="M23.2852 17.0895C23.8452 15.9895 25.0452 15.1495 26.3752 15.0295C27.6952 14.8695 29.1052 15.4195 30.0152 16.4095C30.7552 17.2095 31.8552 17.6595 32.9752 17.6395C34.1152 17.6395 35.1952 17.0995 36.1152 16.2495C35.7852 16.7695 35.3852 17.2695 34.8552 17.6495C34.3252 18.0195 33.6952 18.2695 33.0352 18.3395C31.7152 18.5195 30.2952 18.0095 29.3652 17.0195C28.6152 16.1895 27.5552 15.7295 26.4252 15.7195C25.2952 15.7295 24.1452 16.1895 23.2852 17.0895Z" fill="black"/>
<path d="M23.4551 19.9695C24.0151 18.8695 25.2151 18.0295 26.5451 17.9095C27.8651 17.7495 29.2751 18.2995 30.1851 19.2895C30.9251 20.0895 32.0251 20.5395 33.1451 20.5195C34.2851 20.5195 35.3651 19.9795 36.2851 19.1295C35.9551 19.6495 35.5551 20.1495 35.0251 20.5295C34.4951 20.8995 33.8651 21.1495 33.2051 21.2195C31.8851 21.3995 30.4651 20.8895 29.5351 19.8995C28.7851 19.0695 27.7251 18.6095 26.5951 18.5995C25.4651 18.6095 24.3151 19.0695 23.4551 19.9695Z" fill="black"/>
<path d="M23.2852 22.8495C23.8452 21.7495 25.0452 20.9095 26.3752 20.7895C27.6952 20.6295 29.1052 21.1795 30.0152 22.1695C30.7552 22.9695 31.8552 23.4195 32.9752 23.3995C34.1152 23.3995 35.1952 22.8595 36.1152 22.0095C35.7852 22.5295 35.3852 23.0295 34.8552 23.4095C34.3252 23.7795 33.6952 24.0295 33.0352 24.0995C31.7152 24.2795 30.2952 23.7695 29.3652 22.7795C28.6152 21.9495 27.5552 21.4895 26.4252 21.4795C25.2952 21.4895 24.1452 21.9495 23.2852 22.8495Z" fill="black"/>
<path d="M23.4551 25.7295C24.0151 24.6295 25.2151 23.7895 26.5451 23.6695C27.8651 23.5095 29.2751 24.0595 30.1851 25.0495C30.9251 25.8495 32.0251 26.2995 33.1451 26.2795C34.2851 26.2795 35.3651 25.7395 36.2851 24.8895C35.9551 25.4095 35.5551 25.9095 35.0251 26.2895C34.4951 26.6595 33.8651 26.9095 33.2051 26.9795C31.8851 27.1595 30.4651 26.6495 29.5351 25.6595C28.7851 24.8295 27.7251 24.3695 26.5951 24.3595C25.4651 24.3695 24.3151 24.8295 23.4551 25.7295Z" fill="black"/>
<path d="M23.2852 28.6095C23.8452 27.5095 25.0452 26.6695 26.3752 26.5495C27.6952 26.3895 29.1052 26.9395 30.0152 27.9295C30.7552 28.7295 31.8552 29.1795 32.9752 29.1595C34.1152 29.1595 35.1952 28.6195 36.1152 27.7695C35.7852 28.2895 35.3852 28.7895 34.8552 29.1695C34.3252 29.5395 33.6952 29.7895 33.0352 29.8595C31.7152 30.0395 30.2952 29.5295 29.3652 28.5395C28.6152 27.7095 27.5552 27.2495 26.4252 27.2395C25.2952 27.2495 24.1452 27.7095 23.2852 28.6095Z" fill="black"/>
</g>
<defs>
<clipPath id="clip0_1029_424">
<rect width="40.5" height="40.5" fill="white" transform="translate(0.285156 0.759521)"/>
</clipPath>
</defs>
</svg>
