<svg width="41" height="42" viewBox="0 0 41 42" fill="none" xmlns="http://www.w3.org/2000/svg">
<g clip-path="url(#clip0_1029_352)">
<path d="M20.5352 41.0095C31.5809 41.0095 40.5352 32.0552 40.5352 21.0095C40.5352 9.96383 31.5809 1.00952 20.5352 1.00952C9.48946 1.00952 0.535156 9.96383 0.535156 21.0095C0.535156 32.0552 9.48946 41.0095 20.5352 41.0095Z" fill="white" stroke="black" stroke-width="0.5" stroke-miterlimit="10"/>
<path d="M0.535156 21.0095C0.535156 32.0595 9.48516 41.0095 20.5352 41.0095V1.00952C9.48516 1.00952 0.535156 9.95952 0.535156 21.0095Z" fill="black"/>
<path d="M7.98578 31.7196L10.6058 18.5996C10.6258 18.4796 10.5658 18.3596 10.4458 18.3196C8.79578 17.7396 7.67578 16.1796 7.67578 14.4296C7.67578 12.1496 9.52578 10.2996 11.8058 10.2996C14.0858 10.2996 15.9358 12.1496 15.9358 14.4296C15.9358 16.1796 14.8258 17.7396 13.1658 18.3196C13.0458 18.3596 12.9758 18.4796 13.0058 18.5996L15.6258 31.7196H7.98578Z" fill="black"/>
<path d="M11.8155 10.5496C13.9555 10.5496 15.6955 12.2896 15.6955 14.4296C15.6955 16.0696 14.6555 17.5396 13.0955 18.0896C12.8555 18.1696 12.7255 18.4196 12.7655 18.6596L15.3255 31.4796H8.29555L10.8555 18.6596C10.9055 18.4196 10.7655 18.1696 10.5255 18.0896C8.97555 17.5496 7.92555 16.0796 7.92555 14.4296C7.93555 12.2896 9.67555 10.5496 11.8155 10.5496ZM11.8155 10.0496C9.39555 10.0496 7.43555 12.0096 7.43555 14.4296C7.43555 16.3396 8.66555 17.9596 10.3655 18.5596L7.68555 31.9696H15.9455L13.2555 18.5596C14.9655 17.9596 16.1855 16.3396 16.1855 14.4296C16.1855 12.0096 14.2255 10.0496 11.8155 10.0496Z" fill="white"/>
<path d="M31.535 28.5395C31.535 27.8495 31.445 26.7095 30.945 25.8395C30.395 26.0695 29.525 26.6195 29.075 27.3895C28.605 28.1795 27.285 31.3795 27.285 31.3795C27.285 31.3795 26.235 33.0695 26.055 33.3895C25.875 33.7095 25.685 33.7095 25.465 33.6595C25.235 33.6095 24.415 33.1595 24.415 33.1595L25.235 30.7395L23.635 32.8895L22.625 32.4295L24.175 29.3195C24.175 29.3195 25.635 28.0395 27.145 26.0695C28.655 24.0995 30.435 22.9095 31.905 23.7795C33.365 24.6495 34.005 25.6095 33.915 30.0395" stroke="black" stroke-width="0.4" stroke-miterlimit="10" stroke-linecap="round" stroke-linejoin="round"/>
<path d="M33.7752 35.7495C33.8252 33.5695 33.8752 31.5095 33.9052 30.0495C33.9952 25.6095 33.3552 24.6495 31.8952 23.7895C30.4352 22.9195 28.6452 24.1095 27.1352 26.0795C25.6252 28.0495 24.1652 29.3295 24.1652 29.3295L22.6152 32.4395L23.6252 32.8995L25.2252 30.7495L24.4052 33.1695C24.4052 33.1695 25.2252 33.6295 25.4552 33.6695C25.6852 33.7195 25.8652 33.7195 26.0452 33.3995C26.2252 33.0795 27.2752 31.3895 27.2752 31.3895C27.2752 31.3895 28.6052 28.1895 29.0552 27.4095C29.5152 26.6295 30.3852 26.0795 30.9252 25.8595C31.4252 26.7295 31.5152 27.8695 31.5152 28.5595C31.5152 28.8395 31.4952 32.8595 31.4852 37.5195L33.7752 35.7495Z" stroke="black" stroke-width="0.4" stroke-miterlimit="10" stroke-linecap="round" stroke-linejoin="round"/>
<path d="M27.505 25.6395L28.605 26.0695C28.605 26.0695 26.955 28.4495 27.415 30.9595" stroke="black" stroke-width="0.4" stroke-miterlimit="10" stroke-linecap="round" stroke-linejoin="round"/>
<path d="M23.0158 13.0896C23.0458 9.43958 26.0558 6.52958 29.6458 6.53958C33.0858 6.54958 36.1458 9.31958 36.2158 13.0796C36.2758 13.0896 36.3458 13.1096 36.4058 13.1296C36.9458 13.2396 37.3258 13.7196 37.2858 14.2496C37.2458 14.7796 36.7958 15.2096 36.2558 15.2396C36.2158 15.2396 36.1758 15.2396 36.1258 15.2396C31.7858 15.2396 27.4458 15.2396 23.1058 15.2396C22.5158 15.2396 22.1058 14.9296 21.9758 14.3996C21.8458 13.8296 22.2058 13.2596 22.7758 13.1396C22.8558 13.1196 22.9258 13.1096 23.0158 13.0896Z" fill="black"/>
<path d="M30.5261 20.5695C29.9261 20.2595 29.3261 20.2695 28.7161 20.5595C27.4161 21.1895 26.0961 21.1995 24.7661 20.6495C24.3761 20.4895 24.0361 20.2395 23.7561 19.9095C23.1661 19.1995 23.1861 18.3195 23.8161 17.6495C24.3061 17.1195 24.9461 16.8495 25.6361 16.6995C26.6861 16.4795 27.7061 16.5695 28.6661 17.0595C29.2961 17.3795 29.9061 17.3795 30.5461 17.0695C31.6561 16.5195 32.8161 16.4695 33.9861 16.8095C34.5161 16.9595 34.9961 17.2195 35.3761 17.6295C36.0561 18.3395 36.0561 19.2895 35.3861 19.9995C35.0061 20.3995 34.5461 20.6795 34.0161 20.8195C33.5461 20.9395 33.2361 21.0795 32.5361 21.1095C32.0561 21.0995 30.8361 20.8995 30.5261 20.5695ZM26.5861 19.5695C26.9661 19.5695 27.3261 19.5095 27.6561 19.3095C28.1161 19.0295 28.1161 18.5995 27.6561 18.3295C27.3861 18.1695 27.0961 18.0995 26.7861 18.0795C26.3361 18.0495 25.9161 18.1295 25.5461 18.3995C25.2261 18.6395 25.2161 18.9595 25.5161 19.2095C25.5861 19.2695 25.6561 19.3295 25.7461 19.3495C26.0961 19.5495 26.5861 19.5895 26.5861 19.5695ZM32.4961 19.6095C32.8461 19.5695 33.1661 19.5295 33.4661 19.3695C33.6961 19.2495 33.9261 19.1095 33.9261 18.8195C33.9261 18.5195 33.7061 18.3695 33.4661 18.2595C32.9961 18.0395 32.5061 17.9995 32.0161 18.1395C31.8061 18.1995 31.6061 18.3095 31.4361 18.4395C31.1661 18.6495 31.1661 18.9495 31.4261 19.1795C31.4961 19.2495 31.5861 19.3195 31.6761 19.3495C31.8561 19.4595 32.0161 19.5695 32.4961 19.6095Z" fill="black"/>
</g>
<defs>
<clipPath id="clip0_1029_352">
<rect width="40.5" height="40.5" fill="white" transform="translate(0.285156 0.759521)"/>
</clipPath>
</defs>
</svg>
