<svg width="41" height="42" viewBox="0 0 41 42" fill="none" xmlns="http://www.w3.org/2000/svg">
<g clip-path="url(#clip0_1029_510)">
<path d="M20.5352 41.0095C31.5809 41.0095 40.5352 32.0552 40.5352 21.0095C40.5352 9.96383 31.5809 1.00952 20.5352 1.00952C9.48946 1.00952 0.535156 9.96383 0.535156 21.0095C0.535156 32.0552 9.48946 41.0095 20.5352 41.0095Z" fill="white" stroke="black" stroke-width="0.5" stroke-miterlimit="10"/>
<path d="M0.535156 21.0095C0.535156 32.0595 9.48516 41.0095 20.5352 41.0095V1.00952C9.48516 1.00952 0.535156 9.95952 0.535156 21.0095Z" fill="black"/>
<path d="M7.98578 31.7196L10.6058 18.5996C10.6258 18.4796 10.5658 18.3596 10.4458 18.3096C8.79578 17.7296 7.67578 16.1696 7.67578 14.4196C7.67578 12.1396 9.52578 10.2896 11.8058 10.2896C14.0858 10.2896 15.9358 12.1396 15.9358 14.4196C15.9358 16.1696 14.8258 17.7296 13.1658 18.3096C13.0458 18.3496 12.9758 18.4696 13.0058 18.5996L15.6258 31.7196H7.98578Z" fill="black"/>
<path d="M11.8155 10.5496C13.9555 10.5496 15.6955 12.2896 15.6955 14.4296C15.6955 16.0696 14.6555 17.5396 13.0955 18.0896C12.8555 18.1696 12.7255 18.4196 12.7655 18.6596L15.3255 31.4796H8.29555L10.8555 18.6596C10.9055 18.4196 10.7655 18.1696 10.5255 18.0896C8.97555 17.5496 7.92555 16.0796 7.92555 14.4296C7.93555 12.2896 9.67555 10.5496 11.8155 10.5496ZM11.8155 10.0496C9.39555 10.0496 7.43555 12.0096 7.43555 14.4296C7.43555 16.3396 8.66555 17.9596 10.3655 18.5596L7.68555 31.9696H15.9455L13.2555 18.5596C14.9655 17.9596 16.1855 16.3396 16.1855 14.4296C16.1855 12.0096 14.2255 10.0496 11.8155 10.0496Z" fill="white"/>
<path d="M28.8455 9.90959C30.3255 10.9096 34.0555 14.5596 33.9955 19.1096C33.9355 23.6596 32.4555 24.9296 32.6455 25.1296C32.6655 25.1496 32.6855 25.1596 32.7255 25.1596C33.0955 25.1596 34.4255 24.1296 34.6755 21.5096C35.9355 22.9196 38.6055 29.2496 33.1655 32.1096C34.0255 30.1396 33.4455 28.8796 32.7655 28.0496C32.9155 28.7896 32.5455 30.5496 31.0155 31.5396C31.5955 30.2796 31.2955 28.6696 30.4055 27.2196C29.6855 26.0496 29.2355 23.7496 30.3455 22.4896C27.8855 23.8096 24.9955 28.1996 27.1155 32.1096C25.3355 31.1896 23.1555 29.2196 23.1255 25.8696C23.0955 22.5196 25.6455 20.7996 27.4255 19.0796C29.2055 17.3596 30.1255 16.0096 30.1255 14.1596C30.2455 12.6796 29.2455 10.4796 28.8455 9.90959ZM28.8455 9.07959C28.6255 9.07959 28.4155 9.16959 28.2455 9.32959C27.9655 9.61959 27.9255 10.0596 28.1555 10.3896C28.4855 10.8596 29.3855 12.8596 29.2855 14.0996C29.2855 14.1196 29.2855 14.1396 29.2855 14.1696C29.2855 15.6096 28.6455 16.7396 26.8355 18.4896C26.5755 18.7396 26.3055 18.9896 26.0155 19.2496C24.3455 20.7596 22.2555 22.6496 22.2855 25.8796C22.3255 30.1196 25.4055 32.1696 26.7255 32.8496C26.8455 32.9096 26.9755 32.9396 27.1055 32.9396C27.3255 32.9396 27.5455 32.8496 27.7055 32.6896C27.9655 32.4296 28.0155 32.0296 27.8455 31.7096C26.9755 30.1096 27.1655 28.5296 27.4755 27.4896C27.7755 26.4996 28.2755 25.6096 28.8555 24.8896C28.9255 25.9596 29.2755 26.9896 29.6955 27.6696C30.4855 28.9396 30.6955 30.2596 30.2555 31.1996C30.0955 31.5396 30.1855 31.9396 30.4655 32.1796C30.6255 32.3196 30.8155 32.3896 31.0155 32.3896C31.1755 32.3896 31.3255 32.3496 31.4655 32.2596C31.9355 31.9596 32.3155 31.5996 32.6155 31.2096C32.5655 31.3896 32.4855 31.5896 32.4055 31.7896C32.2655 32.1096 32.3455 32.4896 32.6055 32.7396C32.7655 32.8896 32.9655 32.9596 33.1755 32.9596C33.3055 32.9596 33.4455 32.9296 33.5655 32.8596C35.5555 31.8096 36.8055 30.1796 37.1755 28.1496C37.7455 24.9896 36.1355 21.8996 35.3055 20.9696C35.1655 20.8096 34.9655 20.7096 34.7555 20.6896C34.7955 20.2196 34.8255 19.6996 34.8355 19.1396C34.9055 14.1396 30.7655 10.2196 29.3155 9.23959C29.1655 9.12959 29.0055 9.07959 28.8455 9.07959Z" fill="black"/>
<path d="M33.1654 33.0296C32.9254 33.0296 32.7054 32.9396 32.5354 32.7796C32.2454 32.5096 32.1654 32.0896 32.3154 31.7296C32.3354 31.6896 32.3554 31.6496 32.3654 31.5996C32.1054 31.8696 31.8154 32.1096 31.5054 32.3096C31.1654 32.5196 30.7054 32.4896 30.3954 32.2296C30.0854 31.9596 29.9954 31.5096 30.1654 31.1396C30.5854 30.2296 30.3754 28.9396 29.6054 27.6996C29.1654 26.9996 28.8654 26.0396 28.7754 25.1096C28.2254 25.8496 27.8054 26.6696 27.5554 27.4996C27.2454 28.5296 27.0654 30.0796 27.9254 31.6596C28.1254 32.0196 28.0554 32.4596 27.7754 32.7496C27.5054 33.0296 27.0354 33.0996 26.6954 32.9196C25.3554 32.2296 22.2454 30.1596 22.2054 25.8696C22.1754 22.6096 24.2754 20.6996 25.9654 19.1696L25.9954 19.1396C26.2754 18.8896 26.5354 18.6496 26.7854 18.4096C28.5754 16.6796 29.2054 15.5696 29.2054 14.1596C29.2054 14.1396 29.2054 14.1096 29.2054 14.0896C29.3054 12.8796 28.4154 10.9096 28.0954 10.4396C27.8354 10.0696 27.8854 9.57957 28.1954 9.25957C28.4954 8.94957 29.0054 8.89957 29.3754 9.13957C30.8354 10.1196 35.0054 14.0696 34.9354 19.1096C34.9254 19.6196 34.9054 20.1196 34.8654 20.5896C35.0654 20.6296 35.2454 20.7296 35.3854 20.8796C36.2254 21.8196 37.8554 24.9496 37.2754 28.1396C36.9054 30.1996 35.6354 31.8596 33.6154 32.9196C33.4654 32.9896 33.3154 33.0296 33.1654 33.0296ZM32.8354 30.7596L32.7054 31.2096C32.6454 31.3996 32.5754 31.5996 32.4854 31.7996C32.3554 32.0896 32.4254 32.4296 32.6554 32.6396C32.8854 32.8496 33.2354 32.8996 33.5054 32.7496C35.4754 31.7196 36.7054 30.1096 37.0654 28.0996C37.6354 24.9696 36.0354 21.9096 35.2154 20.9896C35.0854 20.8496 34.9154 20.7596 34.7254 20.7396L34.6554 20.7596L34.6654 20.6696C34.7154 20.1796 34.7354 19.6596 34.7454 19.1196C34.8154 14.1496 30.7054 10.2696 29.2654 9.29957C28.9754 9.09957 28.5654 9.13957 28.3154 9.39957C28.0654 9.65957 28.0354 10.0496 28.2354 10.3496C28.5654 10.8296 29.4854 12.8596 29.3854 14.1096C29.3854 14.1296 29.3854 14.1496 29.3854 14.1696C29.3854 15.6396 28.7354 16.7796 26.9054 18.5496C26.6554 18.7896 26.3954 19.0296 26.1154 19.2896L26.0854 19.3096C24.4154 20.8196 22.3454 22.6996 22.3754 25.8796C22.4154 30.0696 25.4654 32.0896 26.7754 32.7696C27.0554 32.9196 27.4254 32.8596 27.6454 32.6296C27.8754 32.3996 27.9254 32.0396 27.7654 31.7496C26.8754 30.1196 27.0654 28.5096 27.3854 27.4596C27.6654 26.5396 28.1454 25.6296 28.7754 24.8296L28.9254 24.6496L28.9354 24.8796C28.9954 25.8396 29.3154 26.8896 29.7654 27.6196C30.5654 28.9196 30.7854 30.2696 30.3354 31.2296C30.1954 31.5296 30.2754 31.8896 30.5254 32.0996C30.7654 32.3096 31.1454 32.3396 31.4154 32.1696C31.8454 31.8896 32.2254 31.5496 32.5454 31.1396L32.8354 30.7596ZM27.3354 32.3196L27.0754 32.1896C25.8754 31.5696 23.0654 29.7096 23.0354 25.8696C23.0054 22.9796 24.8754 21.2896 26.5254 19.7896C26.8154 19.5196 27.0954 19.2696 27.3654 19.0196C29.0154 17.4296 30.0454 16.0596 30.0454 14.1696C30.1554 12.7496 29.2154 10.5796 28.7854 9.96957L28.5054 9.56957L28.9054 9.83957C30.2754 10.7596 34.1554 14.4396 34.0954 19.1096C34.0454 22.4796 33.2254 24.0696 32.8754 24.7496C32.8054 24.8796 32.7454 25.0096 32.7254 25.0696C33.0354 25.0396 34.3354 24.0996 34.5854 21.4996L34.6054 21.2896L34.7454 21.4396C35.5754 22.3796 36.9354 25.2596 36.4354 27.9896C36.1054 29.8196 35.0154 31.2296 33.2054 32.1796L32.9754 32.2996L33.0754 32.0596C33.6954 30.6396 33.6354 29.4296 32.8754 28.3496C32.8854 29.2096 32.4354 30.7196 31.0454 31.5996L30.7854 31.7696L30.9154 31.4896C31.4554 30.3296 31.2254 28.7396 30.3054 27.2596C29.6254 26.1596 29.2054 24.1096 29.9954 22.7796C28.7554 23.5896 27.3554 25.1996 26.7454 27.2596C26.2454 28.9496 26.3954 30.6096 27.1754 32.0496L27.3354 32.3196ZM32.6054 27.7096L32.8354 27.9996C33.7654 29.1396 33.9254 30.4196 33.3454 31.9096C34.9654 30.9896 35.9454 29.6696 36.2554 27.9696C36.7154 25.4396 35.5554 22.7796 34.7354 21.7296C34.4354 24.1696 33.1654 25.2496 32.7154 25.2496C32.6454 25.2496 32.5954 25.2196 32.5754 25.1996C32.4854 25.0996 32.5454 24.9696 32.7054 24.6696C33.0554 23.9996 33.8654 22.4396 33.9054 19.1096C33.9654 14.8696 30.7054 11.4596 29.1454 10.2496C29.6154 11.1196 30.3154 12.8796 30.2154 14.1696C30.2154 16.1196 29.1754 17.5196 27.4854 19.1396C27.2154 19.3996 26.9354 19.6496 26.6454 19.9196C25.0254 21.3896 23.1854 23.0596 23.2154 25.8696C23.2454 29.3496 25.6354 31.1696 26.9054 31.8896C26.2154 30.4596 26.1054 28.8496 26.5954 27.2196C27.2854 24.8996 28.9554 23.1396 30.3054 22.4096L30.7454 22.1696L30.4154 22.5496C29.3454 23.7696 29.7654 26.0196 30.4854 27.1696C31.3654 28.5896 31.6254 30.0996 31.2154 31.2896C32.5154 30.2996 32.8254 28.7296 32.6854 28.0696L32.6054 27.7096Z" fill="white"/>
<path d="M28.8258 31.6196C28.3458 31.5696 27.9258 31.1796 27.7158 30.6496C27.5358 30.1796 27.3758 29.1996 28.4158 27.9796C28.5358 27.8396 28.7358 27.7896 28.9058 27.8696C29.0758 27.9496 29.1758 28.1196 29.1458 28.3096C29.0558 28.9596 29.2858 29.2996 29.5358 29.6696C29.8558 30.1396 29.9158 30.6996 29.6958 31.1096C29.5158 31.4296 29.2058 31.6196 28.8258 31.6196ZM28.4758 29.5096C28.3958 29.7996 28.3958 30.0796 28.4858 30.3196C28.5958 30.6196 28.8058 30.7696 28.8758 30.7796C28.9258 30.7796 28.9458 30.7396 28.9558 30.7196C29.0158 30.6096 28.9958 30.3696 28.8358 30.1396C28.7158 29.9596 28.5858 29.7596 28.4758 29.5096Z" fill="black"/>
<path d="M28.8251 31.7096H28.8151C28.3151 31.6496 27.8551 31.2496 27.6351 30.6796C27.4451 30.1896 27.2751 29.1796 28.3451 27.9196C28.4951 27.7496 28.7351 27.6896 28.9351 27.7896C29.1351 27.8796 29.2651 28.0996 29.2251 28.3196C29.1351 28.9296 29.3551 29.2496 29.5951 29.6096C29.9351 30.1096 29.9951 30.7096 29.7651 31.1496C29.5851 31.5096 29.2351 31.7096 28.8251 31.7096ZM28.7251 27.9296C28.6351 27.9296 28.5351 27.9696 28.4751 28.0496C27.4651 29.2296 27.6151 30.1696 27.7951 30.6196C27.9951 31.1196 28.3951 31.4796 28.8251 31.5296C29.1751 31.5296 29.4551 31.3596 29.6051 31.0696C29.8051 30.6896 29.7451 30.1596 29.4451 29.7196C29.2051 29.3596 28.9451 28.9796 29.0451 28.2996C29.0651 28.1596 28.9851 28.0196 28.8551 27.9596C28.8151 27.9396 28.7751 27.9296 28.7251 27.9296ZM28.8751 30.8796C28.7551 30.8596 28.5151 30.6896 28.3951 30.3596C28.2951 30.0996 28.2951 29.7996 28.3851 29.4896L28.4551 29.2496L28.5551 29.4796C28.6551 29.7196 28.7851 29.9096 28.9051 30.0896C29.0851 30.3596 29.1051 30.6296 29.0351 30.7696C29.0151 30.7896 28.9751 30.8696 28.8751 30.8796ZM28.5051 29.7896C28.4851 29.9696 28.5051 30.1396 28.5551 30.2996C28.6451 30.5396 28.7951 30.6596 28.8551 30.6996C28.8951 30.5996 28.8851 30.3996 28.7451 30.1996C28.6751 30.0596 28.5951 29.9296 28.5051 29.7896Z" fill="white"/>
</g>
<defs>
<clipPath id="clip0_1029_510">
<rect width="40.5" height="40.5" fill="white" transform="translate(0.285156 0.759521)"/>
</clipPath>
</defs>
</svg>
