<svg width="41" height="42" viewBox="0 0 41 42" fill="none" xmlns="http://www.w3.org/2000/svg">
<g clip-path="url(#clip0_1029_527)">
<path d="M20.5352 41.0095C31.5809 41.0095 40.5352 32.0552 40.5352 21.0095C40.5352 9.96383 31.5809 1.00952 20.5352 1.00952C9.48946 1.00952 0.535156 9.96383 0.535156 21.0095C0.535156 32.0552 9.48946 41.0095 20.5352 41.0095Z" fill="white" stroke="black" stroke-width="0.5" stroke-miterlimit="10"/>
<path d="M0.535156 21.0095C0.535156 32.0595 9.48516 41.0095 20.5352 41.0095V1.00952C9.48516 1.00952 0.535156 9.95952 0.535156 21.0095Z" fill="black"/>
<path d="M7.98578 31.7196L10.6058 18.5996C10.6258 18.4796 10.5658 18.3596 10.4458 18.3096C8.79578 17.7296 7.67578 16.1696 7.67578 14.4196C7.67578 12.1396 9.52578 10.2896 11.8058 10.2896C14.0858 10.2896 15.9358 12.1396 15.9358 14.4196C15.9358 16.1696 14.8258 17.7296 13.1658 18.3096C13.0458 18.3496 12.9758 18.4696 13.0058 18.5996L15.6258 31.7196H7.98578Z" fill="black"/>
<path d="M11.8155 10.5496C13.9555 10.5496 15.6955 12.2896 15.6955 14.4296C15.6955 16.0696 14.6555 17.5396 13.0955 18.0896C12.8555 18.1696 12.7255 18.4196 12.7655 18.6596L15.3255 31.4796H8.29555L10.8555 18.6596C10.9055 18.4196 10.7655 18.1696 10.5255 18.0896C8.97555 17.5496 7.92555 16.0796 7.92555 14.4296C7.93555 12.2896 9.67555 10.5496 11.8155 10.5496ZM11.8155 10.0496C9.39555 10.0496 7.43555 12.0096 7.43555 14.4296C7.43555 16.3396 8.66555 17.9596 10.3655 18.5596L7.68555 31.9696H15.9455L13.2555 18.5596C14.9655 17.9596 16.1855 16.3396 16.1855 14.4296C16.1855 12.0096 14.2255 10.0496 11.8155 10.0496Z" fill="white"/>
<path d="M27.1644 34.9094C27.0644 34.8294 27.0044 34.7894 26.9344 34.7394C26.4244 34.3694 26.1244 33.5494 26.3144 32.7594C26.3544 32.6094 26.2744 32.5694 26.2144 32.5094C26.0644 32.3794 25.9944 32.1894 26.0244 31.9594C26.0544 31.7094 26.1644 31.5294 26.3544 31.4894C26.4544 31.4694 26.5744 31.4994 26.6544 31.5694C27.2344 32.0294 27.8444 32.1994 28.5044 32.0994C28.9344 32.0294 29.3344 31.8094 29.7044 31.5094C29.9644 31.2994 30.2444 31.4594 30.3244 31.8394C30.3744 32.0694 30.2944 32.3194 30.1044 32.4894C29.4644 33.0494 28.7744 33.3194 28.0144 33.2594C27.7144 33.2394 27.4144 33.1594 27.1044 33.1094C27.0444 33.3294 27.0944 33.5494 27.2644 33.6994C27.4744 33.8794 27.7044 33.9494 27.9444 33.8694C28.2044 33.7894 28.4544 33.6794 28.7044 33.5594C28.9344 33.4494 29.1644 33.5394 29.2544 33.8094C29.3644 34.1294 29.2844 34.4394 29.0444 34.5794C28.5044 34.8794 27.9544 35.1394 27.3544 34.9494C27.3344 34.9394 27.3044 34.9494 27.2744 34.9494" fill="black"/>
<path d="M27.7745 35.2094C27.6145 35.2094 27.4545 35.1894 27.2945 35.1294L27.2545 34.7794L27.0445 35.0594L26.8145 34.8894C26.2145 34.4594 25.9145 33.5494 26.1145 32.7094L26.0745 32.6494C25.8745 32.4694 25.7945 32.2194 25.8245 31.9294C25.8645 31.5794 26.0445 31.3394 26.3045 31.2894C26.4545 31.2594 26.6345 31.3094 26.7645 31.4094C27.2945 31.8294 27.8545 31.9994 28.4745 31.8994C28.8245 31.8494 29.1945 31.6694 29.5845 31.3494C29.7445 31.2194 29.9345 31.1794 30.1045 31.2394C30.3045 31.3094 30.4545 31.5094 30.5145 31.7894C30.5745 32.0894 30.4745 32.4094 30.2345 32.6194C29.8545 32.9594 29.4545 33.1894 29.0345 33.3194C29.0645 33.3294 29.0845 33.3394 29.1145 33.3494C29.2245 33.3994 29.3645 33.4994 29.4445 33.7394C29.5845 34.1494 29.4645 34.5494 29.1445 34.7394C28.7145 34.9794 28.2645 35.2094 27.7745 35.2094ZM27.3345 34.7494C27.3545 34.7494 27.3845 34.7494 27.4145 34.7594C27.9445 34.9294 28.4445 34.6894 28.9545 34.3994C29.1145 34.3094 29.1645 34.0994 29.0845 33.8594C29.0645 33.7994 29.0245 33.7294 28.9645 33.6994C28.9045 33.6794 28.8445 33.6994 28.7945 33.7194C28.4945 33.8594 28.2445 33.9594 28.0145 34.0394C27.7145 34.1394 27.4145 34.0694 27.1445 33.8294C26.9245 33.6394 26.8445 33.3394 26.9245 33.0394L26.9745 32.8794L27.1445 32.9094C27.2445 32.9294 27.3345 32.9394 27.4345 32.9594C27.6445 32.9994 27.8345 33.0394 28.0345 33.0494C28.7245 33.1094 29.3845 32.8594 29.9745 32.3294C30.1045 32.2094 30.1745 32.0294 30.1345 31.8694C30.1045 31.6994 30.0245 31.6194 29.9745 31.5994C29.9345 31.5894 29.8845 31.5994 29.8245 31.6394C29.3745 31.9994 28.9545 32.2094 28.5345 32.2694C27.8145 32.3794 27.1345 32.1894 26.5345 31.6994C26.4845 31.6594 26.4245 31.6494 26.3845 31.6594C26.2545 31.6794 26.2245 31.8994 26.2145 31.9594C26.1945 32.1294 26.2445 32.2594 26.3445 32.3494C26.4245 32.4194 26.5645 32.5294 26.5045 32.7794C26.3445 33.4594 26.5845 34.2194 27.0545 34.5594L27.2845 34.7494C27.2945 34.7594 27.3145 34.7494 27.3345 34.7494ZM27.2745 33.3294C27.2845 33.3994 27.3145 33.4794 27.3945 33.5494C27.5645 33.6894 27.7245 33.7294 27.8945 33.6794C28.0745 33.6194 28.2745 33.5394 28.5045 33.4394C28.3445 33.4594 28.1745 33.4594 28.0045 33.4494C27.7845 33.4294 27.5745 33.3894 27.3645 33.3494C27.3345 33.3394 27.3045 33.3394 27.2745 33.3294Z" fill="white"/>
<path d="M25.8656 12.3395C25.3156 12.3495 24.6156 12.3295 23.9256 12.1195C23.5956 12.0195 23.2756 11.8695 22.9756 11.6595C22.3956 11.2295 22.3156 10.4295 22.7756 9.76951C23.1056 9.28951 23.5356 8.99951 23.9656 8.73951C24.7956 8.24951 25.6656 7.93951 26.5456 7.67951C28.0056 7.25951 29.4656 6.99951 30.9556 7.01951C31.6456 7.02951 32.3356 7.01951 33.0056 7.23951C33.3356 7.34951 33.6656 7.48951 33.9556 7.70951C34.5356 8.13951 34.6056 8.94951 34.1456 9.60951C33.8156 10.0895 33.3856 10.3895 32.9456 10.6295C32.0056 11.1495 31.0356 11.4995 30.0456 11.7795C28.7256 12.1295 27.3756 12.3195 25.8656 12.3395ZM31.0056 10.3195C31.0056 10.2995 31.0056 10.2795 30.9956 10.2595C30.9056 10.2295 30.8156 10.1895 30.7156 10.1695C30.6156 10.1495 30.5156 10.1395 30.4156 10.1195C29.5356 9.94951 28.6556 10.0495 27.8056 10.3795C27.5656 10.4795 27.3156 10.3295 27.2556 10.0395C27.1856 9.68951 27.3256 9.36951 27.5956 9.29951C28.0556 9.17951 28.5156 9.02951 28.9756 8.96951C30.0856 8.81951 31.1756 8.94951 32.1756 9.71951C32.2256 9.75951 32.3056 9.77951 32.3456 9.74951C32.7256 9.48951 33.1156 9.23951 33.4756 8.93951C33.6756 8.77951 33.6456 8.64951 33.4356 8.52951C32.9856 8.27951 32.5056 8.20951 32.0256 8.16951C30.7156 8.05951 29.4256 8.16951 28.1256 8.42951C26.9156 8.66951 25.7256 8.99951 24.5856 9.58951C24.2056 9.78951 23.8456 10.0795 23.4856 10.3395C23.4156 10.3895 23.3756 10.5195 23.3256 10.6095C23.3956 10.6695 23.4556 10.7595 23.5256 10.7995C23.7656 10.8995 24.0156 11.0095 24.2556 11.0595C25.3156 11.2695 26.3756 11.2595 27.4256 11.1095C28.3156 10.9795 29.2056 10.7795 30.0856 10.5995C30.4156 10.5395 30.7056 10.4195 31.0056 10.3195Z" fill="black"/>
<path d="M25.6658 12.5295C25.1358 12.5295 24.4958 12.4895 23.8758 12.2995C23.4958 12.1795 23.1558 12.0095 22.8758 11.8095C22.2058 11.3195 22.1058 10.4195 22.6258 9.64949C22.9858 9.12949 23.4358 8.81949 23.8758 8.55949C24.6158 8.12949 25.4258 7.79949 26.5058 7.48949C28.1358 7.01949 29.6158 6.79949 30.9758 6.81949H31.0958C31.7458 6.82949 32.4258 6.83949 33.0958 7.04949C33.5058 7.17949 33.8258 7.33949 34.0958 7.53949C34.7458 8.02949 34.8458 8.95949 34.3258 9.69949C33.9558 10.2395 33.4758 10.5495 33.0658 10.7795C32.2058 11.2595 31.2758 11.6295 30.1258 11.9395C28.7458 12.3195 27.3958 12.4995 25.8758 12.5195C25.8058 12.5295 25.7358 12.5295 25.6658 12.5295ZM30.8158 7.19949C29.5258 7.19949 28.1458 7.41949 26.6058 7.85949C25.5558 8.15949 24.7758 8.47949 24.0658 8.89949C23.6658 9.12949 23.2458 9.40949 22.9358 9.86949C22.5358 10.4495 22.5958 11.1395 23.0958 11.4995C23.3458 11.6795 23.6458 11.8295 23.9858 11.9395C24.6358 12.1395 25.3058 12.1595 25.8658 12.1495C27.3458 12.1395 28.6658 11.9595 30.0158 11.5895C31.1358 11.2795 32.0458 10.9195 32.8758 10.4595C33.2558 10.2495 33.6758 9.96949 34.0058 9.49949C34.4058 8.91949 34.3458 8.22949 33.8558 7.85949C33.6158 7.67949 33.3358 7.53949 32.9658 7.41949C32.3558 7.21949 31.7358 7.20949 31.0858 7.20949H30.9658C30.9158 7.19949 30.8658 7.19949 30.8158 7.19949ZM25.9658 11.4195C25.3758 11.4195 24.7958 11.3695 24.2358 11.2595C24.0058 11.2095 23.7758 11.1195 23.5658 11.0295L23.4658 10.9895C23.3758 10.9495 23.3158 10.8795 23.2558 10.8195C23.2358 10.7995 23.2258 10.7795 23.2058 10.7695L23.0958 10.6695L23.1758 10.5395C23.1858 10.5195 23.2058 10.4895 23.2158 10.4595C23.2558 10.3695 23.3058 10.2695 23.3858 10.2095L23.6058 10.0495C23.8958 9.82949 24.1958 9.60949 24.5158 9.43949C25.7958 8.76949 27.1058 8.45949 28.1058 8.25949C29.5458 7.97949 30.8358 7.88949 32.0558 7.99949C32.5058 8.03949 33.0358 8.10949 33.5358 8.37949C33.7058 8.46949 33.7958 8.58949 33.8058 8.71949C33.8158 8.84949 33.7458 8.97949 33.6058 9.09949C33.2858 9.35949 32.9358 9.58949 32.6058 9.81949L32.4558 9.91949C32.3258 10.0095 32.1558 9.95949 32.0558 9.87949C31.2058 9.21949 30.2358 8.99949 29.0058 9.16949C28.6758 9.21949 28.3358 9.30949 28.0058 9.39949C27.8858 9.42949 27.7658 9.46949 27.6458 9.49949C27.4758 9.53949 27.3858 9.76949 27.4458 10.0195C27.4658 10.1195 27.5158 10.1895 27.5758 10.2195C27.6258 10.2495 27.6758 10.2495 27.7358 10.2195C28.6358 9.86949 29.5458 9.77949 30.4558 9.94949L30.5658 9.96949C30.6358 9.97949 30.7058 9.98949 30.7658 10.0095C30.8358 10.0295 30.9058 10.0495 30.9758 10.0795L31.1758 10.1495L31.2058 10.4295L31.0658 10.5395C30.9758 10.5695 30.8758 10.5995 30.7858 10.6295C30.5758 10.6995 30.3658 10.7795 30.1458 10.8195L29.7958 10.8895C29.0358 11.0495 28.2558 11.2195 27.4758 11.3295C26.9558 11.3795 26.4558 11.4195 25.9658 11.4195ZM23.5658 10.5795C23.5858 10.5995 23.6058 10.6195 23.6158 10.6195L23.7158 10.6595C23.9258 10.7495 24.1158 10.8295 24.3058 10.8695C25.2758 11.0595 26.3258 11.0795 27.4158 10.9195C28.1858 10.8095 28.9558 10.6395 29.7058 10.4895L30.0658 10.4095C30.1858 10.3795 30.3058 10.3495 30.4258 10.3095H30.3858C29.5558 10.1495 28.7158 10.2395 27.8758 10.5595C27.7158 10.6295 27.5358 10.6195 27.3858 10.5395C27.2258 10.4495 27.1058 10.2895 27.0658 10.0795C26.9658 9.62949 27.1758 9.20949 27.5458 9.10949C27.6658 9.07949 27.7758 9.04949 27.8958 9.00949C28.2358 8.90949 28.5958 8.81949 28.9458 8.76949C30.2858 8.57949 31.3458 8.82949 32.2758 9.55949L32.3858 9.48949C32.7058 9.26949 33.0458 9.04949 33.3558 8.78949C33.3858 8.76949 33.3958 8.74949 33.4058 8.73949C33.3958 8.72949 33.3758 8.71949 33.3358 8.69949C32.8958 8.45949 32.4158 8.39949 32.0058 8.35949C30.8158 8.25949 29.5658 8.33949 28.1658 8.61949C26.7258 8.89949 25.6558 9.25949 24.6858 9.75949C24.3958 9.90949 24.1058 10.1295 23.8358 10.3295L23.6158 10.4895C23.6058 10.5095 23.5858 10.5495 23.5658 10.5795Z" fill="white"/>
<path d="M26.0148 19.8695C25.7748 19.8495 25.3648 19.8395 24.9648 19.7595C24.4548 19.6595 24.1148 19.1895 24.0348 18.4995C24.0148 18.2695 24.0648 18.0095 24.1248 17.7895C24.2748 17.2895 24.5448 16.9295 24.9048 16.7195C25.1248 16.5895 25.3248 16.6995 25.4348 16.9795C25.5348 17.2595 25.4748 17.5295 25.2748 17.7195C25.1448 17.8395 25.0148 17.9695 24.9148 18.1295C24.7848 18.3395 24.8348 18.5395 25.0348 18.6295C25.1648 18.6795 25.3048 18.7395 25.4348 18.7295C26.2948 18.6595 27.1448 18.5895 27.9948 18.4695C28.9148 18.3395 29.8148 18.0495 30.7048 17.6895C31.5848 17.3295 32.4748 16.9895 33.2448 16.2795C33.4648 16.0795 33.6648 15.8495 33.7448 15.4895C33.7848 15.3295 33.7948 15.1395 33.7748 14.9695C33.7648 14.7995 33.6748 14.7195 33.5348 14.8095C32.7348 15.3195 31.8848 15.5795 31.0348 15.8395C29.7448 16.2295 28.4348 16.4095 27.1248 16.4595C26.0348 16.4995 24.9448 16.3995 23.8648 16.1795C23.3548 16.0795 22.8648 15.8395 22.6048 15.1395C22.5048 14.8795 22.4548 14.5695 22.4448 14.2795C22.4248 13.9195 22.6148 13.6595 22.8448 13.6495C23.0848 13.6495 23.2448 13.8795 23.2548 14.2595C23.2648 14.5595 23.3648 14.7795 23.5648 14.8595C23.8348 14.9695 24.1148 15.0895 24.3948 15.1295C25.8348 15.3495 27.2748 15.3795 28.7248 15.1795C29.7148 15.0395 30.6948 14.8095 31.6548 14.4795C32.3448 14.2395 33.0448 13.9895 33.6548 13.4495C33.9648 13.1695 34.2248 12.8295 34.4048 12.3695C34.5248 12.0495 34.7548 11.9495 34.9548 12.0995C35.1648 12.2595 35.2548 12.5995 35.1148 12.8995C34.9348 13.2795 34.7148 13.6295 34.5048 13.9695C34.4248 14.0895 34.3948 14.1595 34.4648 14.3195C34.7448 15.0195 34.6548 15.9095 34.2348 16.5895C33.8848 17.1595 33.4248 17.4995 32.9448 17.7995C32.1548 18.2895 31.3348 18.6795 30.4848 18.9395C29.6048 19.2095 28.7248 19.4495 27.8348 19.6595C27.2848 19.7595 26.7348 19.7795 26.0148 19.8695Z" fill="black"/>
<path d="M26.015 20.0595H25.995C25.935 20.0495 25.855 20.0495 25.775 20.0395C25.535 20.0195 25.235 20.0095 24.925 19.9495C24.335 19.8295 23.935 19.2995 23.845 18.5195C23.825 18.2995 23.855 18.0395 23.945 17.7295C24.105 17.1895 24.395 16.7895 24.815 16.5495C24.835 16.5395 24.845 16.5295 24.865 16.5195C24.525 16.4695 24.175 16.4195 23.835 16.3495C23.385 16.2595 22.745 16.0395 22.435 15.1895C22.315 14.8695 22.275 14.5195 22.255 14.2695C22.235 14.0195 22.315 13.7795 22.455 13.6195C22.565 13.5095 22.695 13.4395 22.835 13.4395H22.845C23.135 13.4395 23.425 13.6795 23.435 14.2295C23.435 14.3595 23.465 14.5995 23.625 14.6595C23.885 14.7695 24.155 14.8795 24.415 14.9195C25.885 15.1495 27.325 15.1595 28.685 14.9695C29.675 14.8295 30.655 14.5995 31.575 14.2795C32.295 14.0295 32.935 13.7895 33.505 13.2795C33.815 12.9995 34.045 12.6695 34.205 12.2695C34.295 12.0395 34.445 11.8795 34.625 11.8195C34.765 11.7795 34.925 11.8095 35.055 11.9095C35.355 12.1295 35.445 12.5795 35.275 12.9495C35.085 13.3495 34.855 13.7195 34.655 14.0395C34.595 14.1395 34.595 14.1395 34.625 14.2195C34.925 14.9695 34.835 15.9195 34.385 16.6595C34.015 17.2695 33.515 17.6295 33.035 17.9295C32.235 18.4295 31.385 18.8195 30.535 19.0895C29.645 19.3695 28.755 19.6095 27.865 19.8095C27.495 19.8895 27.125 19.9295 26.695 19.9695C26.485 19.9895 26.275 20.0095 26.035 20.0395L26.015 20.0595ZM25.085 16.8495C25.065 16.8495 25.035 16.8595 24.995 16.8795C24.665 17.0695 24.435 17.3895 24.305 17.8395C24.235 18.0895 24.205 18.3095 24.225 18.4795C24.295 19.0895 24.575 19.4895 24.995 19.5695C25.275 19.6295 25.565 19.6395 25.795 19.6595C25.875 19.6695 25.945 19.6695 26.015 19.6695C26.245 19.6395 26.465 19.6195 26.665 19.5995C27.075 19.5595 27.435 19.5195 27.785 19.4395C28.655 19.2395 29.545 18.9995 30.425 18.7295C31.255 18.4695 32.065 18.0895 32.845 17.6095C33.285 17.3395 33.735 17.0095 34.065 16.4595C34.455 15.8195 34.535 14.9995 34.285 14.3595C34.185 14.1195 34.255 13.9795 34.345 13.8295C34.535 13.5195 34.765 13.1595 34.945 12.7795C35.045 12.5695 34.975 12.3195 34.845 12.2195C34.795 12.1795 34.765 12.1895 34.755 12.1895C34.705 12.1995 34.635 12.2695 34.585 12.3995C34.405 12.8595 34.145 13.2395 33.785 13.5595C33.165 14.1095 32.485 14.3695 31.725 14.6295C30.775 14.9595 29.775 15.1895 28.755 15.3395C27.355 15.5395 25.875 15.5195 24.375 15.2895C24.065 15.2395 23.775 15.1195 23.495 15.0095C23.235 14.8995 23.075 14.6195 23.065 14.2295C23.055 14.0295 22.995 13.8095 22.855 13.8095C22.805 13.7995 22.765 13.8395 22.745 13.8695C22.675 13.9495 22.635 14.0895 22.645 14.2295C22.665 14.5395 22.715 14.8195 22.795 15.0395C22.985 15.5495 23.325 15.8295 23.915 15.9495C24.995 16.1695 26.075 16.2595 27.125 16.2195C28.525 16.1695 29.795 15.9695 30.985 15.6095C31.805 15.3595 32.655 15.1095 33.435 14.5995C33.585 14.4995 33.715 14.5295 33.765 14.5595C33.835 14.5895 33.945 14.6795 33.965 14.8995C33.985 15.0995 33.965 15.2995 33.925 15.4795C33.825 15.8995 33.585 16.1595 33.365 16.3695C32.615 17.0595 31.755 17.4095 30.935 17.7495L30.765 17.8195C29.755 18.2395 28.855 18.4995 28.005 18.6195C27.255 18.7195 26.495 18.7895 25.765 18.8495L25.435 18.8795C25.265 18.8895 25.105 18.8295 24.945 18.7695C24.805 18.7095 24.705 18.5995 24.665 18.4695C24.615 18.3195 24.645 18.1495 24.745 17.9995C24.855 17.8195 24.995 17.6895 25.135 17.5495C25.285 17.4095 25.325 17.2195 25.245 17.0195C25.205 16.9195 25.155 16.8495 25.105 16.8395C25.105 16.8595 25.095 16.8495 25.085 16.8495ZM25.395 16.5795C25.475 16.6395 25.555 16.7495 25.615 16.9095C25.745 17.2595 25.665 17.6095 25.405 17.8595C25.285 17.9795 25.165 18.0895 25.075 18.2295C25.035 18.2895 25.025 18.3395 25.035 18.3795C25.045 18.4095 25.065 18.4295 25.105 18.4395C25.215 18.4895 25.325 18.5295 25.405 18.5195L25.735 18.4895C26.465 18.4295 27.215 18.3595 27.955 18.2595C28.765 18.1495 29.645 17.8895 30.615 17.4895L30.785 17.4195C31.615 17.0795 32.405 16.7495 33.105 16.1095C33.295 15.9395 33.475 15.7395 33.545 15.4195C33.575 15.2895 33.585 15.1295 33.575 14.9795C32.755 15.4895 31.905 15.7495 31.085 15.9895C29.855 16.3595 28.565 16.5595 27.125 16.6195C26.565 16.6495 25.975 16.6395 25.395 16.5795Z" fill="white"/>
<path d="M27.505 26.0296C27.955 25.9596 28.485 25.8696 29.005 25.7796C29.185 25.7496 29.335 25.7996 29.435 26.0196C29.585 26.3396 29.485 26.7796 29.205 26.8496C28.765 26.9696 28.315 27.0696 27.865 27.0996C27.395 27.1296 26.935 27.0696 26.465 27.0296C26.325 27.0196 26.255 27.0496 26.215 27.2596C26.135 27.7896 26.265 28.0596 26.665 28.1496C27.565 28.3496 28.445 28.2096 29.305 27.8396C29.535 27.7396 29.765 27.8696 29.835 28.1396C29.915 28.4496 29.815 28.7896 29.575 28.8996C28.705 29.2896 27.825 29.4696 26.905 29.3296C26.595 29.2796 26.285 29.2396 25.995 29.0196C25.475 28.6296 25.285 27.8796 25.395 27.1696C25.445 26.8196 25.445 26.8396 25.215 26.7296C24.785 26.5396 24.385 26.2896 24.155 25.6896C23.875 24.9396 24.105 23.9696 24.645 23.5896C24.845 23.4496 25.065 23.5196 25.185 23.7696C25.305 24.0196 25.255 24.3496 25.075 24.5396C24.755 24.8796 24.755 25.2596 25.135 25.4596C25.485 25.6496 25.865 25.7696 26.235 25.8596C26.625 25.9596 27.025 25.9696 27.505 26.0296Z" fill="black"/>
<path d="M27.525 29.5695C27.315 29.5695 27.095 29.5495 26.885 29.5195C26.555 29.4695 26.215 29.4195 25.885 29.1695C25.345 28.7595 25.085 27.9595 25.205 27.1295C25.215 27.0595 25.225 26.9795 25.235 26.9395C25.215 26.9295 25.185 26.9195 25.165 26.9095C24.675 26.6895 24.225 26.4095 23.975 25.7495C23.665 24.9195 23.925 23.8495 24.535 23.4295C24.675 23.3295 24.825 23.2995 24.975 23.3395C25.135 23.3795 25.265 23.4995 25.355 23.6795C25.505 23.9995 25.445 24.4195 25.215 24.6595C25.085 24.7995 25.025 24.9395 25.035 25.0495C25.045 25.1395 25.115 25.2195 25.225 25.2795C25.525 25.4395 25.865 25.5695 26.285 25.6595C26.535 25.7195 26.795 25.7395 27.095 25.7695C27.225 25.7795 27.355 25.7995 27.495 25.8095L27.835 25.7495C28.195 25.6895 28.575 25.6295 28.965 25.5595C29.255 25.5095 29.465 25.6295 29.595 25.8995C29.715 26.1395 29.715 26.4395 29.605 26.6695C29.525 26.8395 29.395 26.9495 29.245 26.9995C28.835 27.1095 28.355 27.2295 27.865 27.2595C27.485 27.2795 27.105 27.2495 26.735 27.2095L26.435 27.1795C26.415 27.1595 26.405 27.1795 26.395 27.2495C26.305 27.7895 26.485 27.8795 26.695 27.9195C27.505 28.0995 28.335 27.9995 29.215 27.6195C29.375 27.5495 29.535 27.5495 29.675 27.6195C29.835 27.6995 29.955 27.8495 30.005 28.0495C30.115 28.4595 29.955 28.8895 29.645 29.0295C28.915 29.4095 28.215 29.5695 27.525 29.5695ZM24.855 23.7195C24.825 23.7195 24.795 23.7295 24.755 23.7595C24.285 24.0895 24.085 24.9595 24.335 25.6295C24.515 26.1295 24.835 26.3495 25.285 26.5595C25.645 26.7195 25.635 26.8395 25.585 27.1995C25.475 27.8895 25.685 28.5495 26.115 28.8695C26.365 29.0595 26.625 29.0995 26.935 29.1395C27.765 29.2595 28.605 29.1195 29.505 28.7195C29.645 28.6595 29.715 28.4095 29.655 28.1895C29.635 28.0995 29.585 28.0395 29.525 28.0095C29.485 27.9895 29.435 27.9895 29.385 28.0095C28.425 28.4295 27.525 28.5295 26.625 28.3295C25.875 28.1595 25.995 27.4495 26.025 27.2195C26.075 26.9295 26.215 26.8095 26.475 26.8195L26.785 26.8495C27.135 26.8795 27.505 26.9195 27.855 26.8995C28.305 26.8695 28.765 26.7595 29.155 26.6495C29.215 26.6295 29.245 26.5795 29.265 26.5295C29.325 26.3995 29.315 26.2195 29.255 26.0795C29.195 25.9495 29.135 25.9295 29.035 25.9495C28.645 26.0195 28.265 26.0795 27.905 26.1395L27.505 26.1995H27.475C27.325 26.1795 27.185 26.1695 27.055 26.1595C26.755 26.1295 26.475 26.0995 26.195 26.0395C25.745 25.9295 25.365 25.7995 25.045 25.6195C24.825 25.4995 24.695 25.3195 24.665 25.1195C24.625 24.8795 24.725 24.6295 24.945 24.3995C25.065 24.2695 25.095 24.0195 25.015 23.8495C24.985 23.7795 24.935 23.7295 24.885 23.7095C24.875 23.7195 24.865 23.7195 24.855 23.7195Z" fill="white"/>
<path d="M26.3937 14.2395C25.6337 14.1595 24.8837 14.1095 24.1337 13.9895C23.6537 13.9195 23.2537 13.5695 22.9637 13.0295C22.8237 12.7695 22.8537 12.4295 23.0237 12.2395C23.2037 12.0395 23.4537 12.0695 23.5937 12.3495C23.7537 12.6795 23.9937 12.7995 24.2537 12.8595C25.3437 13.0795 26.4437 13.1495 27.5437 12.9995C28.1737 12.9195 28.8037 12.8395 29.4237 12.6595C30.1537 12.4495 30.8737 12.1495 31.5937 11.8695C31.8637 11.7595 32.0837 11.8495 32.1737 12.1495C32.2737 12.4895 32.1637 12.7995 31.8737 12.9195C31.2937 13.1595 30.7137 13.4195 30.1237 13.5995C29.5337 13.7795 28.9237 13.9095 28.3237 14.0095C27.6737 14.1295 27.0337 14.1695 26.3937 14.2395Z" fill="black"/>
<path d="M26.3942 14.4295H26.3742C26.1442 14.4095 25.9242 14.3895 25.7042 14.3595C25.1842 14.3095 24.6342 14.2595 24.1042 14.1795C23.5742 14.0995 23.1242 13.7295 22.7942 13.1195C22.6142 12.7895 22.6542 12.3495 22.8842 12.1095C23.0142 11.9695 23.1842 11.8995 23.3442 11.9295C23.5142 11.9595 23.6642 12.0795 23.7642 12.2695C23.8742 12.4995 24.0442 12.6195 24.2842 12.6695C25.4042 12.8995 26.4942 12.9395 27.5142 12.8095C28.1242 12.7295 28.7642 12.6495 29.3642 12.4795C29.9642 12.3095 30.5642 12.0795 31.1442 11.8495L31.5242 11.6995C31.7642 11.5995 31.9442 11.6495 32.0442 11.6995C32.1442 11.7495 32.2842 11.8595 32.3542 12.1095C32.4842 12.5495 32.3142 12.9595 31.9442 13.1095L31.7942 13.1695C31.2642 13.3895 30.7242 13.6195 30.1742 13.7895C29.6242 13.9595 29.0242 14.0895 28.3542 14.2095C27.9042 14.2795 27.4442 14.3295 27.0042 14.3695C26.8142 14.3895 26.6142 14.4095 26.4242 14.4295H26.3942ZM23.2742 12.3095C23.2442 12.3095 23.1942 12.3295 23.1542 12.3795C23.0342 12.5095 23.0142 12.7595 23.1142 12.9495C23.3042 13.2995 23.6342 13.7395 24.1442 13.8095C24.6642 13.8895 25.2042 13.9395 25.7242 13.9895C25.9442 14.0095 26.1642 14.0295 26.3842 14.0495C26.5742 14.0295 26.7642 14.0095 26.9542 13.9895C27.3942 13.9495 27.8442 13.9095 28.2742 13.8395C28.9342 13.7295 29.5142 13.5995 30.0442 13.4395C30.5742 13.2795 31.1142 13.0495 31.6242 12.8295L31.7942 12.7595C32.0242 12.6595 32.0442 12.4195 31.9842 12.2195C31.9642 12.1595 31.9342 12.0795 31.8742 12.0495C31.8142 12.0195 31.7242 12.0395 31.6642 12.0695L31.2942 12.2195C30.7042 12.4495 30.0942 12.6895 29.4842 12.8595C28.8542 13.0395 28.2042 13.1195 27.5842 13.1995C26.5242 13.3395 25.3942 13.2895 24.2342 13.0495C23.8642 12.9795 23.6142 12.7795 23.4442 12.4395C23.4042 12.3695 23.3642 12.3195 23.3142 12.3095C23.2842 12.3095 23.2842 12.3095 23.2742 12.3095Z" fill="white"/>
<path d="M26.6035 22.6394C26.1435 22.6294 25.7235 22.4794 25.3535 22.1294C25.2135 21.9994 25.1435 21.8194 25.1635 21.5994C25.1835 21.3694 25.2735 21.1794 25.4435 21.1294C25.5335 21.0994 25.6535 21.0994 25.7335 21.1594C26.1935 21.5094 26.6735 21.5394 27.1735 21.3994C27.8635 21.2194 28.5535 21.0994 29.2335 20.8794C30.2935 20.5394 31.3435 20.1394 32.2935 19.3894C32.6935 19.0794 33.0035 18.6594 33.1835 18.0694C33.2635 17.7894 33.4835 17.6794 33.6935 17.7794C33.8835 17.8594 34.0135 18.1594 33.9335 18.4294C33.8135 18.7994 33.6735 19.1694 33.4935 19.4794C33.0835 20.1594 32.5335 20.5694 31.9435 20.8894C30.8035 21.5194 29.6235 21.9794 28.4135 22.2794C27.8135 22.4394 27.2035 22.5294 26.6035 22.6394Z" fill="black"/>
<path d="M26.6244 22.8395H26.6044C26.0744 22.8295 25.6244 22.6495 25.2244 22.2795C25.0344 22.1095 24.9444 21.8595 24.9744 21.5895C25.0044 21.2695 25.1544 21.0295 25.3844 20.9495C25.5044 20.9095 25.7044 20.8895 25.8544 21.0095C26.2244 21.2895 26.6144 21.3595 27.1344 21.2195C27.3944 21.1495 27.6444 21.0895 27.9044 21.0395C28.3244 20.9395 28.7644 20.8495 29.1844 20.7095C30.1344 20.3995 31.2244 20.0095 32.1844 19.2495C32.5844 18.9395 32.8544 18.5395 33.0044 18.0195C33.0644 17.8195 33.1844 17.6695 33.3444 17.5995C33.4844 17.5395 33.6344 17.5395 33.7844 17.6095C34.0744 17.7395 34.2344 18.1595 34.1244 18.4995C33.9744 18.9695 33.8344 19.3095 33.6644 19.5895C33.2144 20.3495 32.5944 20.7695 32.0444 21.0695C30.9344 21.6895 29.7344 22.1595 28.4644 22.4795C28.0444 22.5795 27.6244 22.6595 27.2044 22.7395C27.0144 22.7695 26.8344 22.8095 26.6444 22.8395H26.6244ZM25.5644 21.2995C25.5444 21.2995 25.5244 21.2995 25.5044 21.3095C25.4244 21.3395 25.3644 21.4595 25.3544 21.6195C25.3444 21.7795 25.3844 21.8995 25.4844 21.9895C25.8044 22.2895 26.1744 22.4395 26.5944 22.4495C26.7744 22.4195 26.9544 22.3795 27.1444 22.3495C27.5544 22.2795 27.9644 22.1995 28.3744 22.0995C29.6144 21.7895 30.7844 21.3295 31.8644 20.7295C32.3644 20.4495 32.9344 20.0695 33.3344 19.3895C33.4844 19.1395 33.6244 18.8095 33.7544 18.3795C33.8144 18.1995 33.7144 17.9995 33.6144 17.9595C33.5744 17.9395 33.5344 17.9395 33.4944 17.9495C33.4444 17.9695 33.3944 18.0395 33.3644 18.1295C33.1844 18.7195 32.8744 19.1795 32.4044 19.5495C31.3944 20.3395 30.2644 20.7495 29.2844 21.0695C28.8444 21.2095 28.4044 21.3095 27.9744 21.4095C27.7244 21.4695 27.4644 21.5195 27.2144 21.5895C26.5844 21.7495 26.0644 21.6595 25.6044 21.3095C25.6044 21.3095 25.5844 21.2995 25.5644 21.2995Z" fill="white"/>
<path d="M26.946 25.2495C26.816 25.2495 26.686 25.2595 26.556 25.2495C26.356 25.2395 26.196 25.0195 26.176 24.7495C26.156 24.4895 26.276 24.2395 26.466 24.1695C26.526 24.1395 26.596 24.1295 26.666 24.1195C27.496 24.0495 28.316 23.9795 29.146 23.9095C29.566 23.8795 29.966 23.7495 30.336 23.5095C30.726 23.2595 30.916 22.8195 30.926 22.2295C30.936 21.8895 31.076 21.6595 31.286 21.6295C31.546 21.5995 31.736 21.8495 31.736 22.2195C31.756 23.2095 31.296 24.1795 30.626 24.5595C30.086 24.8595 29.536 25.0095 28.946 25.0395C28.276 25.0695 27.606 25.1595 26.936 25.2195C26.946 25.2495 26.946 25.2495 26.946 25.2495Z" fill="black"/>
<path d="M26.7058 25.4495C26.6558 25.4495 26.5958 25.4495 26.5458 25.4495C26.2458 25.4295 26.0158 25.1495 25.9858 24.7695C25.9558 24.4195 26.1258 24.0995 26.3958 23.9995C26.4758 23.9695 26.5658 23.9495 26.6458 23.9395C27.4758 23.8695 28.3058 23.7995 29.1258 23.7295C29.5258 23.6995 29.8958 23.5695 30.2258 23.3595C30.5458 23.1495 30.7158 22.7795 30.7258 22.2395C30.7358 21.7995 30.9458 21.4895 31.2558 21.4595C31.4058 21.4395 31.5558 21.4895 31.6658 21.5895C31.8258 21.7295 31.9158 21.9595 31.9258 22.2395C31.9458 23.2995 31.4458 24.3395 30.7158 24.7495C30.1658 25.0595 29.5858 25.2195 28.9558 25.2495C28.4958 25.2695 28.0258 25.3195 27.5658 25.3695C27.4158 25.3895 27.2758 25.3995 27.1258 25.4195V25.4395L26.8158 25.4495C26.7858 25.4495 26.7458 25.4495 26.7058 25.4495ZM31.3258 21.8395C31.3158 21.8395 31.3158 21.8395 31.3058 21.8395C31.1958 21.8495 31.1158 22.0195 31.1158 22.2495C31.1058 22.9095 30.8658 23.4095 30.4358 23.6895C30.0558 23.9295 29.6258 24.0795 29.1558 24.1095C28.3258 24.1795 27.5058 24.2495 26.6758 24.3195C26.6258 24.3195 26.5758 24.3395 26.5358 24.3495C26.4458 24.3895 26.3458 24.5495 26.3658 24.7395C26.3758 24.9295 26.4858 25.0495 26.5658 25.0595C26.6458 25.0695 26.7358 25.0595 26.8158 25.0595L26.9258 25.0495C27.1258 25.0295 27.3358 25.0095 27.5358 24.9895C27.9958 24.9395 28.4758 24.8895 28.9458 24.8695C29.5158 24.8395 30.0358 24.6895 30.5358 24.4095C31.1458 24.0695 31.5758 23.1495 31.5558 22.2395C31.5558 22.0695 31.5058 21.9395 31.4258 21.8695C31.3958 21.8495 31.3658 21.8395 31.3258 21.8395Z" fill="white"/>
<path d="M27.8048 31.4795C27.5148 31.4395 27.2248 31.4095 26.9348 31.3595C26.6948 31.3195 26.5648 31.0395 26.6048 30.6995C26.6348 30.4195 26.8348 30.2195 27.0548 30.2595C27.6348 30.3595 28.2148 30.3595 28.7848 30.2095C29.3448 30.0695 29.8648 29.7995 30.3648 29.4295C30.5548 29.2895 30.7448 29.3395 30.8748 29.5395C31.0548 29.8095 31.0048 30.2395 30.7548 30.4095C30.3348 30.6795 29.9148 30.9395 29.4848 31.1395C28.9448 31.3695 28.3848 31.4795 27.8048 31.4795Z" fill="black"/>
<path d="M27.7941 31.6695L27.5141 31.6295C27.3041 31.5995 27.1041 31.5795 26.8941 31.5395C26.5541 31.4795 26.3541 31.1195 26.4041 30.6695C26.4241 30.4595 26.5241 30.2695 26.6741 30.1595C26.7941 30.0695 26.9341 30.0395 27.0741 30.0595C27.6741 30.1595 28.2141 30.1395 28.7341 30.0095C29.2441 29.8795 29.7341 29.6395 30.2541 29.2695C30.4241 29.1495 30.5741 29.1495 30.6641 29.1595C30.8041 29.1895 30.9341 29.2795 31.0341 29.4295C31.2741 29.8095 31.1941 30.3495 30.8541 30.5595C30.4241 30.8395 30.0041 31.0995 29.5541 31.2995C29.0141 31.5395 28.4241 31.6595 27.8041 31.6695H27.7941ZM26.9941 30.4495C26.9641 30.4495 26.9341 30.4595 26.9141 30.4795C26.8541 30.5295 26.8041 30.6195 26.7941 30.7295C26.7641 30.9695 26.8441 31.1495 26.9741 31.1795C27.1741 31.2195 27.3741 31.2395 27.5741 31.2695L27.8241 31.2995C28.3841 31.2895 28.9141 31.1795 29.4041 30.9695C29.8241 30.7795 30.2341 30.5295 30.6541 30.2595C30.8041 30.1595 30.8441 29.8495 30.7141 29.6595C30.6741 29.5995 30.6341 29.5695 30.6041 29.5595C30.5641 29.5495 30.5141 29.5795 30.4841 29.5995C29.9241 29.9995 29.3941 30.2695 28.8341 30.4095C28.2641 30.5495 27.6741 30.5695 27.0241 30.4595C27.0141 30.4495 27.0041 30.4495 26.9941 30.4495Z" fill="white"/>
</g>
<defs>
<clipPath id="clip0_1029_527">
<rect width="40.5" height="40.5" fill="white" transform="translate(0.285156 0.759521)"/>
</clipPath>
</defs>
</svg>
