<svg width="41" height="42" viewBox="0 0 41 42" fill="none" xmlns="http://www.w3.org/2000/svg">
<g clip-path="url(#clip0_1029_369)">
<path d="M20.5352 41.0095C31.5809 41.0095 40.5352 32.0552 40.5352 21.0095C40.5352 9.96383 31.5809 1.00952 20.5352 1.00952C9.48946 1.00952 0.535156 9.96383 0.535156 21.0095C0.535156 32.0552 9.48946 41.0095 20.5352 41.0095Z" fill="white" stroke="black" stroke-width="0.5" stroke-miterlimit="10"/>
<path d="M0.535156 21.0095C0.535156 32.0595 9.48516 41.0095 20.5352 41.0095V1.00952C9.48516 1.00952 0.535156 9.95952 0.535156 21.0095Z" fill="black"/>
<path d="M10.9963 12.2395C11.6562 12.2395 12.1862 12.7695 12.1862 13.4295V22.7795C13.5962 23.2695 14.6062 24.5995 14.6062 26.1795C14.6062 28.1795 12.9862 29.7895 10.9963 29.7895C8.99625 29.7895 7.38625 28.1695 7.38625 26.1795C7.38625 24.5995 8.40625 23.2795 9.80625 22.7795V13.4295C9.80625 12.7695 10.3363 12.2395 10.9963 12.2395ZM10.9963 11.5095C9.93625 11.5095 9.07625 12.3695 9.07625 13.4295V22.2895C7.60625 23.0095 6.65625 24.5095 6.65625 26.1695C6.65625 28.5595 8.60625 30.5095 10.9963 30.5095C13.3863 30.5095 15.3363 28.5595 15.3363 26.1695C15.3363 24.5195 14.3863 23.0195 12.9163 22.2895V13.4295C12.9163 12.3695 12.0563 11.5095 10.9963 11.5095Z" fill="white"/>
<path d="M10.9954 30.6295C8.53539 30.6295 6.52539 28.6295 6.52539 26.1695C6.52539 24.5195 7.47539 22.9695 8.94539 22.2095V13.4195C8.94539 12.2895 9.86539 11.3795 10.9854 11.3795C12.1054 11.3795 13.0254 12.2995 13.0254 13.4195V22.2095C14.4954 22.9695 15.4454 24.5095 15.4454 26.1695C15.4554 28.6295 13.4554 30.6295 10.9954 30.6295ZM10.9954 11.6295C10.0054 11.6295 9.20539 12.4295 9.20539 13.4195V22.3595L9.13539 22.3895C7.70539 23.0995 6.78539 24.5695 6.78539 26.1595C6.78539 28.4795 8.67539 30.3695 11.0054 30.3695C13.3354 30.3695 15.2154 28.4795 15.2154 26.1595C15.2154 24.5795 14.2954 23.0995 12.8654 22.3895L12.7954 22.3595V13.4195C12.7854 12.4395 11.9854 11.6295 10.9954 11.6295ZM10.9954 29.9095C8.93539 29.9095 7.25539 28.2295 7.25539 26.1695C7.25539 24.6195 8.22539 23.2295 9.67539 22.6895V13.4295C9.67539 12.7095 10.2654 12.1195 10.9854 12.1195C11.7054 12.1195 12.2954 12.7095 12.2954 13.4295V22.6895C13.7454 23.2395 14.7154 24.6295 14.7154 26.1695C14.7354 28.2295 13.0554 29.9095 10.9954 29.9095ZM10.9954 12.3595C10.4054 12.3595 9.93539 12.8395 9.93539 13.4195V22.8595L9.85539 22.8895C8.45539 23.3795 7.51539 24.6995 7.51539 26.1695C7.51539 28.0895 9.07539 29.6595 11.0054 29.6595C12.9354 29.6595 14.4954 28.0995 14.4954 26.1695C14.4954 24.6995 13.5554 23.3795 12.1554 22.8895L12.0754 22.8595V13.4195C12.0554 12.8395 11.5854 12.3595 10.9954 12.3595Z" fill="black"/>
<path d="M16.8441 18.1595H15.0141C14.7341 18.1595 14.4941 17.9295 14.4941 17.6395C14.4941 17.3595 14.7241 17.1195 15.0141 17.1195H16.8441C17.1241 17.1195 17.3641 17.3495 17.3641 17.6395C17.3641 17.9295 17.1341 18.1595 16.8441 18.1595Z" fill="white"/>
<path d="M16.845 18.2895H15.015C14.665 18.2895 14.375 17.9995 14.375 17.6495C14.375 17.2995 14.665 17.0095 15.015 17.0095H16.845C17.195 17.0095 17.485 17.2995 17.485 17.6495C17.485 17.9995 17.195 18.2895 16.845 18.2895ZM15.015 17.2595C14.795 17.2595 14.625 17.4395 14.625 17.6495C14.625 17.8595 14.805 18.0395 15.015 18.0395H16.845C17.065 18.0395 17.235 17.8595 17.235 17.6495C17.235 17.4395 17.055 17.2595 16.845 17.2595H15.015Z" fill="black"/>
<path d="M16.8441 15.9694H15.0141C14.7341 15.9694 14.4941 15.7394 14.4941 15.4494C14.4941 15.1694 14.7241 14.9294 15.0141 14.9294H16.8441C17.1241 14.9294 17.3641 15.1594 17.3641 15.4494C17.3641 15.7394 17.1341 15.9694 16.8441 15.9694Z" fill="white"/>
<path d="M16.845 16.0894H15.015C14.665 16.0894 14.375 15.7994 14.375 15.4494C14.375 15.0994 14.665 14.8094 15.015 14.8094H16.845C17.195 14.8094 17.485 15.0994 17.485 15.4494C17.485 15.7994 17.195 16.0894 16.845 16.0894ZM15.015 15.0594C14.795 15.0594 14.625 15.2394 14.625 15.4494C14.625 15.6594 14.805 15.8394 15.015 15.8394H16.845C17.065 15.8394 17.235 15.6594 17.235 15.4494C17.235 15.2394 17.055 15.0594 16.845 15.0594H15.015Z" fill="black"/>
<path d="M16.8441 13.7795H15.0141C14.7341 13.7795 14.4941 13.5495 14.4941 13.2595C14.4941 12.9695 14.7241 12.7395 15.0141 12.7395H16.8441C17.1241 12.7395 17.3641 12.9695 17.3641 13.2595C17.3641 13.5495 17.1341 13.7795 16.8441 13.7795Z" fill="white"/>
<path d="M16.845 13.8995H15.015C14.665 13.8995 14.375 13.6095 14.375 13.2595C14.375 12.9095 14.665 12.6195 15.015 12.6195H16.845C17.195 12.6195 17.485 12.9095 17.485 13.2595C17.485 13.6095 17.195 13.8995 16.845 13.8995ZM15.015 12.8695C14.795 12.8695 14.625 13.0495 14.625 13.2595C14.625 13.4695 14.805 13.6495 15.015 13.6495H16.845C17.065 13.6495 17.235 13.4695 17.235 13.2595C17.235 13.0495 17.055 12.8695 16.845 12.8695H15.015Z" fill="black"/>
<path d="M10.9957 28.8396C12.4593 28.8396 13.6457 27.6531 13.6457 26.1896C13.6457 24.726 12.4593 23.5396 10.9957 23.5396C9.53215 23.5396 8.3457 24.726 8.3457 26.1896C8.3457 27.6531 9.53215 28.8396 10.9957 28.8396Z" fill="white"/>
<path d="M10.9948 28.9695C9.46484 28.9695 8.21484 27.7195 8.21484 26.1895C8.21484 24.6595 9.46484 23.4095 10.9948 23.4095C12.5248 23.4095 13.7748 24.6595 13.7748 26.1895C13.7748 27.7195 12.5248 28.9695 10.9948 28.9695ZM10.9948 23.6695C9.60484 23.6695 8.46484 24.7995 8.46484 26.1995C8.46484 27.5995 9.59484 28.7295 10.9948 28.7295C12.3948 28.7295 13.5248 27.5995 13.5248 26.1995C13.5248 24.7995 12.3848 23.6695 10.9948 23.6695Z" fill="black"/>
<path d="M11.3957 17.2996H10.5957V25.0396H11.3957V17.2996Z" fill="white"/>
<path d="M11.5148 25.1596H10.4648V17.1696H11.5148V25.1596ZM10.7248 24.9096H11.2748V17.4196H10.7248V24.9096Z" fill="black"/>
<path d="M29.7159 30.4895C29.3459 30.4895 29.0459 30.2295 29.0459 29.8995V27.3795L27.5559 28.2295C27.4659 28.2695 27.3759 28.2895 27.2859 28.2895C27.0559 28.2895 26.8359 28.1695 26.7259 27.9795C26.6159 27.8695 26.5759 27.6895 26.6159 27.5195C26.6659 27.3195 26.8159 27.1595 27.0259 27.0895L29.0559 25.9095V22.2895L25.9259 24.2395L25.8659 26.8395C25.8659 27.2195 25.5859 27.4995 25.1959 27.4995C24.9759 27.4995 24.7959 27.4095 24.6859 27.2595C24.5859 27.1195 24.5659 26.9495 24.6159 26.7695L24.6559 25.0295L22.9759 26.0795C22.8259 26.1395 22.7359 26.1495 22.6459 26.1495C22.3759 26.1495 22.1459 26.0195 22.0359 25.8095C21.9459 25.6295 21.9359 25.4295 22.0059 25.2695C22.0459 25.1695 22.1459 25.0195 22.3559 24.9595L24.4659 23.6495L22.8059 22.3095C22.6359 22.1395 22.5459 21.9395 22.5459 21.7495C22.5459 21.5995 22.6059 21.4595 22.7159 21.3495C22.8559 21.2095 23.0359 21.1395 23.2359 21.1395C23.3559 21.1395 23.4759 21.1695 23.5859 21.2195L25.6559 22.9095L28.5259 21.1295L25.3159 19.1295L23.1559 20.6295C23.0459 20.6895 22.9559 20.7095 22.8559 20.7095C22.7859 20.7095 22.7159 20.6995 22.6459 20.6795C22.4959 20.6295 22.3659 20.5295 22.2959 20.3995C22.1959 20.2895 22.1459 20.1195 22.1759 19.9595C22.2059 19.7795 22.3259 19.6095 22.4859 19.5295L24.1459 18.4095L22.2859 17.2595C21.9159 17.0195 21.8959 16.6195 22.0259 16.3595C22.0959 16.2195 22.2359 16.1095 22.3959 16.0595C22.4459 16.0495 22.5059 16.0395 22.5659 16.0395C22.7059 16.0395 22.8459 16.0895 22.9759 16.1695L24.9459 17.3995L25.0659 15.3995C25.0659 15.2295 25.1359 15.0595 25.2559 14.9395C25.3759 14.8195 25.5459 14.7495 25.7359 14.7495H25.7659L25.8659 14.7795C26.0759 14.8895 26.3259 15.1195 26.3259 15.4195L26.1759 18.1695L29.0559 19.9595V15.8195L26.3959 14.6895C26.0859 14.5395 25.9559 14.1395 26.0959 13.8395C26.1759 13.5795 26.3859 13.4195 26.6459 13.4195C26.7259 13.4195 26.8159 13.4295 26.8959 13.4595L29.0559 14.4495V12.1995C29.0559 11.8095 29.3359 11.5295 29.7259 11.5295C30.0559 11.5295 30.3159 11.8295 30.3159 12.1995V14.3295L31.8059 13.4795C31.8959 13.4395 31.9859 13.4095 32.0859 13.4095C32.1559 13.4095 32.2259 13.4195 32.2959 13.4495C32.4559 13.4995 32.5859 13.6195 32.6559 13.7595C32.8459 14.0395 32.8059 14.3395 32.5259 14.6195L30.3059 15.8095V19.9995L33.3359 18.1095L33.2659 15.0295C33.2659 14.6395 33.5459 14.3595 33.9359 14.3595C34.2059 14.3595 34.6059 14.5995 34.6059 14.9495V17.3295L36.4759 16.1695C36.5359 16.0995 36.6759 16.0395 36.8159 16.0395C37.0959 16.0795 37.2559 16.1995 37.3359 16.3595C37.4559 16.5995 37.4659 16.9695 37.2059 17.2195L35.2159 18.4595L36.6359 19.4695C36.7259 19.5095 36.8059 19.6095 36.8459 19.7295C36.9059 19.8995 36.8859 20.1095 36.7959 20.2795C36.5859 20.5095 36.3959 20.5995 36.2059 20.5995C36.0559 20.5995 35.9159 20.5395 35.8059 20.4295L34.0559 19.1695L30.9359 21.1095L34.0159 23.0195L36.2259 21.3795C36.3759 21.2995 36.4959 21.2695 36.6159 21.2695C36.8159 21.2695 36.9959 21.3395 37.1359 21.4795C37.3059 21.7895 37.3159 22.1595 37.0559 22.4195L35.2159 23.7595L37.1559 24.9695C37.2859 25.0295 37.3759 25.1695 37.4059 25.3495C37.4259 25.4995 37.4059 25.6595 37.3359 25.7995C37.2759 25.9895 37.1259 26.0795 37.0359 26.1095C36.9659 26.1395 36.8859 26.1495 36.8059 26.1495C36.6959 26.1495 36.5859 26.1195 36.4859 26.0695L34.5959 24.8995V26.6595C34.5959 27.0495 34.3159 27.3295 33.9259 27.3295C33.5359 27.3295 33.2559 27.0495 33.2559 26.6595V24.0695L30.2959 22.2295V25.8595L32.9559 27.0895C33.1259 27.1495 33.2559 27.2495 33.3259 27.3995C33.3959 27.5495 33.4059 27.7195 33.3459 27.8995L33.3359 27.9295L33.2859 28.0395C33.1759 28.1495 32.9859 28.3095 32.7159 28.3095C32.6359 28.3095 32.5459 28.2895 32.4559 28.2695L30.2959 27.2795V29.9195C30.3059 30.2095 30.0259 30.4895 29.7159 30.4895Z" fill="black"/>
<path d="M29.715 11.6495C29.975 11.6495 30.185 11.8895 30.185 12.1895V14.5395L31.865 13.5895C31.935 13.5595 32.005 13.5395 32.085 13.5395C32.145 13.5395 32.205 13.5495 32.255 13.5695C32.385 13.6095 32.495 13.6995 32.545 13.8095C32.765 14.1395 32.585 14.3795 32.435 14.5295C32.425 14.5395 32.415 14.5495 32.395 14.5595L30.175 15.7395V20.2295L33.455 18.1895L33.385 15.0395C33.385 14.7195 33.605 14.4995 33.925 14.4995C34.135 14.4995 34.465 14.6995 34.465 14.9695V17.5695L36.525 16.2895C36.585 16.2195 36.685 16.1795 36.805 16.1795C36.825 16.1795 36.855 16.1795 36.875 16.1895C37.015 16.2095 37.145 16.3095 37.205 16.4295C37.305 16.6295 37.315 16.9395 37.095 17.1495L34.985 18.4595L36.555 19.5795C36.775 19.6895 36.795 20.0095 36.685 20.2395C36.675 20.2595 36.665 20.2695 36.655 20.2795C36.515 20.4195 36.355 20.4895 36.205 20.4895C36.085 20.4895 35.975 20.4495 35.895 20.3595L34.065 19.0395L30.705 21.1295L34.025 23.1895L36.295 21.4995C36.305 21.4895 36.315 21.4895 36.315 21.4895C36.395 21.4495 36.495 21.4195 36.605 21.4195C36.755 21.4195 36.905 21.4695 37.035 21.5895C37.045 21.5995 37.055 21.6195 37.065 21.6295C37.165 21.8295 37.175 22.1395 36.955 22.3495L34.985 23.7895L37.085 25.0995C37.315 25.2095 37.335 25.5295 37.215 25.7595C37.165 25.8995 37.065 25.9795 36.975 26.0095C36.925 26.0295 36.855 26.0395 36.795 26.0395C36.705 26.0395 36.615 26.0195 36.535 25.9795L34.465 24.6895V26.6795C34.465 26.9995 34.245 27.2195 33.925 27.2195C33.605 27.2195 33.385 26.9995 33.385 26.6795V24.0195L30.175 22.0295V25.9695L32.915 27.2295C33.065 27.2795 33.175 27.3695 33.225 27.4795C33.285 27.5995 33.285 27.7295 33.235 27.8895C33.225 27.9095 33.215 27.9295 33.195 27.9495C33.085 28.0595 32.935 28.1795 32.715 28.1795C32.645 28.1795 32.575 28.1695 32.495 28.1395L30.175 27.0695V29.8995C30.175 30.1395 29.945 30.3595 29.705 30.3595C29.405 30.3595 29.165 30.1495 29.165 29.8995V27.1695L27.485 28.1195C27.415 28.1495 27.345 28.1695 27.275 28.1695C27.095 28.1695 26.905 28.0795 26.825 27.9195C26.735 27.8195 26.695 27.6795 26.725 27.5495C26.765 27.3995 26.885 27.2695 27.055 27.2095L29.175 25.9795V22.0595L25.795 24.1595L25.735 26.8295C25.735 27.1495 25.515 27.3695 25.195 27.3695C25.025 27.3695 24.875 27.2995 24.785 27.1795C24.705 27.0695 24.685 26.9395 24.725 26.7995L24.775 24.7995L22.895 25.9695C22.885 25.9795 22.875 25.9795 22.865 25.9895C22.785 26.0195 22.705 26.0295 22.635 26.0295C22.415 26.0295 22.225 25.9295 22.135 25.7595C22.065 25.6195 22.055 25.4495 22.105 25.3195C22.135 25.2395 22.215 25.1295 22.375 25.0795L24.655 23.6595L22.855 22.2095C22.605 21.9595 22.565 21.6395 22.765 21.4395C22.885 21.3195 23.045 21.2695 23.195 21.2695C23.305 21.2695 23.405 21.2995 23.485 21.3395L25.605 23.0795L28.725 21.1395L25.285 18.9795L23.065 20.5295C23.055 20.5295 23.055 20.5395 23.045 20.5395C22.985 20.5695 22.915 20.5895 22.835 20.5895C22.775 20.5895 22.715 20.5795 22.665 20.5595C22.545 20.5195 22.445 20.4395 22.385 20.3395C22.295 20.2395 22.255 20.1095 22.275 19.9795C22.295 19.8395 22.395 19.7095 22.515 19.6495L24.345 18.4095L22.345 17.1695C22.045 16.9695 22.025 16.6495 22.135 16.4295C22.195 16.3195 22.295 16.2295 22.425 16.1995C22.465 16.1895 22.515 16.1795 22.555 16.1795C22.665 16.1795 22.785 16.2195 22.895 16.2895L25.045 17.6295L25.175 15.4195C25.175 15.1095 25.395 14.8895 25.715 14.8895C25.735 14.8895 25.765 14.8995 25.785 14.9095C25.985 15.0095 26.175 15.2095 26.175 15.4395L26.025 18.2595L29.155 20.2095V15.7595L26.415 14.5995H26.405C26.175 14.4895 26.065 14.1595 26.185 13.9295C26.255 13.7095 26.415 13.5795 26.625 13.5795C26.695 13.5795 26.765 13.5895 26.835 13.6195L29.155 14.6895V12.2395C29.175 11.8695 29.395 11.6495 29.715 11.6495ZM29.715 11.3995C29.255 11.3995 28.925 11.7295 28.925 12.1895V14.2495L26.955 13.3495C26.825 13.3095 26.735 13.2895 26.635 13.2895C26.315 13.2895 26.065 13.4795 25.955 13.8095C25.885 13.9395 25.875 14.1495 25.935 14.3495C25.995 14.5395 26.135 14.6995 26.305 14.7895L28.915 15.8995V19.7295L26.295 18.0995L26.435 15.4295C26.435 15.0595 26.145 14.7895 25.905 14.6695C25.845 14.6395 25.785 14.6295 25.725 14.6295C25.505 14.6295 25.305 14.7095 25.155 14.8595C25.015 14.9995 24.935 15.1995 24.935 15.4195L24.825 17.1995L23.025 16.0795C22.885 15.9795 22.715 15.9295 22.555 15.9295C22.485 15.9295 22.425 15.9395 22.355 15.9595C22.155 16.0095 21.995 16.1395 21.905 16.3195C21.745 16.6295 21.775 17.0995 22.195 17.3795L23.875 18.4295L22.365 19.4595C22.195 19.5395 22.055 19.7395 22.015 19.9595C21.985 20.1595 22.035 20.3595 22.165 20.5095C22.255 20.6495 22.395 20.7595 22.565 20.8195C22.645 20.8495 22.735 20.8595 22.815 20.8595C22.925 20.8595 23.035 20.8295 23.135 20.7895L23.155 20.7795L23.185 20.7595L25.285 19.2795L28.255 21.1295L25.635 22.7595L23.655 21.1395L23.635 21.1195L23.605 21.1095C23.485 21.0495 23.345 21.0195 23.205 21.0195C22.975 21.0195 22.755 21.1095 22.595 21.2695C22.465 21.3995 22.395 21.5695 22.395 21.7595C22.395 21.9795 22.495 22.2095 22.685 22.3995L24.225 23.6495L22.265 24.8695C22.085 24.9395 21.945 25.0695 21.865 25.2495C21.785 25.4495 21.795 25.6895 21.905 25.8895C22.035 26.1395 22.305 26.2995 22.625 26.2995C22.735 26.2995 22.835 26.2795 22.935 26.2495L22.965 26.2395L23.025 26.2095L24.505 25.2895L24.465 26.7995C24.415 26.9995 24.455 27.1995 24.565 27.3595C24.695 27.5495 24.925 27.6495 25.175 27.6495C25.635 27.6495 25.965 27.3195 25.965 26.8595L26.025 24.3295L28.905 22.5395V25.8695L26.935 27.0195C26.695 27.1095 26.525 27.2995 26.465 27.5295C26.415 27.7295 26.465 27.9395 26.605 28.0995C26.735 28.3095 26.995 28.4495 27.265 28.4495C27.375 28.4495 27.495 28.4195 27.595 28.3695L28.915 27.6195V29.9195C28.915 30.3095 29.275 30.6295 29.705 30.6295C30.075 30.6295 30.425 30.2895 30.425 29.9195V27.4595L32.395 28.3595C32.525 28.3995 32.625 28.4195 32.725 28.4195C33.035 28.4195 33.245 28.2495 33.375 28.1195C33.415 28.0695 33.455 28.0195 33.475 27.9595C33.565 27.6795 33.515 27.4795 33.455 27.3595C33.445 27.3395 33.435 27.3195 33.425 27.2995C33.565 27.4095 33.735 27.4695 33.935 27.4695C34.395 27.4695 34.725 27.1395 34.725 26.6795V25.1395L36.415 26.1895C36.545 26.2595 36.675 26.2895 36.805 26.2895C36.905 26.2895 36.995 26.2695 37.075 26.2395C37.255 26.1595 37.395 26.0195 37.455 25.8295C37.545 25.6595 37.565 25.4195 37.495 25.2195C37.445 25.0595 37.335 24.9395 37.195 24.8595L35.435 23.7595L37.115 22.5395C37.445 22.2095 37.435 21.7795 37.295 21.5095C37.275 21.4695 37.255 21.4395 37.215 21.4095C37.055 21.2495 36.835 21.1595 36.605 21.1595C36.465 21.1595 36.325 21.1895 36.205 21.2495L36.185 21.2595L36.145 21.2895L34.005 22.8795L31.175 21.1195L34.055 19.3295L35.745 20.5495C35.845 20.6495 36.025 20.7295 36.205 20.7295C36.425 20.7295 36.645 20.6295 36.825 20.4495C36.855 20.4195 36.885 20.3795 36.905 20.3395C37.005 20.1295 37.025 19.8895 36.965 19.6895C36.915 19.5295 36.805 19.4095 36.675 19.3395L35.445 18.4595L37.255 17.3395L37.275 17.3195L37.285 17.3095C37.585 17.0095 37.575 16.5795 37.435 16.2995C37.335 16.0995 37.135 15.9595 36.915 15.9195C36.875 15.9095 36.835 15.9095 36.805 15.9095C36.635 15.9095 36.485 15.9695 36.375 16.0695L34.725 17.0995V14.9495C34.725 14.5095 34.255 14.2295 33.935 14.2295C33.475 14.2295 33.145 14.5595 33.145 15.0195V15.0495L33.215 18.0295L30.435 19.7595V15.8695L32.515 14.7595H32.545L32.605 14.7095C33.015 14.2995 32.905 13.9195 32.745 13.6695C32.675 13.5295 32.515 13.3995 32.325 13.3295C32.245 13.2995 32.155 13.2895 32.075 13.2895C31.955 13.2895 31.845 13.3195 31.745 13.3695L30.425 14.1195V12.1995C30.435 11.7595 30.105 11.3995 29.715 11.3995ZM30.435 25.7995V22.4695L33.145 24.1495V26.6695C33.145 26.8395 33.195 26.9995 33.275 27.1195C33.205 27.0595 33.115 27.0095 33.005 26.9795L30.435 25.7995Z" fill="white"/>
</g>
<defs>
<clipPath id="clip0_1029_369">
<rect width="40.5" height="40.5" fill="white" transform="translate(0.285156 0.759521)"/>
</clipPath>
</defs>
</svg>
