<svg width="41" height="42" viewBox="0 0 41 42" fill="none" xmlns="http://www.w3.org/2000/svg">
<g clip-path="url(#clip0_1029_440)">
<path d="M20.5352 41.0095C31.5809 41.0095 40.5352 32.0552 40.5352 21.0095C40.5352 9.96383 31.5809 1.00952 20.5352 1.00952C9.48946 1.00952 0.535156 9.96383 0.535156 21.0095C0.535156 32.0552 9.48946 41.0095 20.5352 41.0095Z" fill="white" stroke="black" stroke-width="0.5" stroke-miterlimit="10"/>
<path d="M0.535156 21.0095C0.535156 32.0595 9.48516 41.0095 20.5352 41.0095V1.00952C9.48516 1.00952 0.535156 9.95952 0.535156 21.0095Z" fill="black"/>
<path d="M7.98578 31.7196L10.6058 18.5996C10.6258 18.4796 10.5658 18.3596 10.4458 18.3096C8.79578 17.7296 7.67578 16.1696 7.67578 14.4196C7.67578 12.1396 9.52578 10.2896 11.8058 10.2896C14.0858 10.2896 15.9358 12.1396 15.9358 14.4196C15.9358 16.1696 14.8258 17.7296 13.1658 18.3096C13.0458 18.3496 12.9758 18.4696 13.0058 18.5996L15.6258 31.7196H7.98578Z" fill="black"/>
<path d="M11.8155 10.5496C13.9555 10.5496 15.6955 12.2896 15.6955 14.4296C15.6955 16.0696 14.6555 17.5396 13.0955 18.0896C12.8555 18.1696 12.7255 18.4196 12.7655 18.6596L15.3255 31.4796H8.29555L10.8555 18.6596C10.9055 18.4196 10.7655 18.1696 10.5255 18.0896C8.97555 17.5496 7.92555 16.0796 7.92555 14.4296C7.93555 12.2896 9.67555 10.5496 11.8155 10.5496ZM11.8155 10.0496C9.39555 10.0496 7.43555 12.0096 7.43555 14.4296C7.43555 16.3396 8.66555 17.9596 10.3655 18.5596L7.68555 31.9696H15.9455L13.2555 18.5596C14.9655 17.9596 16.1855 16.3396 16.1855 14.4296C16.1855 12.0096 14.2255 10.0496 11.8155 10.0496Z" fill="white"/>
<path d="M28.5653 15.0895C27.4853 15.0895 26.4053 15.0895 25.3353 15.0895C24.5753 15.0895 23.9853 14.7495 23.6053 14.0895C23.3853 13.7095 23.3153 13.2895 23.3953 12.8495C23.5053 12.2095 23.8553 11.7395 24.4253 11.4395C24.6653 11.3095 24.9253 11.2495 25.1953 11.2395C25.2553 11.2395 25.2853 11.2295 25.2853 11.1495C25.3253 10.5395 25.5253 9.99953 25.8753 9.49953C25.9753 9.36953 26.1353 9.33953 26.2653 9.42953C26.3953 9.51953 26.4253 9.67953 26.3253 9.81953C26.1453 10.0695 26.0053 10.3495 25.9253 10.6495C25.8753 10.8395 25.8653 11.0395 25.8253 11.2395C25.8153 11.2895 25.8453 11.3195 25.8953 11.3295C26.1753 11.4195 26.4153 11.5795 26.6253 11.7895C26.7753 11.9395 26.7453 12.1495 26.5653 12.2495C26.4653 12.2995 26.3353 12.2795 26.2453 12.1895C26.1153 12.0595 25.9653 11.9595 25.7953 11.8895C25.5353 11.7795 25.2653 11.7595 24.9853 11.8195C24.5853 11.9095 24.2853 12.1395 24.0853 12.4895C23.9153 12.7895 23.8753 13.1095 23.9453 13.4495C24.0453 13.8995 24.2953 14.2195 24.7053 14.4095C24.8753 14.4895 25.0553 14.5295 25.2353 14.5295C27.4453 14.5295 29.6553 14.5395 31.8753 14.5195C32.6053 14.5095 33.1553 14.1395 33.5053 13.4995C33.6953 13.1495 33.7653 12.7695 33.7153 12.3795C33.6253 11.7095 33.2853 11.1995 32.6853 10.8795C32.2953 10.6695 31.8853 10.6095 31.4553 10.6995C30.8353 10.8295 30.3853 11.1795 30.1053 11.7495C30.0953 11.7795 30.0753 11.7995 30.0653 11.8295C29.9953 11.9795 29.8353 12.0495 29.6953 11.9895C29.5753 11.9295 29.4853 11.7895 29.5653 11.5995C29.8053 11.0695 30.1753 10.6595 30.6953 10.3895C30.7953 10.3395 30.7953 10.3395 30.7453 10.2295C30.4553 9.60953 29.9853 9.16953 29.3553 8.91953C28.8953 8.73953 28.4153 8.68953 27.9253 8.78953C27.6753 8.83953 27.4353 8.91953 27.2053 9.04953C27.0653 9.12953 26.9053 9.08953 26.8253 8.94953C26.7453 8.80953 26.7853 8.64953 26.9353 8.56953C27.1753 8.42953 27.4353 8.33953 27.6953 8.27953C28.0253 8.19953 28.3653 8.17953 28.6953 8.20953C29.1653 8.24953 29.6053 8.38953 30.0053 8.63953C30.5953 8.98953 31.0153 9.48953 31.2853 10.1095C31.3053 10.1495 31.3253 10.1695 31.3753 10.1595C32.3453 9.98953 33.3153 10.3995 33.8653 11.2395C34.1853 11.7195 34.3253 12.2495 34.2653 12.8195C34.1653 13.7395 33.6953 14.4195 32.8753 14.8395C32.5353 15.0195 32.1653 15.0895 31.7753 15.0895C30.7053 15.0895 29.6353 15.0895 28.5653 15.0895Z" fill="black"/>
<path d="M28.4343 18.0495C28.2243 18.0595 28.0743 17.8495 28.1743 17.6495C28.3843 17.2195 28.5943 16.7895 28.8043 16.3695C28.9243 16.1295 29.0443 15.8795 29.1643 15.6395C29.2343 15.4995 29.3943 15.4395 29.5243 15.4995C29.6643 15.5695 29.7243 15.7395 29.6543 15.8795C29.4543 16.2895 29.2543 16.6895 29.0543 17.0995C28.9243 17.3695 28.7943 17.6295 28.6543 17.8995C28.6243 17.9895 28.5443 18.0495 28.4343 18.0495Z" fill="black"/>
<path d="M28.9948 19.8896C28.8848 19.8996 28.8048 19.8596 28.7448 19.7796C28.6748 19.6896 28.6748 19.5796 28.7248 19.4796C29.0348 18.8596 29.3348 18.2296 29.6448 17.6096C29.7548 17.3996 29.9848 17.3696 30.1248 17.5496C30.1948 17.6396 30.1948 17.7396 30.1448 17.8396C29.8648 18.4196 29.5748 18.9996 29.2948 19.5796C29.2648 19.6396 29.2448 19.6896 29.2148 19.7496C29.1648 19.8196 29.0948 19.8796 28.9948 19.8896Z" fill="black"/>
<path d="M31.8244 11.2696C32.3544 11.2896 32.8444 11.6296 33.0244 12.1496C33.0744 12.2896 33.0944 12.4396 33.1144 12.5796C33.1344 12.7596 33.0144 12.8996 32.8444 12.8996C32.6944 12.8996 32.5744 12.7896 32.5644 12.6296C32.5544 12.4296 32.5044 12.2496 32.3644 12.0996C32.2144 11.9196 32.0144 11.8396 31.7744 11.8296C31.5944 11.8196 31.4744 11.6996 31.4944 11.5096C31.5244 11.3696 31.6544 11.2596 31.8244 11.2696Z" fill="black"/>
<path d="M31.9256 17.3295C31.7156 17.3395 31.5656 17.1195 31.6556 16.9295C31.8856 16.4695 32.1256 16.0095 32.3656 15.5495C32.4356 15.4195 32.5955 15.3695 32.7255 15.4295C32.8655 15.4995 32.9256 15.6595 32.8556 15.7995C32.7056 16.1095 32.5355 16.4195 32.3855 16.7195C32.3055 16.8695 32.2256 17.0295 32.1456 17.1795C32.1056 17.2595 32.0156 17.3195 31.9256 17.3295Z" fill="black"/>
<path d="M25.2939 17.2395C25.2839 17.1195 25.3539 17.0395 25.3939 16.9495C25.6039 16.5395 25.8139 16.1295 26.0239 15.7195C26.0939 15.5895 26.2139 15.5395 26.3539 15.5795C26.4639 15.6095 26.5539 15.7295 26.5439 15.8495C26.5339 15.9095 26.5139 15.9795 26.4839 16.0395C26.2639 16.4695 26.0439 16.8995 25.8239 17.3195C25.7739 17.4195 25.6939 17.4895 25.5739 17.4995C25.4639 17.4995 25.3739 17.4595 25.3239 17.3595C25.3139 17.3195 25.3039 17.2795 25.2939 17.2395Z" fill="black"/>
<path d="M26.9941 17.2795C27.2241 17.2595 27.3741 17.4895 27.2741 17.6895C27.1041 18.0295 26.9241 18.3795 26.7441 18.7195C26.6641 18.8595 26.5041 18.9195 26.3741 18.8495C26.2341 18.7795 26.1841 18.6195 26.2541 18.4695C26.4341 18.1195 26.6041 17.7795 26.7841 17.4395C26.8341 17.3395 26.9141 17.2995 26.9941 17.2795Z" fill="black"/>
<path d="M28.2741 15.6995C28.2541 15.7595 28.2441 15.8295 28.2241 15.8795C28.0641 16.2095 27.8941 16.5295 27.7241 16.8495C27.6041 17.0695 27.3641 17.0995 27.2341 16.8995C27.1841 16.8195 27.1741 16.7295 27.2141 16.6495C27.3941 16.2895 27.5741 15.9395 27.7641 15.5795C27.8241 15.4595 27.9441 15.4195 28.0841 15.4495C28.1741 15.4795 28.2541 15.5795 28.2741 15.6995Z" fill="black"/>
<path d="M27.864 18.4995C28.114 18.4795 28.274 18.6895 28.174 18.8895C28.014 19.2295 27.844 19.5695 27.674 19.9095C27.604 20.0495 27.444 20.0895 27.314 20.0295C27.194 19.9695 27.124 19.8195 27.184 19.6895C27.274 19.4795 27.384 19.2695 27.484 19.0595C27.554 18.9195 27.624 18.7895 27.684 18.6495C27.734 18.5595 27.804 18.5095 27.864 18.4995Z" fill="black"/>
<path d="M23.4753 27.7395C23.2653 27.7495 23.1153 27.5395 23.2153 27.3395C23.4253 26.9095 23.6353 26.4795 23.8453 26.0595C23.9653 25.8195 24.0853 25.5695 24.2053 25.3295C24.2753 25.1895 24.4353 25.1295 24.5653 25.1895C24.7053 25.2595 24.7653 25.4295 24.6953 25.5695C24.4953 25.9795 24.2953 26.3795 24.0953 26.7895C23.9653 27.0595 23.8353 27.3195 23.6953 27.5895C23.6553 27.6795 23.5753 27.7395 23.4753 27.7395Z" fill="black"/>
<path d="M23.1042 27.9795C23.3542 27.9595 23.5142 28.1695 23.4142 28.3695C23.2542 28.7095 23.0842 29.0495 22.9142 29.3895C22.8442 29.5295 22.6842 29.5695 22.5542 29.5095C22.4342 29.4495 22.3642 29.2995 22.4242 29.1695C22.5142 28.9595 22.6242 28.7495 22.7242 28.5395C22.7942 28.3995 22.8642 28.2695 22.9242 28.1295C22.9642 28.0395 23.0442 27.9895 23.1042 27.9795Z" fill="black"/>
<path d="M26.3054 27.7496C26.0954 27.7596 25.9454 27.5496 26.0454 27.3496C26.2554 26.9196 26.4654 26.4896 26.6754 26.0696C26.7954 25.8296 26.9154 25.5796 27.0354 25.3396C27.1054 25.1996 27.2654 25.1396 27.3954 25.1996C27.5354 25.2696 27.5954 25.4396 27.5254 25.5796C27.3254 25.9896 27.1254 26.3896 26.9254 26.7996C26.7954 27.0696 26.6654 27.3296 26.5254 27.5996C26.4854 27.6996 26.4054 27.7496 26.3054 27.7496Z" fill="black"/>
<path d="M25.7253 28.2096C25.9753 28.1896 26.1353 28.3996 26.0353 28.5996C25.8753 28.9396 25.7053 29.2796 25.5353 29.6196C25.4653 29.7596 25.3053 29.7996 25.1753 29.7396C25.0553 29.6796 24.9853 29.5296 25.0453 29.3996C25.1353 29.1896 25.2453 28.9796 25.3453 28.7696C25.4153 28.6296 25.4853 28.4996 25.5453 28.3596C25.5953 28.2696 25.6653 28.2096 25.7253 28.2096Z" fill="black"/>
<path d="M31.115 15.7796C31.135 15.8996 31.055 15.9896 31.015 16.0796C30.895 16.3296 30.765 16.5796 30.645 16.8396C30.535 17.0596 30.295 17.1096 30.155 16.9296C30.085 16.8396 30.075 16.7396 30.125 16.6396C30.275 16.3196 30.435 15.9996 30.595 15.6796C30.655 15.5496 30.775 15.4996 30.915 15.5296C31.025 15.5596 31.105 15.6596 31.115 15.7796Z" fill="black"/>
<path d="M24.5039 18.8595C24.5239 18.8095 24.5339 18.7395 24.5639 18.6895C24.6639 18.4895 24.7739 18.2895 24.8739 18.0795C24.9239 17.9895 24.9839 17.9095 25.0939 17.8895C25.2039 17.8695 25.2939 17.9095 25.3639 17.9895C25.4339 18.0795 25.4439 18.1795 25.3939 18.2795C25.2739 18.5195 25.1539 18.7595 25.0239 18.9995C24.9239 19.1895 24.6739 19.1895 24.5639 19.0095C24.5239 18.9695 24.5239 18.9195 24.5039 18.8595Z" fill="black"/>
<path d="M23.7353 31.9295C23.7253 31.8095 23.7953 31.7295 23.8353 31.6395C24.0453 31.2295 24.2553 30.8195 24.4653 30.4095C24.5353 30.2795 24.6553 30.2295 24.7953 30.2695C24.9053 30.2995 24.9953 30.4195 24.9853 30.5395C24.9753 30.5995 24.9553 30.6695 24.9253 30.7295C24.7053 31.1595 24.4853 31.5895 24.2653 32.0095C24.2153 32.1095 24.1353 32.1795 24.0153 32.1895C23.9053 32.1895 23.8153 32.1495 23.7653 32.0495C23.7553 32.0095 23.7553 31.9695 23.7353 31.9295Z" fill="black"/>
<path d="M22.9453 33.5496C22.9653 33.4996 22.9753 33.4296 23.0053 33.3796C23.1053 33.1796 23.2153 32.9796 23.3153 32.7696C23.3653 32.6796 23.4253 32.5996 23.5353 32.5796C23.6453 32.5596 23.7353 32.5996 23.8053 32.6796C23.8753 32.7696 23.8853 32.8696 23.8353 32.9696C23.7153 33.2096 23.5953 33.4496 23.4653 33.6896C23.3653 33.8796 23.1153 33.8796 23.0053 33.6996C22.9753 33.6596 22.9653 33.6096 22.9453 33.5496Z" fill="black"/>
<path d="M31.4343 17.5895C31.6643 17.5695 31.8243 17.7895 31.7443 17.9695C31.6243 18.2195 31.5043 18.4595 31.3743 18.6995C31.3043 18.8295 31.1443 18.8795 31.0143 18.8095C30.8743 18.7395 30.8243 18.5795 30.8843 18.4395C31.0043 18.1995 31.1343 17.9595 31.2543 17.7195C31.2943 17.6395 31.3643 17.5895 31.4343 17.5895Z" fill="black"/>
<path d="M25.8952 23.0196C25.6852 23.0296 25.5352 22.8196 25.6352 22.6196C25.8452 22.1896 26.0552 21.7596 26.2652 21.3396C26.3852 21.0996 26.5052 20.8496 26.6252 20.6096C26.6952 20.4696 26.8552 20.4096 26.9852 20.4696C27.1252 20.5396 27.1852 20.7096 27.1152 20.8496C26.9152 21.2596 26.7152 21.6596 26.5152 22.0696C26.3852 22.3396 26.2552 22.5996 26.1152 22.8696C26.0752 22.9596 26.0052 23.0096 25.8952 23.0196Z" fill="black"/>
<path d="M26.2955 25.0895C26.1855 25.0995 26.1055 25.0595 26.0455 24.9795C25.9755 24.8895 25.9755 24.7795 26.0255 24.6795C26.3355 24.0595 26.6355 23.4295 26.9455 22.8095C27.0555 22.5995 27.2855 22.5695 27.4255 22.7495C27.4955 22.8395 27.4955 22.9395 27.4455 23.0395C27.1655 23.6195 26.8755 24.1995 26.5955 24.7795C26.5655 24.8395 26.5455 24.8895 26.5155 24.9495C26.4655 25.0195 26.3955 25.0795 26.2955 25.0895Z" fill="black"/>
<path d="M29.9646 21.1195C29.7546 21.1295 29.6046 20.9095 29.6946 20.7195C29.9246 20.2595 30.1646 19.7995 30.4046 19.3395C30.4746 19.2095 30.6346 19.1595 30.7646 19.2195C30.9046 19.2895 30.9646 19.4495 30.8946 19.5895C30.7446 19.8995 30.5746 20.2095 30.4246 20.5095C30.3446 20.6595 30.2646 20.8195 30.1846 20.9695C30.1446 21.0595 30.0546 21.1195 29.9646 21.1195Z" fill="black"/>
<path d="M22.3447 23.0495C22.3347 22.9295 22.4047 22.8495 22.4447 22.7595C22.6547 22.3495 22.8647 21.9395 23.0747 21.5295C23.1447 21.3995 23.2647 21.3495 23.4047 21.3895C23.5147 21.4195 23.6047 21.5395 23.5947 21.6595C23.5847 21.7195 23.5647 21.7895 23.5347 21.8495C23.3147 22.2795 23.0947 22.7095 22.8747 23.1295C22.8247 23.2295 22.7447 23.2995 22.6247 23.3095C22.5147 23.3095 22.4247 23.2695 22.3747 23.1695C22.3647 23.1295 22.3647 23.0895 22.3447 23.0495Z" fill="black"/>
<path d="M29.4843 21.4695C29.7143 21.4495 29.8643 21.6795 29.7643 21.8795C29.5943 22.2195 29.4143 22.5695 29.2343 22.9095C29.1543 23.0495 28.9943 23.1095 28.8643 23.0395C28.7243 22.9695 28.6743 22.8095 28.7443 22.6595C28.9243 22.3095 29.0943 21.9695 29.2743 21.6295C29.3243 21.5295 29.4043 21.4895 29.4843 21.4695Z" fill="black"/>
<path d="M23.0546 19.0995C23.2846 19.0795 23.4346 19.3095 23.3346 19.5095C23.1646 19.8495 22.9846 20.1995 22.8046 20.5395C22.7246 20.6795 22.5646 20.7395 22.4346 20.6695C22.2946 20.5995 22.2446 20.4395 22.3146 20.2895C22.4946 19.9395 22.6646 19.5995 22.8446 19.2595C22.8946 19.1595 22.9746 19.1195 23.0546 19.0995Z" fill="black"/>
<path d="M26.3347 19.4795C26.3147 19.5395 26.3047 19.6095 26.2847 19.6595C26.1247 19.9895 25.9547 20.3095 25.7847 20.6295C25.6647 20.8495 25.4247 20.8795 25.2947 20.6795C25.2447 20.5995 25.2347 20.5095 25.2747 20.4295C25.4547 20.0695 25.6347 19.7195 25.8247 19.3595C25.8847 19.2395 26.0047 19.1995 26.1447 19.2295C26.2347 19.2595 26.3047 19.3595 26.3347 19.4795Z" fill="black"/>
<path d="M25.2546 23.4496C25.5046 23.4296 25.6646 23.6396 25.5646 23.8396C25.4046 24.1796 25.2346 24.5196 25.0646 24.8596C24.9946 24.9996 24.8346 25.0396 24.7046 24.9796C24.5846 24.9196 24.5146 24.7696 24.5746 24.6396C24.6646 24.4296 24.7746 24.2196 24.8746 24.0096C24.9446 23.8696 25.0146 23.7396 25.0746 23.5996C25.1246 23.5096 25.1946 23.4496 25.2546 23.4496Z" fill="black"/>
<path d="M24.0437 22.7995C24.2937 22.7795 24.4537 22.9895 24.3537 23.1895C24.1937 23.5295 24.0237 23.8695 23.8537 24.2095C23.7837 24.3495 23.6237 24.3895 23.4937 24.3295C23.3737 24.2695 23.3037 24.1195 23.3637 23.9895C23.4537 23.7795 23.5637 23.5695 23.6637 23.3595C23.7337 23.2195 23.8037 23.0895 23.8637 22.9495C23.9037 22.8595 23.9837 22.7995 24.0437 22.7995Z" fill="black"/>
<path d="M28.7048 20.8795C28.7248 20.9995 28.6448 21.0895 28.6048 21.1795C28.4848 21.4295 28.3548 21.6795 28.2348 21.9395C28.1248 22.1595 27.8848 22.2095 27.7448 22.0295C27.6748 21.9395 27.6648 21.8395 27.7148 21.7395C27.8648 21.4195 28.0248 21.0995 28.1848 20.7795C28.2448 20.6495 28.3648 20.5995 28.5048 20.6295C28.6148 20.6595 28.6948 20.7595 28.7048 20.8795Z" fill="black"/>
<path d="M25.1052 15.7996C25.1252 15.9196 25.0452 16.0096 25.0052 16.0996C24.8852 16.3496 24.7552 16.5996 24.6352 16.8596C24.5252 17.0796 24.2852 17.1296 24.1452 16.9496C24.0752 16.8596 24.0652 16.7596 24.1152 16.6596C24.2652 16.3396 24.4252 16.0196 24.5852 15.6996C24.6452 15.5696 24.7652 15.5196 24.9052 15.5496C25.0152 15.5796 25.0952 15.6796 25.1052 15.7996Z" fill="black"/>
<path d="M24.5037 19.7996C24.5237 19.9196 24.4437 20.0096 24.4037 20.0996C24.2837 20.3496 24.1537 20.5996 24.0337 20.8596C23.9237 21.0796 23.6837 21.1296 23.5437 20.9496C23.4737 20.8596 23.4637 20.7596 23.5137 20.6596C23.6637 20.3396 23.8237 20.0196 23.9837 19.6996C24.0437 19.5696 24.1637 19.5196 24.3037 19.5496C24.4137 19.5796 24.4937 19.6796 24.5037 19.7996Z" fill="black"/>
<path d="M27.5449 24.4595C27.5649 24.4095 27.5749 24.3395 27.6049 24.2895C27.7049 24.0895 27.8149 23.8895 27.9149 23.6795C27.9649 23.5895 28.0249 23.5095 28.1349 23.4895C28.2449 23.4695 28.3349 23.5095 28.4049 23.5895C28.4749 23.6795 28.4849 23.7795 28.4349 23.8795C28.3149 24.1195 28.1949 24.3595 28.0649 24.5995C27.9649 24.7895 27.7149 24.7895 27.6049 24.6095C27.5749 24.5595 27.5649 24.5095 27.5449 24.4595Z" fill="black"/>
<path d="M23.2246 18.5095C23.2446 18.4595 23.2546 18.3895 23.2846 18.3395C23.3846 18.1395 23.4946 17.9395 23.5946 17.7295C23.6446 17.6395 23.7046 17.5595 23.8146 17.5395C23.9246 17.5195 24.0146 17.5595 24.0846 17.6395C24.1546 17.7295 24.1646 17.8295 24.1146 17.9295C23.9946 18.1695 23.8746 18.4095 23.7446 18.6495C23.6446 18.8395 23.3946 18.8395 23.2846 18.6595C23.2446 18.6095 23.2346 18.5595 23.2246 18.5095Z" fill="black"/>
<path d="M24.905 21.2496C25.135 21.2296 25.295 21.4496 25.215 21.6296C25.095 21.8796 24.975 22.1196 24.845 22.3596C24.775 22.4896 24.615 22.5396 24.485 22.4696C24.345 22.3996 24.295 22.2396 24.355 22.0996C24.475 21.8596 24.605 21.6196 24.725 21.3796C24.765 21.2896 24.845 21.2496 24.905 21.2496Z" fill="black"/>
<path d="M23.034 24.7195C23.264 24.6995 23.424 24.9195 23.344 25.0995C23.224 25.3495 23.104 25.5895 22.974 25.8295C22.904 25.9595 22.744 26.0095 22.614 25.9395C22.474 25.8695 22.424 25.7095 22.484 25.5695C22.604 25.3295 22.734 25.0895 22.854 24.8495C22.894 24.7695 22.974 24.7195 23.034 24.7195Z" fill="black"/>
<path d="M23.0144 30.6295C23.2644 30.6095 23.4244 30.8195 23.3244 31.0195C23.1644 31.3595 22.9944 31.6995 22.8244 32.0395C22.7544 32.1795 22.5944 32.2195 22.4644 32.1595C22.3444 32.0995 22.2744 31.9495 22.3344 31.8195C22.4244 31.6095 22.5344 31.3995 22.6344 31.1895C22.7044 31.0495 22.7744 30.9195 22.8344 30.7795C22.8844 30.6895 22.9544 30.6395 23.0144 30.6295Z" fill="black"/>
<path d="M23.8738 29.0795C24.1038 29.0595 24.2638 29.2795 24.1838 29.4595C24.0638 29.7095 23.9438 29.9495 23.8138 30.1895C23.7438 30.3195 23.5838 30.3695 23.4538 30.2995C23.3138 30.2295 23.2638 30.0695 23.3238 29.9295C23.4438 29.6895 23.5738 29.4495 23.6938 29.2095C23.7438 29.1295 23.8138 29.0895 23.8738 29.0795Z" fill="black"/>
<path d="M26.114 25.7095C26.094 25.7695 26.084 25.8395 26.064 25.8895C25.904 26.2195 25.734 26.5395 25.564 26.8595C25.444 27.0795 25.204 27.1095 25.074 26.9095C25.024 26.8295 25.014 26.7395 25.054 26.6595C25.234 26.2995 25.414 25.9495 25.604 25.5895C25.664 25.4695 25.784 25.4295 25.924 25.4595C26.014 25.4895 26.084 25.5895 26.114 25.7095Z" fill="black"/>
<path d="M24.6746 27.4795C24.9046 27.4595 25.0646 27.6795 24.9846 27.8595C24.8646 28.1095 24.7446 28.3495 24.6146 28.5895C24.5446 28.7195 24.3846 28.7695 24.2546 28.6995C24.1146 28.6295 24.0646 28.4695 24.1246 28.3295C24.2446 28.0895 24.3746 27.8495 24.4946 27.6095C24.5446 27.5295 24.6146 27.4795 24.6746 27.4795Z" fill="black"/>
</g>
<defs>
<clipPath id="clip0_1029_440">
<rect width="40.5" height="40.5" fill="white" transform="translate(0.285156 0.759521)"/>
</clipPath>
</defs>
</svg>
