<svg width="41" height="42" viewBox="0 0 41 42" fill="none" xmlns="http://www.w3.org/2000/svg">
<g clip-path="url(#clip0_1029_488)">
<path d="M20.5352 41.0095C31.5809 41.0095 40.5352 32.0552 40.5352 21.0095C40.5352 9.96383 31.5809 1.00952 20.5352 1.00952C9.48946 1.00952 0.535156 9.96383 0.535156 21.0095C0.535156 32.0552 9.48946 41.0095 20.5352 41.0095Z" fill="white" stroke="black" stroke-width="0.5" stroke-miterlimit="10"/>
<path d="M0.535156 21.0095C0.535156 32.0595 9.48516 41.0095 20.5352 41.0095V1.00952C9.48516 1.00952 0.535156 9.95952 0.535156 21.0095Z" fill="black"/>
<path d="M7.98578 31.7196L10.6058 18.5996C10.6258 18.4796 10.5658 18.3596 10.4458 18.3096C8.79578 17.7296 7.67578 16.1696 7.67578 14.4196C7.67578 12.1396 9.52578 10.2896 11.8058 10.2896C14.0858 10.2896 15.9358 12.1396 15.9358 14.4196C15.9358 16.1696 14.8258 17.7296 13.1658 18.3096C13.0458 18.3496 12.9758 18.4696 13.0058 18.5996L15.6258 31.7196H7.98578Z" fill="black"/>
<path d="M11.8155 10.5496C13.9555 10.5496 15.6955 12.2896 15.6955 14.4296C15.6955 16.0696 14.6555 17.5396 13.0955 18.0896C12.8555 18.1696 12.7255 18.4196 12.7655 18.6596L15.3255 31.4796H8.29555L10.8555 18.6596C10.9055 18.4196 10.7655 18.1696 10.5255 18.0896C8.97555 17.5496 7.92555 16.0796 7.92555 14.4296C7.93555 12.2896 9.67555 10.5496 11.8155 10.5496ZM11.8155 10.0496C9.39555 10.0496 7.43555 12.0096 7.43555 14.4296C7.43555 16.3396 8.66555 17.9596 10.3655 18.5596L7.68555 31.9696H15.9455L13.2555 18.5596C14.9655 17.9596 16.1855 16.3396 16.1855 14.4296C16.1855 12.0096 14.2255 10.0496 11.8155 10.0496Z" fill="white"/>
<path d="M25.8053 19.1496C25.7053 19.1496 24.9653 19.1496 24.7453 19.0896C23.7953 18.8696 23.1953 18.2796 22.9553 17.3396C22.6453 16.1096 23.3253 14.9396 24.4653 14.5396C25.6753 14.1196 26.9753 14.7496 27.4153 15.9496C27.5053 16.1996 27.5253 16.4896 27.5653 16.7596C27.6053 17.0196 27.7753 17.1396 27.9853 17.0496C28.1153 16.9896 28.1653 16.8796 28.1553 16.7496C28.1253 15.6896 27.6753 14.8496 26.7853 14.2696C26.1453 13.8496 25.4353 13.7096 24.6853 13.8696C23.6253 14.0796 22.8753 14.7096 22.4853 15.7296C22.1253 16.6596 22.2253 17.5696 22.7753 18.4096C23.2353 19.1096 23.8853 19.5396 24.7153 19.6896C24.8653 19.7196 25.0153 19.7296 25.1653 19.7396C25.2353 19.7396 31.7653 19.7396 37.7053 19.7496C37.8353 19.7496 37.9553 19.7496 38.0353 19.6396C38.1753 19.4596 38.0653 19.1896 37.8353 19.1596C37.7853 19.1396 28.7753 19.1496 25.8053 19.1496Z" fill="black"/>
<path d="M25.7853 22.2796C25.6953 22.2796 24.8653 22.2896 24.6053 22.3496C23.7353 22.5496 23.0753 23.0496 22.6453 23.8396C21.7853 25.4396 22.5753 27.4696 24.2853 28.0396C25.7253 28.5196 27.2653 27.8596 27.8953 26.4796C28.0653 26.0996 28.1553 25.7096 28.1653 25.2896C28.1653 25.0796 28.0753 24.9596 27.8953 24.9496C27.7153 24.9296 27.5853 25.0496 27.5753 25.2596C27.5553 25.6296 27.4853 25.9896 27.3153 26.3296C26.8653 27.2296 25.8453 27.7396 24.8453 27.5796C23.6653 27.3896 22.7053 26.2696 22.9153 24.8496C23.0553 23.8896 23.8453 23.0996 24.8053 22.9296C25.0153 22.8896 31.8653 22.8796 31.9353 22.8596C32.0653 22.8196 32.1453 22.6796 32.1253 22.5396C32.1053 22.3996 32.0053 22.3096 31.8753 22.2896C31.8153 22.2696 26.7653 22.2796 25.7853 22.2796Z" fill="black"/>
<path d="M36.3758 21.3096C36.4458 21.3096 36.5258 21.3096 36.5958 21.2896C36.7158 21.2496 36.7958 21.1096 36.7858 20.9896C36.7658 20.8496 36.6658 20.7396 36.5258 20.7196C36.4758 20.7096 36.4158 20.7096 36.3658 20.7096C30.5858 20.7096 30.7058 20.7096 24.9158 20.7096C24.8258 20.7096 24.7258 20.7196 24.6458 20.7496C24.5058 20.8096 24.4758 20.9296 24.4958 21.0696C24.5158 21.2096 24.6158 21.2796 24.7458 21.2996C24.8058 21.3096 24.8758 21.2996 24.9358 21.2996C27.8258 21.3096 33.4858 21.3096 36.3758 21.3096Z" fill="black"/>
<path d="M36.5449 16.6395C36.6049 16.6395 36.6749 16.6395 36.7349 16.6295C36.8749 16.6095 36.9549 16.5195 36.9849 16.3895C37.0149 16.2495 36.9549 16.1395 36.8349 16.0795C36.7649 16.0495 36.6849 16.0295 36.6049 16.0295C33.2949 16.0295 35.8749 16.0295 32.5649 16.0295C32.4949 16.0295 32.4149 16.0395 32.3449 16.0695C32.2149 16.1195 32.1449 16.2495 32.1749 16.3895C32.1949 16.5195 32.3049 16.6095 32.4449 16.6195C32.5049 16.6195 32.5749 16.6195 32.6349 16.6195C34.2749 16.6395 34.9149 16.6395 36.5449 16.6395Z" fill="black"/>
<path d="M30.8755 26.0095C31.1555 26.0095 31.4355 26.0095 31.7155 26.0095C31.9155 26.0095 32.0455 25.8795 32.0455 25.7095C32.0455 25.5395 31.9055 25.4095 31.7255 25.4095C31.1555 25.4095 30.5855 25.4095 30.0055 25.4095C29.8255 25.4095 29.6855 25.5495 29.6855 25.7095C29.6855 25.8795 29.8255 25.9995 30.0055 26.0095C30.3055 26.0095 30.5855 26.0095 30.8755 26.0095Z" fill="black"/>
<path d="M31.976 24.2995C32.256 24.2995 32.536 24.2995 32.816 24.2995C33.036 24.2995 33.146 24.1695 33.136 23.9795C33.126 23.8195 33.026 23.7095 32.846 23.7095C32.636 23.6995 32.436 23.7095 32.226 23.7095C31.846 23.7095 31.466 23.7095 31.086 23.7095C30.956 23.7095 30.856 23.7795 30.816 23.8995C30.776 24.0195 30.786 24.1495 30.906 24.2295C30.976 24.2695 31.066 24.2995 31.156 24.2995C31.436 24.2995 31.706 24.2995 31.976 24.2995Z" fill="black"/>
<path d="M34.4652 22.8795C34.7452 22.8795 35.0252 22.8795 35.3052 22.8795C35.5152 22.8795 35.6352 22.7695 35.6352 22.5795C35.6352 22.3995 35.5152 22.2795 35.3052 22.2795C34.7452 22.2795 34.1852 22.2795 33.6152 22.2795C33.4052 22.2795 33.2852 22.3995 33.2852 22.5795C33.2852 22.7695 33.4052 22.8795 33.6152 22.8795C33.9052 22.8795 34.1852 22.8795 34.4652 22.8795Z" fill="black"/>
<path d="M37.5648 22.8796C37.7048 22.8796 37.8548 22.8796 37.9948 22.8796C38.1648 22.8696 38.2848 22.7496 38.2848 22.5896C38.2848 22.4296 38.1648 22.2896 38.0048 22.2896C37.7048 22.2796 37.4048 22.2796 37.1048 22.2896C36.9348 22.2896 36.8148 22.4396 36.8248 22.5996C36.8348 22.7596 36.9548 22.8796 37.1248 22.8796C37.2648 22.8796 37.4148 22.8796 37.5648 22.8796Z" fill="black"/>
<path d="M35.0449 23.6996C34.9049 23.6996 34.7549 23.6896 34.6149 23.6996C34.4449 23.7096 34.3349 23.8196 34.3249 23.9696C34.3149 24.1296 34.4149 24.2696 34.5949 24.2796C34.9049 24.2896 35.2149 24.2896 35.5249 24.2796C35.6949 24.2696 35.8049 24.1296 35.7949 23.9696C35.7849 23.8096 35.6649 23.6996 35.4849 23.6896C35.3349 23.6996 35.1849 23.6996 35.0449 23.6996Z" fill="black"/>
<path d="M30.2944 18.2196C30.5744 18.2196 30.8544 18.2196 31.1344 18.2196C31.3544 18.2196 31.4644 18.0896 31.4544 17.8996C31.4444 17.7396 31.3444 17.6296 31.1644 17.6296C30.9544 17.6196 30.7544 17.6296 30.5444 17.6296C30.1644 17.6296 29.7844 17.6296 29.4044 17.6296C29.2744 17.6296 29.1744 17.6996 29.1344 17.8196C29.0944 17.9396 29.1044 18.0696 29.2244 18.1496C29.2944 18.1896 29.3844 18.2196 29.4744 18.2196C29.7544 18.2296 30.0244 18.2196 30.2944 18.2196Z" fill="black"/>
<path d="M33.3555 17.6295C33.2155 17.6295 33.0655 17.6195 32.9255 17.6295C32.7555 17.6395 32.6455 17.7495 32.6355 17.8995C32.6255 18.0595 32.7255 18.1995 32.9055 18.2095C33.2155 18.2195 33.5255 18.2195 33.8355 18.2095C34.0055 18.1995 34.1155 18.0595 34.1055 17.8995C34.0955 17.7395 33.9755 17.6295 33.7955 17.6195C33.6555 17.6195 33.5055 17.6295 33.3555 17.6295Z" fill="black"/>
<path d="M37.2244 26.0096C37.3644 26.0096 37.5144 26.0096 37.6544 26.0096C37.8344 25.9996 37.9544 25.8796 37.9544 25.7096C37.9544 25.5396 37.8344 25.4096 37.6544 25.4096C37.3644 25.3996 37.0744 25.3996 36.7844 25.4096C36.6144 25.4096 36.4844 25.5496 36.4844 25.7096C36.4844 25.8696 36.6144 25.9996 36.7944 25.9996C36.8044 25.9996 36.8144 25.9996 36.8244 25.9996C36.9644 26.0096 37.0944 26.0096 37.2244 26.0096Z" fill="black"/>
</g>
<defs>
<clipPath id="clip0_1029_488">
<rect width="40.5" height="40.5" fill="white" transform="translate(0.285156 0.759521)"/>
</clipPath>
</defs>
</svg>
