<svg width="60" height="61" viewBox="0 0 60 61" fill="none" xmlns="http://www.w3.org/2000/svg">
<path d="M0.5 37.5533L10.8402 41.5843M0.5 20.0533L11 24.6416M59.4754 45.7973L48.5625 40.5533M54.5 59.5533L30 49.0533L10.8402 41.5843M0.5 46.0533L10.8402 41.5843M59.5 20.5533L49.0686 25.0618M7 59.5533L59.5 35.5533" stroke="#E8E8E8"/>
<path d="M13.5 19.4872L30 26.5533M30 26.5533L46 19.6862M30 26.5533V46.5533M30 49.0533L11 41.4924V18.0533L30 9.55334L49 18.0533V40.5533L30 49.0533Z" stroke="black"/>
<path d="M13.5 19.4872L30 26.5533M30 26.5533L46 19.6862M30 26.5533V46.5533M30 49.0533L11 41.4924V18.0533L30 9.55334L49 18.0533V40.5533L30 49.0533Z" stroke="black"/>
</svg>
