<svg width="122" height="30" viewBox="0 0 122 30" fill="none" xmlns="http://www.w3.org/2000/svg">
<path d="M22.2826 15.4884C22.8737 15.3371 23.4962 15.0544 24.0901 14.7317C24.8211 14.332 25.2437 13.975 25.4407 13.6781C25.7005 13.2869 25.3236 13.1955 24.9353 13.2298C24.5498 13.2641 24.1158 13.4868 23.6989 13.8094C23.2563 14.1549 22.8423 14.6089 22.5254 15.0829C22.434 15.2171 22.354 15.3542 22.2826 15.4884ZM7.64881 17.2816C7.68307 18.2296 7.83726 19.0434 8.10567 19.6487C8.3598 20.2169 8.71672 20.5881 9.17644 20.6852C9.88457 20.8337 10.8925 20.4139 12.226 19.2118C12.9998 18.5151 13.7479 17.6442 14.4104 16.7705C14.5731 16.5563 14.733 16.3393 14.8843 16.1252C12.7028 16.7162 10.2386 17.1845 7.97147 17.273L7.64881 17.2816ZM29.5268 18.0183C29.8123 18.0611 30.2235 17.9041 30.7117 17.3615C29.9008 17.2388 29.4611 17.3587 29.2812 17.5528C29.2098 17.6299 29.1984 17.727 29.2326 17.807C29.2755 17.9098 29.3783 17.9926 29.5268 18.0154V18.0183ZM41.3595 16.0452L41.4651 15.8139C40.8798 16.0738 40.3115 16.4335 39.7861 16.859C38.9609 17.53 38.6526 18.1896 38.6782 18.6465C38.684 18.7607 38.7125 18.8549 38.7611 18.9149C38.7925 18.9577 38.8382 18.9834 38.8924 18.9948C39.1066 19.0348 39.4349 18.8892 39.8318 18.4751C40.2687 18.0183 40.9026 17.0275 41.3623 16.0452H41.3595ZM37.2449 14.2577C37.3448 14.1521 37.4333 14.0521 37.5075 13.9636C37.9216 13.4811 38.3385 12.9928 38.7553 12.5074C40.303 10.7028 41.8706 8.87819 43.3068 7.0536C43.9521 6.23125 44.6032 5.34608 45.0657 4.49518C45.5055 3.68996 45.7853 2.91901 45.7368 2.2794C45.7225 2.08809 45.6768 1.91677 45.6054 1.78542C45.554 1.69119 45.4855 1.61695 45.4027 1.57127C45.317 1.52273 45.2028 1.50274 45.06 1.51416C44.8487 1.53129 44.586 1.61695 44.2719 1.79113C42.9014 2.55352 41.7849 4.16966 40.8912 5.82864C39.5406 8.32996 38.1586 11.6793 37.2449 14.2634V14.2577ZM33.787 28.9058C33.747 29.1857 33.49 29.3798 33.2102 29.3399C32.9304 29.2999 32.7362 29.0429 32.7762 28.7631C33.2844 25.2452 33.924 21.9016 34.8349 18.5608C34.9748 18.0497 35.1204 17.5386 35.2718 17.0303C34.0154 17.6042 32.8733 17.6299 31.8882 17.53C31.7996 17.6528 31.7083 17.7727 31.6112 17.8869C30.7974 18.8635 29.9865 19.1262 29.3726 19.0348C28.8472 18.9548 28.4588 18.6179 28.2875 18.2067C28.1076 17.7756 28.1619 17.2673 28.5274 16.8704C28.9128 16.4535 29.6667 16.1737 30.8831 16.3621L30.9259 16.3707L31.3827 16.4421C31.9424 15.497 32.2451 14.4462 32.208 13.6924C32.1965 13.4297 32.1423 13.2269 32.0452 13.107C31.9881 13.0356 31.8882 13.0014 31.7454 13.0156C31.1629 13.0756 30.2149 13.7038 28.8072 15.2229C28.7844 15.2457 28.7615 15.2685 28.7358 15.2857C28.633 15.5941 28.5331 15.9024 28.436 16.2108C27.0283 20.6424 26.0603 25.2081 25.7462 29.0001C25.7234 29.2799 25.475 29.4912 25.1951 29.4684C24.9153 29.4455 24.704 29.1971 24.7269 28.9173C25.0038 25.6107 25.7662 21.7246 26.8798 17.8412C26.046 18.3609 25.1323 18.6493 24.2871 18.7264C23.7503 18.7749 23.2392 18.7407 22.788 18.6265C22.3112 18.5065 21.8915 18.2952 21.5717 17.9983C21.2147 17.6671 20.9863 17.2388 20.9406 16.7219C20.9378 16.682 20.9349 16.6391 20.9349 16.5963C20.0526 16.4592 19.3016 15.9424 18.8333 14.8317C18.1338 15.1115 17.3171 15.4056 16.4205 15.6883C16.0693 16.2279 15.6639 16.8133 15.2184 17.3958C14.516 18.3209 13.7251 19.2432 12.9084 19.9799C11.3066 21.4247 9.99022 21.9073 8.968 21.6931C8.15992 21.5218 7.566 20.945 7.17482 20.0741C6.84645 19.3403 6.66656 18.3838 6.62658 17.2844C5.19889 17.233 3.88542 16.996 2.81179 16.4992C1.3327 15.8139 0.310476 14.6603 0.0534915 12.8643C-0.109265 11.725 0.0449254 10.3287 0.601725 8.63834C1.98659 4.44093 5.13607 1.77114 8.45974 0.631846C10.0016 0.1036 11.5864 -0.0934215 13.0569 0.0407815C14.5474 0.174984 15.918 0.651833 17.0088 1.47133C18.5535 2.63061 19.5301 4.45806 19.4872 6.94795C19.4672 8.1158 19.2645 9.28651 18.9304 10.4287C18.5649 11.6765 18.0395 12.8871 17.4199 14.0264L17.2515 14.3291C17.8768 14.1093 18.445 13.8894 18.9333 13.6781C19.1931 13.5667 19.4929 13.6867 19.6043 13.9465C19.6129 13.9693 19.6214 13.9922 19.63 14.0179C19.9384 15.0401 20.4838 15.4884 21.1291 15.5883C21.2576 15.2343 21.446 14.8745 21.6773 14.5261C22.0514 13.9636 22.5453 13.4211 23.0793 13.0099C23.639 12.5759 24.2557 12.2761 24.8468 12.2247C25.2751 12.1847 25.6863 12.2704 26.0518 12.5159C26.2145 12.6245 26.343 12.7615 26.4344 12.9271C26.5429 13.1241 26.5857 13.3469 26.5543 13.5924C26.5257 13.8037 26.4429 14.0264 26.2916 14.252C26.0118 14.6718 25.4693 15.1486 24.5755 15.6369C23.736 16.0966 22.8223 16.4821 21.9543 16.5991V16.6306C21.98 16.8818 22.0913 17.0903 22.2655 17.253C22.454 17.4272 22.7195 17.5557 23.0365 17.6356C23.382 17.7213 23.7789 17.7499 24.1958 17.7127C25.258 17.6157 26.4544 17.116 27.3481 16.148C27.3652 16.128 27.3852 16.1109 27.4052 16.0966L27.4652 15.9081C28.8243 11.6336 30.5861 7.4762 32.5763 4.22677C32.7219 3.98692 33.036 3.90983 33.2759 4.0583C33.5157 4.20393 33.5928 4.51802 33.4443 4.75787C31.9738 7.16211 30.6289 10.0746 29.4839 13.1641C30.3834 12.4132 31.0972 12.0648 31.6397 12.0077C32.1623 11.9534 32.5563 12.1305 32.8361 12.4703C33.076 12.7644 33.2016 13.1727 33.2273 13.6495C33.2673 14.4633 32.9989 15.5427 32.4849 16.5535C33.4443 16.582 34.5408 16.4107 35.7087 15.6226C36.7195 12.496 38.0358 9.24368 39.5149 6.26552C40.5428 4.19251 41.9163 1.94247 43.7723 0.908818C44.2234 0.657544 44.626 0.531907 44.9801 0.503353C45.3284 0.477655 45.634 0.543329 45.8881 0.686098C46.1479 0.828867 46.3478 1.04017 46.4906 1.30001C46.6391 1.56556 46.7247 1.87965 46.7504 2.21373C46.8161 3.07034 46.4849 4.0269 45.9566 4.99487C45.4541 5.91716 44.7745 6.84516 44.1035 7.69606C42.7614 9.40073 41.2852 11.1282 39.8176 12.8386C40.1117 12.733 40.3858 12.6644 40.6428 12.6302C41.0539 12.5731 41.4194 12.6016 41.7307 12.6987C42.0704 12.8043 42.3474 12.9899 42.5501 13.2355C42.7386 13.4639 42.8585 13.7438 42.9014 14.0521C42.9156 14.1492 42.9185 14.2549 42.9128 14.3691C43.8008 14.272 46.1308 14.4805 46.2593 16.0166C45.8595 14.9088 43.521 14.8431 42.6958 15.4313C42.5844 15.7711 42.4388 16.1309 42.2732 16.4878C41.7706 17.5643 41.0568 18.6693 40.5542 19.1918C39.8918 19.8828 39.2208 20.1027 38.6954 20.0085C38.3841 19.9514 38.1243 19.7886 37.9387 19.5459C37.7674 19.3232 37.6646 19.0376 37.6475 18.7093C37.6103 17.9783 38.0187 16.9846 39.1323 16.0795C39.966 15.4027 40.9083 14.8716 41.8706 14.5804C41.8963 14.4291 41.9048 14.2949 41.8906 14.1835C41.8734 14.0636 41.8306 13.9579 41.7621 13.878C41.6878 13.7866 41.5736 13.7152 41.428 13.6695C41.2538 13.6153 41.0339 13.601 40.777 13.6381C40.1231 13.7266 39.2693 14.1178 38.2671 14.943C37.6589 15.4427 37.005 16.0195 36.4625 16.5906C36.2283 17.3387 36.0113 18.0868 35.8086 18.8349C34.9149 22.1186 34.281 25.4251 33.7756 28.9144L33.787 28.9058ZM12.2802 2.85048C12.4801 2.65346 12.8028 2.65346 12.9998 2.85048C13.1997 3.05035 13.1968 3.37301 12.9998 3.57003C9.659 6.89941 7.82013 12.3246 7.65452 16.2594L7.9372 16.2508C10.5356 16.1537 13.4024 15.5284 15.7724 14.8088C16.0865 14.3148 16.3434 13.8751 16.529 13.5353C17.1173 12.4588 17.6141 11.3138 17.9567 10.1403C18.268 9.08092 18.4536 7.99873 18.4736 6.92796C18.5107 4.79785 17.694 3.25023 16.4034 2.28226C15.4668 1.57983 14.2733 1.16866 12.9684 1.05159C11.6435 0.931661 10.2015 1.11441 8.79096 1.59696C5.73856 2.64204 2.84891 5.09481 1.57827 8.94672C1.07286 10.4829 0.927239 11.7222 1.07001 12.7101C1.27274 14.115 2.07796 15.023 3.24581 15.5626C4.18237 15.9967 5.35308 16.208 6.638 16.2565C6.80647 12.1048 8.75099 6.37116 12.2831 2.85048H12.2802Z" fill="#9F9F9F"/>
<path d="M96.83 14.1721C97.1926 14.0493 97.5553 13.9122 97.9065 13.7609C98.8173 13.3726 99.6054 12.9243 99.9423 12.5245C99.771 12.5445 99.5626 12.593 99.3484 12.6673C98.9715 12.7958 98.5803 12.9899 98.2263 13.1927C97.6866 13.5011 97.2412 13.8209 97.0556 13.975C96.9785 14.0379 96.9042 14.1035 96.83 14.1721ZM83.9237 19.84C83.7895 19.3118 83.5781 18.7635 83.3183 18.1725C82.1105 19.0519 80.9084 19.9571 79.849 20.8194C77.3077 22.8896 76.374 24.7712 76.4226 26.0876C76.4425 26.6387 76.6453 27.0784 76.9736 27.3696C77.3077 27.6666 77.7817 27.8208 78.3414 27.798C79.6577 27.7466 81.3767 26.7386 82.9043 24.3629C83.5096 23.4207 83.8551 22.624 84.0007 21.8902C84.1435 21.1792 84.095 20.5196 83.9208 19.8343L83.9237 19.84ZM83.284 13.2641C83.6667 12.91 84.035 12.5502 84.4176 12.1762C85.1201 11.4852 85.4598 10.9369 85.5512 10.5514C85.6454 10.1631 85.3827 10.1831 85.1115 10.3202C84.7945 10.4801 84.4176 10.8256 84.0464 11.3909C83.7009 11.9249 83.4325 12.5788 83.284 13.2641ZM95.0425 27.5638C96.5016 26.5273 98.2748 23.9917 99.8453 19.1747C98.2891 20.1798 96.7472 21.1935 95.2766 22.447C93.3721 24.0688 92.6611 25.7364 92.7211 26.8814C92.7525 27.4553 92.9838 27.8693 93.3493 28.0178C93.749 28.1806 94.3372 28.0664 95.0454 27.561L95.0425 27.5638ZM91.065 10.3401C90.728 10.1117 90.6881 9.58061 90.9707 9.15231C91.2563 8.724 91.7588 8.56124 92.0958 8.78682C92.4327 9.01525 92.4727 9.54635 92.19 9.97466C91.9044 10.403 91.4019 10.5657 91.065 10.3373V10.3401ZM74.1782 15.4855C74.7693 15.3342 75.3918 15.0515 75.9857 14.7289C76.7167 14.3291 77.1393 13.9722 77.3363 13.6752C77.5961 13.284 77.2192 13.1927 76.8309 13.2269C76.4454 13.2612 76.0114 13.4839 75.5945 13.8066C75.1519 14.1492 74.7379 14.6061 74.4209 15.0801C74.3296 15.2143 74.2496 15.3513 74.1782 15.4855ZM59.5444 17.2787C59.5787 18.2267 59.7328 19.0405 60.0013 19.6458C60.2554 20.2141 60.6123 20.5853 61.072 20.6823C61.7802 20.8308 62.7881 20.4111 64.1216 19.209C64.8954 18.5123 65.6435 17.6414 66.3059 16.7676C66.4687 16.5535 66.6286 16.3364 66.7799 16.1223C64.5984 16.7134 62.1342 17.1816 59.8671 17.2702L59.5444 17.2787ZM76.1856 18.7121C75.4889 18.7749 74.8293 18.695 74.2896 18.4866C73.6957 18.2553 73.2388 17.8669 73.0018 17.3358C72.919 17.1474 72.8648 16.9446 72.8419 16.7248V16.7105C72.8362 16.6677 72.8333 16.6277 72.8333 16.5849C71.951 16.4478 71.2001 15.931 70.7318 14.8202C70.0322 15.1001 69.2156 15.3942 68.319 15.6769C67.9678 16.2137 67.5623 16.799 67.1169 17.3844C66.4144 18.3095 65.6235 19.2318 64.8069 19.9685C63.205 21.4133 61.8887 21.8959 60.8664 21.6817C60.0584 21.5104 59.4644 20.9336 59.0733 20.0627C58.7449 19.3289 58.565 18.3723 58.525 17.273C57.0973 17.2216 55.7839 16.9846 54.7102 16.4878C53.2311 15.8025 52.2089 14.6489 51.9519 12.8529C51.7892 11.7136 51.9434 10.3173 52.5002 8.62692C53.8822 4.43807 57.0317 1.76829 60.3553 0.631846C61.8972 0.1036 63.482 -0.0934215 64.9525 0.0407815C66.443 0.174984 67.8136 0.651833 68.9043 1.47133C70.4491 2.63061 71.4256 4.45806 71.3828 6.94795C71.3628 8.11866 71.1601 9.28936 70.826 10.4315C70.4605 11.6765 69.9351 12.89 69.3155 14.0264L69.147 14.3291C69.7724 14.1093 70.3406 13.8894 70.8289 13.6781C71.0887 13.5667 71.3885 13.6867 71.4999 13.9465C71.5113 13.9693 71.517 13.9922 71.5256 14.0179C71.834 15.0401 72.3793 15.4884 73.0247 15.5883C73.1531 15.2343 73.3416 14.8745 73.5729 14.5261C73.9469 13.9636 74.4409 13.4211 74.9749 13.0099C75.5345 12.5759 76.1513 12.2761 76.7424 12.2247C77.1707 12.1847 77.5818 12.2704 77.9473 12.5159C78.1101 12.6245 78.2386 12.7615 78.33 12.9271C78.4385 13.1241 78.4813 13.3469 78.4499 13.5924C78.4213 13.8037 78.3385 14.0264 78.1872 14.252C77.9074 14.6718 77.3648 15.1486 76.4711 15.6369C75.6316 16.0966 74.7179 16.4821 73.8499 16.5991V16.642C73.8641 16.7476 73.8898 16.8447 73.9298 16.9332C74.0497 17.2045 74.3096 17.4129 74.6551 17.5471C75.052 17.7013 75.5517 17.7584 76.0942 17.7099C76.5539 17.6671 76.9879 17.5528 77.4048 17.3901C78.073 17.1302 78.8239 16.6848 79.5406 16.208C80.423 15.6197 81.3167 14.9687 82.1305 14.292C82.1362 14.1035 82.1505 13.9151 82.1733 13.7238C82.2961 12.6873 82.6673 11.6536 83.1927 10.8484C83.8723 9.80333 84.6746 9.29793 85.2914 9.21798C85.6483 9.17229 85.9624 9.25224 86.1994 9.44355C86.4421 9.64058 86.5877 9.94039 86.5963 10.3202C86.6106 10.9369 86.208 11.8535 85.1315 12.9128C84.5661 13.4696 84.0322 13.9865 83.4754 14.4804L83.1584 14.7603C83.187 15.2314 83.284 15.6826 83.4696 16.0766L83.7295 16.6306C84.6204 15.9938 85.4913 15.3799 86.2908 14.8174C87.8013 13.7552 89.0548 12.8757 89.6487 12.3817C89.8657 12.2019 90.1855 12.2304 90.3654 12.4474C90.4996 12.6073 90.5167 12.8272 90.4282 13.0014C89.8314 14.1892 89.5231 15.2428 89.4317 16.0366C89.2004 18.0211 90.1427 17.767 91.4904 16.8961C92.4841 16.2536 93.5891 15.3142 94.2087 14.7831C94.2801 14.7431 94.3572 14.7232 94.4315 14.7203C94.6085 14.7117 94.8084 14.6889 95.0254 14.6546C95.3909 14.1464 95.882 13.641 96.4045 13.2041C96.6187 13.0242 97.1269 12.6587 97.7209 12.3189C98.1263 12.0876 98.5803 11.8649 99.0143 11.7136C99.4512 11.5622 99.8995 11.4852 100.239 11.5166C100.451 11.5365 100.636 11.5937 100.782 11.6993C100.985 11.8478 101.099 12.0534 101.099 12.3303C101.099 12.5074 101.042 12.7015 100.919 12.91C100.548 13.5496 99.4969 14.2006 98.3034 14.7117C97.4353 15.0829 96.4759 15.3913 95.645 15.5712L95.5907 15.6683C95.0111 17.0474 96.0448 17.1531 97.3125 16.8647C98.429 16.6106 100.83 15.7711 101.116 14.5261C101.21 14.1064 101.302 13.6895 101.393 13.2669C101.45 12.9899 101.721 12.8129 101.995 12.87C102.272 12.9271 102.449 13.1984 102.392 13.4725C102.301 13.898 102.207 14.3263 102.112 14.7517C101.947 15.4741 101.778 16.1623 101.601 16.819C103.032 15.8539 104.448 14.7974 105.819 13.4725C105.87 13.424 105.93 13.3868 105.993 13.3611C106.113 13.2955 106.256 13.2726 106.396 13.3097C106.687 13.3868 106.858 13.6838 106.784 13.975L106.024 16.8304C106.49 16.3993 106.984 15.971 107.463 15.6055C108.64 14.7089 109.791 14.1835 110.53 14.7346C110.838 14.9659 110.976 15.2514 111.013 15.5683C111.064 15.9967 110.964 16.3878 110.864 16.7648C110.45 18.3067 111.441 18.0754 112.629 17.7156C115.241 16.9275 119.953 14.6832 121.5 13.4668C120.393 15.2286 113.191 18.9634 111.198 19.0119C109.982 19.0405 109.625 18.5037 109.608 17.7384C109.599 17.3758 109.691 17.0046 109.779 16.6334C109.893 16.1708 110.005 15.7054 109.873 15.6055C109.634 15.4256 108.925 15.851 108.114 16.4678C107.149 17.2045 106.11 18.2239 105.373 18.972C105.242 19.1062 105.042 19.169 104.845 19.1176C104.554 19.0405 104.382 18.7435 104.457 18.4523L105.29 15.3142C103.934 16.4707 102.549 17.4158 101.17 18.3181C99.4312 24.1516 97.3382 27.184 95.625 28.4033C94.6028 29.1314 93.6634 29.2628 92.9552 28.9715C92.21 28.6688 91.7445 27.9293 91.6931 26.9442C91.6189 25.5308 92.427 23.5377 94.6028 21.6817C96.2332 20.2912 97.915 19.2061 99.6111 18.1154L100.299 17.6699C100.402 17.3101 100.505 16.9418 100.608 16.5592C100.008 16.9818 99.3798 17.3244 99.1571 17.4101C97.1127 18.1982 94.2659 18.7578 94.3801 16.2051V16.1937C94.3858 16.068 94.4086 15.9395 94.44 15.8111C94.0289 16.0852 93.552 16.4564 93.0552 16.8333C92.7011 17.1045 92.2214 17.4786 91.696 17.8098C90.8308 18.3552 89.8457 18.7778 89.1119 18.3923C87.8898 17.7499 88.3638 15.3599 88.7236 14.3377C88.1782 14.7289 87.55 15.1715 86.8676 15.6483C86.0224 16.2422 85.0972 16.8932 84.1549 17.57C84.4776 18.2895 84.7403 18.9463 84.9059 19.5944C85.1172 20.4196 85.1715 21.2249 84.9973 22.0986C84.8288 22.9552 84.4376 23.8661 83.758 24.9226C82.0248 27.6152 79.9804 28.7602 78.3756 28.823C77.5476 28.8573 76.8223 28.6089 76.2912 28.1377C75.7544 27.6637 75.426 26.9727 75.3946 26.1276C75.3347 24.5314 76.3712 22.3356 79.198 20.0313C80.3287 19.1119 81.6051 18.1525 82.8786 17.2273L82.5388 16.4992C82.3932 16.1908 82.2904 15.8596 82.2218 15.5141C81.2596 16.2679 80.126 17.1331 79.0752 17.7127C78.1701 18.2124 77.2192 18.6208 76.1799 18.715L76.1856 18.7121ZM64.173 2.84477C64.3728 2.64489 64.6955 2.64775 64.8925 2.84477C65.0924 3.04464 65.0895 3.3673 64.8925 3.56432C61.5517 6.8937 59.7129 12.3189 59.5472 16.2536L59.8299 16.2451C62.4283 16.148 65.2951 15.5227 67.6651 14.8031C67.9792 14.3091 68.2362 13.8694 68.4218 13.5296C69.01 12.4531 69.5068 11.3081 69.8495 10.1374C70.1607 9.07521 70.3463 7.99588 70.3663 6.92511C70.4034 4.79499 69.5868 3.24738 68.2961 2.2794C67.3596 1.57698 66.166 1.1658 64.8611 1.04873C63.5362 0.928805 62.0942 1.11155 60.6837 1.59411C57.6313 2.63918 54.7416 5.09195 53.471 8.94386C52.9656 10.4801 52.82 11.7193 52.9627 12.7073C53.1655 14.1121 53.9707 15.0201 55.1385 15.5598C56.0751 15.9938 57.2458 16.2051 58.5307 16.2536C58.6992 12.1019 60.6437 6.36831 64.1758 2.84762L64.173 2.84477Z" fill="#9F9F9F"/>
</svg>
