<svg width="30" height="30" viewBox="0 0 30 30" fill="none" xmlns="http://www.w3.org/2000/svg">
<path d="M28.0176 15.0029C28.0176 7.74296 22.132 1.85748 14.8721 1.85742C7.61206 1.85742 1.72656 7.74292 1.72656 15.0029C1.72662 22.2629 7.6121 28.1484 14.8721 28.1484C22.132 28.1484 28.0175 22.2629 28.0176 15.0029ZM29.0176 15.0029C29.0175 22.8151 22.6843 29.1484 14.8721 29.1484C7.05981 29.1484 0.726619 22.8152 0.726562 15.0029C0.726562 7.19064 7.05978 0.857422 14.8721 0.857422C22.6843 0.857479 29.0176 7.19067 29.0176 15.0029Z" fill="#252525"/>
<path fill-rule="evenodd" clip-rule="evenodd" d="M15.8489 20.4603V15.6844C16.3742 15.6844 16.9064 15.6844 17.4386 15.6844C17.5477 15.0021 17.6364 14.3608 17.7456 13.7058H15.8489C15.8489 13.351 15.8489 12.9894 15.8489 12.6346C15.829 12.4035 15.8592 12.1707 15.9376 11.9524C15.9885 11.8245 16.0688 11.7103 16.1719 11.6191C16.275 11.5278 16.398 11.4621 16.5312 11.427C16.6562 11.395 16.7843 11.3767 16.9132 11.3724H17.8206V9.65994C17.2225 9.54875 16.6137 9.50527 16.0058 9.5303C15.5786 9.55463 15.1639 9.68349 14.7982 9.90556C14.4409 10.1267 14.1581 10.4499 13.9863 10.8334C13.7891 11.2748 13.698 11.7561 13.7202 12.2389C13.7202 12.7233 13.7202 13.2009 13.7202 13.6853H11.9531C11.9531 14.3676 11.9531 15.0021 11.9531 15.6639C12.5399 15.6639 13.1198 15.6639 13.7066 15.6639V20.4398L15.8489 20.4603Z" fill="#252525"/>
</svg>
