<svg width="37" height="37" viewBox="0 0 37 37" fill="none" xmlns="http://www.w3.org/2000/svg">
<path d="M18.5 36C28.165 36 36 28.165 36 18.5C36 8.83502 28.165 1 18.5 1C8.83501 1 1 8.83502 1 18.5C1 28.165 8.83501 36 18.5 36Z" stroke="white" stroke-width="1.17947" stroke-linecap="round" stroke-linejoin="round"/>
<path fill-rule="evenodd" clip-rule="evenodd" d="M19.3035 29V19.8297C20.2884 19.8297 21.286 19.8297 22.2837 19.8297C22.4884 18.5197 22.6547 17.2883 22.8593 16.0306H19.3035C19.3035 15.3494 19.3035 14.6551 19.3035 13.9739C19.2661 13.53 19.3228 13.0831 19.4698 12.6638C19.5653 12.4183 19.7158 12.1991 19.909 12.0239C20.1023 11.8487 20.333 11.7224 20.5826 11.6551C20.8169 11.5937 21.0571 11.5585 21.2988 11.5503H23V8.2621C21.8786 8.04861 20.7373 7.96511 19.5977 8.01319C18.7968 8.05989 18.0194 8.30732 17.3337 8.73371C16.6638 9.15836 16.1336 9.77896 15.8116 10.5154C15.442 11.3627 15.2712 12.2869 15.3128 13.214C15.3128 14.1442 15.3128 15.0612 15.3128 15.9913H12C12 17.3014 12 18.5197 12 19.7904C13.1 19.7904 14.1872 19.7904 15.2872 19.7904V28.9607L19.3035 29Z" fill="white"/>
</svg>
