<svg width="38" height="37" viewBox="0 0 38 37" fill="none" xmlns="http://www.w3.org/2000/svg">
<path d="M19 36C28.9411 36 37 28.165 37 18.5C37 8.83502 28.9411 1 19 1C9.05887 1 1 8.83502 1 18.5C1 28.165 9.05887 36 19 36Z" stroke="white" stroke-width="1.17947" stroke-linecap="round" stroke-linejoin="round"/>
<path fill-rule="evenodd" clip-rule="evenodd" d="M21.5608 9.67091H16.4412C15.5846 9.66946 14.7361 9.83224 13.9442 10.1499C13.1524 10.4677 12.4328 10.934 11.8265 11.5224C11.2203 12.1108 10.7393 12.8096 10.4111 13.5789C10.083 14.3482 9.91406 15.1729 9.91406 16.0057V20.9831C9.91406 22.6661 10.6018 24.2802 11.8258 25.4702C13.0499 26.6603 14.7101 27.3289 16.4412 27.3289H21.5608C23.2899 27.326 24.9472 26.6561 26.1688 25.4663C27.3905 24.2766 28.0766 22.6642 28.0766 20.9831V16.0057C28.0766 15.1738 27.908 14.3501 27.5806 13.5815C27.2531 12.8129 26.7732 12.1146 26.1681 11.5263C25.5631 10.9381 24.8448 10.4715 24.0543 10.1531C23.2637 9.83476 22.4164 9.67091 21.5608 9.67091ZM18.9953 22.2964C18.223 22.2964 17.468 22.0737 16.8258 21.6565C16.1837 21.2394 15.6832 20.6465 15.3876 19.9527C15.0921 19.259 15.0147 18.4957 15.1654 17.7592C15.3161 17.0228 15.688 16.3463 16.2341 15.8154C16.7802 15.2844 17.476 14.9229 18.2335 14.7764C18.991 14.6299 19.7761 14.7051 20.4897 14.9924C21.2032 15.2798 21.8131 15.7664 22.2422 16.3907C22.6712 17.015 22.9003 17.749 22.9003 18.4999C22.9003 19.5068 22.4888 20.4724 21.7565 21.1844C21.0242 21.8964 20.031 22.2964 18.9953 22.2964ZM23.5359 14.0192C23.3249 14.0192 23.1186 13.9583 22.9431 13.8443C22.7676 13.7304 22.6309 13.5683 22.5501 13.3788C22.4694 13.1892 22.4482 12.9806 22.4894 12.7794C22.5306 12.5782 22.6322 12.3933 22.7814 12.2482C22.9307 12.1031 23.1208 12.0043 23.3278 11.9643C23.5348 11.9243 23.7493 11.9448 23.9443 12.0233C24.1393 12.1019 24.3059 12.2348 24.4232 12.4054C24.5404 12.576 24.603 12.7766 24.603 12.9818C24.6 13.256 24.4867 13.5182 24.2872 13.7122C24.0877 13.9061 23.818 14.0163 23.5359 14.0192Z" fill="white"/>
</svg>
