<svg width="29" height="30" viewBox="0 0 29 30" fill="none" xmlns="http://www.w3.org/2000/svg">
<path d="M27.7441 15.0029C27.7441 7.74296 21.8586 1.85748 14.5986 1.85742C7.33863 1.85742 1.45312 7.74292 1.45312 15.0029C1.45318 22.2629 7.33866 28.1484 14.5986 28.1484C21.8586 28.1484 27.7441 22.2629 27.7441 15.0029ZM28.7441 15.0029C28.7441 22.8151 22.4108 29.1484 14.5986 29.1484C6.78638 29.1484 0.453181 22.8152 0.453125 15.0029C0.453125 7.19064 6.78634 0.857422 14.5986 0.857422C22.4109 0.857478 28.7441 7.19067 28.7441 15.0029Z" fill="#252525"/>
<path fill-rule="evenodd" clip-rule="evenodd" d="M16.1407 9.54493H13.0637C12.5488 9.54403 12.0388 9.64467 11.5629 9.84107C11.087 10.0375 10.6545 10.3258 10.2901 10.6895C9.9257 11.0533 9.63662 11.4853 9.43939 11.9609C9.24215 12.4365 9.14062 12.9463 9.14063 13.4612V16.5382C9.14063 17.5787 9.55395 18.5765 10.2897 19.3122C11.0254 20.0479 12.0232 20.4613 13.0637 20.4613H16.1407C17.18 20.4594 18.1761 20.0453 18.9103 19.3098C19.6446 18.5743 20.057 17.5775 20.0569 16.5382V13.4612C20.0569 12.9469 19.9557 12.4376 19.7589 11.9625C19.562 11.4873 19.2736 11.0556 18.9099 10.692C18.5463 10.3283 18.1145 10.0398 17.6394 9.84303C17.1643 9.64622 16.655 9.54493 16.1407 9.54493ZM14.5988 17.3501C14.1346 17.3501 13.6808 17.2124 13.2949 16.9546C12.9089 16.6967 12.6081 16.3301 12.4304 15.9012C12.2528 15.4724 12.2063 15.0005 12.2969 14.5452C12.3874 14.0899 12.611 13.6717 12.9392 13.3435C13.2674 13.0153 13.6856 12.7917 14.1409 12.7012C14.5962 12.6106 15.0681 12.6571 15.497 12.8347C15.9258 13.0124 16.2924 13.3132 16.5503 13.6992C16.8081 14.0851 16.9458 14.5389 16.9458 15.0031C16.9458 15.6256 16.6985 16.2225 16.2584 16.6627C15.8182 17.1028 15.2213 17.3501 14.5988 17.3501ZM17.3279 12.2331C17.201 12.2331 17.077 12.1955 16.9716 12.125C16.8661 12.0545 16.7839 11.9544 16.7354 11.8372C16.6868 11.72 16.6741 11.591 16.6989 11.4666C16.7236 11.3422 16.7847 11.2279 16.8744 11.1382C16.9641 11.0486 17.0783 10.9875 17.2028 10.9627C17.3272 10.938 17.4561 10.9507 17.5733 10.9992C17.6905 11.0478 17.7906 11.13 17.8611 11.2354C17.9316 11.3409 17.9692 11.4649 17.9692 11.5917C17.9674 11.7613 17.8993 11.9234 17.7794 12.0433C17.6595 12.1632 17.4974 12.2313 17.3279 12.2331Z" fill="#252525"/>
</svg>
