<svg width="29" height="29" viewBox="0 0 29 29" fill="none" xmlns="http://www.w3.org/2000/svg">
<path d="M14.8087 28.2908C22.3449 28.2908 28.4541 22.1816 28.4541 14.6454C28.4541 7.10925 22.3449 1 14.8087 1C7.27259 1 1.16333 7.10925 1.16333 14.6454C1.16333 22.1816 7.27259 28.2908 14.8087 28.2908Z" stroke="white" stroke-linecap="round" stroke-linejoin="round"/>
<path fill-rule="evenodd" clip-rule="evenodd" d="M16.3509 9.18702H13.2739C12.759 9.18612 12.249 9.28676 11.7731 9.48316C11.2972 9.67957 10.8647 9.96789 10.5003 10.3316C10.1359 10.6954 9.84683 11.1274 9.64959 11.603C9.45236 12.0786 9.35083 12.5884 9.35083 13.1032V16.1803C9.35083 17.2207 9.76416 18.2186 10.4999 18.9543C11.2356 19.69 12.2334 20.1033 13.2739 20.1033H16.3509C17.3902 20.1015 18.3863 19.6874 19.1205 18.9519C19.8548 18.2164 20.2672 17.2196 20.2672 16.1803V13.1032C20.2672 12.589 20.1659 12.0797 19.9691 11.6046C19.7722 11.1294 19.4838 10.6977 19.1201 10.3341C18.7565 9.9704 18.3247 9.68193 17.8496 9.48512C17.3745 9.28831 16.8652 9.18702 16.3509 9.18702ZM14.809 16.9922C14.3448 16.9922 13.891 16.8545 13.5051 16.5966C13.1191 16.3388 12.8183 15.9722 12.6406 15.5433C12.463 15.1145 12.4165 14.6426 12.5071 14.1873C12.5976 13.732 12.8212 13.3138 13.1494 12.9856C13.4776 12.6574 13.8958 12.4338 14.3511 12.3433C14.8064 12.2527 15.2783 12.2992 15.7072 12.4768C16.136 12.6545 16.5026 12.9553 16.7605 13.3412C17.0184 13.7272 17.156 14.181 17.156 14.6452C17.156 15.2676 16.9087 15.8646 16.4686 16.3048C16.0284 16.7449 15.4315 16.9922 14.809 16.9922ZM17.5381 11.8752C17.4112 11.8752 17.2872 11.8375 17.1818 11.7671C17.0763 11.6966 16.9941 11.5964 16.9456 11.4793C16.897 11.3621 16.8843 11.2331 16.9091 11.1087C16.9338 10.9843 16.9949 10.87 17.0846 10.7803C17.1743 10.6906 17.2886 10.6296 17.413 10.6048C17.5374 10.5801 17.6663 10.5928 17.7835 10.6413C17.9007 10.6899 18.0009 10.7721 18.0713 10.8775C18.1418 10.983 18.1794 11.107 18.1794 11.2338C18.1776 11.4034 18.1095 11.5655 17.9896 11.6854C17.8697 11.8052 17.7076 11.8734 17.5381 11.8752Z" fill="white"/>
</svg>
