<svg width="37" height="37" viewBox="0 0 37 37" fill="none" xmlns="http://www.w3.org/2000/svg">
<mask id="mask0_4630_1864" style="mask-type:luminance" maskUnits="userSpaceOnUse" x="6" y="6" width="25" height="23">
<path d="M30.9019 6.46484H6.20312V28.7492H30.9019V6.46484Z" fill="white"/>
</mask>
<g mask="url(#mask0_4630_1864)">
<path d="M26.6109 9.48828V21.9293H25.9937C25.6382 21.9291 25.2861 21.9929 24.9575 22.1169C24.629 22.2408 24.3305 22.4225 24.0791 22.6517C23.8276 22.8809 23.6281 23.153 23.492 23.4524C23.3559 23.7519 23.2858 24.0728 23.2858 24.397C23.2858 24.7212 23.3559 25.0422 23.492 25.3417C23.6281 25.6412 23.8275 25.9133 24.079 26.1425C24.3304 26.3718 24.6289 26.5536 24.9575 26.6777C25.286 26.8017 25.6381 26.8656 25.9937 26.8656H28.146V9.48828H26.6109ZM23.5568 18.1774C23.5568 15.8732 22.5527 13.6633 20.7654 12.034C18.9782 10.4046 16.5541 9.48925 14.0266 9.48925H8.88281V26.8656H14.0224C16.5498 26.8654 18.9737 25.9499 20.7609 24.3206C22.5481 22.6913 23.5522 20.4816 23.5525 18.1774H23.5568Z" fill="white"/>
</g>
<path d="M1 1H36V36H1V1Z" stroke="white" stroke-width="0.875458"/>
</svg>
