<svg width="23" height="23" viewBox="0 0 23 23" fill="none" xmlns="http://www.w3.org/2000/svg">
<path d="M11.2065 21.9287C17.1239 21.9287 21.9209 17.1317 21.9209 11.2143C21.9209 5.29697 17.1239 0.5 11.2065 0.5C5.28916 0.5 0.492188 5.29697 0.492188 11.2143C0.492188 17.1317 5.28916 21.9287 11.2065 21.9287Z" stroke="#101010" stroke-width="0.847843" stroke-linecap="round" stroke-linejoin="round"/>
<mask id="path-2-inside-1_7002_181" fill="white">
<path d="M14.6013 6.9289C14.7835 6.91621 14.9641 6.96945 15.1103 7.0789H15.137C15.372 7.29893 15.5572 7.56671 15.6801 7.86425C15.803 8.16179 15.8608 8.48219 15.8495 8.80391C15.7665 9.65022 15.443 10.4551 14.9174 11.1236L14.8531 11.2093C13.8616 12.7637 12.4525 14.0076 10.787 14.7986C10.0459 15.1573 9.24852 15.3856 8.42987 15.4736C8.29803 15.4736 8.16668 15.4574 8.03879 15.4254C7.76868 15.3768 7.5116 15.2727 7.28383 15.1196C7.05605 14.9666 6.86255 14.7678 6.71557 14.5361C6.62729 14.2988 6.57493 14.0496 6.56021 13.7968L6.64057 13.7593L6.79057 13.6897C7.21914 13.47 8.30129 12.945 8.47272 12.8807L8.62272 13.095C8.79853 13.356 8.99183 13.6048 9.20129 13.8397C9.29778 13.943 9.41484 14.025 9.54494 14.0804C9.67503 14.1357 9.81529 14.1632 9.95666 14.1611C10.115 14.1586 10.2713 14.1259 10.4174 14.0647L10.5031 14.0272C11.2821 13.7197 11.9977 13.2712 12.6138 12.7039C13.2184 12.1626 13.7369 11.5321 14.1513 10.8343C14.258 10.652 14.3011 10.4395 14.274 10.2301C14.2468 10.0207 14.1509 9.82618 14.0013 9.67713C13.921 9.5807 13.846 9.50035 13.771 9.41999C13.696 9.33963 13.6692 9.31285 13.6156 9.24856C13.5509 9.1796 13.4935 9.1042 13.4442 9.02356V8.98606C13.4924 8.89499 13.6477 8.51998 13.9799 7.66284L14.2263 7.06283C14.238 7.02786 14.2523 6.99384 14.2692 6.96105H14.5799M14.5799 6.42533H14.2906C14.0281 6.42533 13.8995 6.42533 13.7281 6.8539C13.5192 7.38962 13.0102 8.62177 12.946 8.75034C12.904 8.82081 12.8789 8.89996 12.8724 8.9817C12.8659 9.06343 12.8782 9.14556 12.9085 9.22177C12.9824 9.36759 13.0781 9.50127 13.1924 9.6182C13.321 9.76821 13.4388 9.88071 13.5727 10.0414C13.7067 10.2021 13.8192 10.3307 13.6745 10.5771C13.2886 11.2299 12.8105 11.8236 12.2549 12.3396C11.6642 12.891 10.9755 13.3271 10.2245 13.6254C10.1446 13.6585 10.0592 13.6766 9.97273 13.6789C9.90415 13.6804 9.83599 13.6679 9.77242 13.6421C9.70886 13.6163 9.65123 13.5778 9.60308 13.5289C9.36124 13.2388 9.13417 12.9366 8.92273 12.6236C8.87989 12.5535 8.8202 12.4952 8.74909 12.454C8.67799 12.4128 8.59771 12.3901 8.51558 12.3879C8.43867 12.3891 8.36256 12.4036 8.29058 12.4307C8.05486 12.5164 6.80128 13.1325 6.5495 13.2611C6.29771 13.3897 6.12628 13.4539 6.06199 13.5611C5.99195 13.9701 6.0422 14.3908 6.20664 14.7718C6.38471 15.0913 6.63122 15.3674 6.92852 15.5804C7.22582 15.7934 7.56654 15.9381 7.92629 16.004C8.09123 16.0435 8.26027 16.0632 8.42987 16.0629C9.3205 15.9841 10.1888 15.7407 10.9906 15.345C13.562 14.2736 15.2174 11.6646 15.346 11.4986C15.9422 10.7382 16.3034 9.82028 16.3853 8.85749C16.398 8.4576 16.3252 8.05961 16.1719 7.69008C16.0185 7.32055 15.7881 6.988 15.496 6.71462C15.2493 6.49904 14.9285 6.38765 14.6013 6.4039L14.5799 6.42533Z"/>
</mask>
<path d="M14.6013 6.9289C14.7835 6.91621 14.9641 6.96945 15.1103 7.0789H15.137C15.372 7.29893 15.5572 7.56671 15.6801 7.86425C15.803 8.16179 15.8608 8.48219 15.8495 8.80391C15.7665 9.65022 15.443 10.4551 14.9174 11.1236L14.8531 11.2093C13.8616 12.7637 12.4525 14.0076 10.787 14.7986C10.0459 15.1573 9.24852 15.3856 8.42987 15.4736C8.29803 15.4736 8.16668 15.4574 8.03879 15.4254C7.76868 15.3768 7.5116 15.2727 7.28383 15.1196C7.05605 14.9666 6.86255 14.7678 6.71557 14.5361C6.62729 14.2988 6.57493 14.0496 6.56021 13.7968L6.64057 13.7593L6.79057 13.6897C7.21914 13.47 8.30129 12.945 8.47272 12.8807L8.62272 13.095C8.79853 13.356 8.99183 13.6048 9.20129 13.8397C9.29778 13.943 9.41484 14.025 9.54494 14.0804C9.67503 14.1357 9.81529 14.1632 9.95666 14.1611C10.115 14.1586 10.2713 14.1259 10.4174 14.0647L10.5031 14.0272C11.2821 13.7197 11.9977 13.2712 12.6138 12.7039C13.2184 12.1626 13.7369 11.5321 14.1513 10.8343C14.258 10.652 14.3011 10.4395 14.274 10.2301C14.2468 10.0207 14.1509 9.82618 14.0013 9.67713C13.921 9.5807 13.846 9.50035 13.771 9.41999C13.696 9.33963 13.6692 9.31285 13.6156 9.24856C13.5509 9.1796 13.4935 9.1042 13.4442 9.02356V8.98606C13.4924 8.89499 13.6477 8.51998 13.9799 7.66284L14.2263 7.06283C14.238 7.02786 14.2523 6.99384 14.2692 6.96105H14.5799M14.5799 6.42533H14.2906C14.0281 6.42533 13.8995 6.42533 13.7281 6.8539C13.5192 7.38962 13.0102 8.62177 12.946 8.75034C12.904 8.82081 12.8789 8.89996 12.8724 8.9817C12.8659 9.06343 12.8782 9.14556 12.9085 9.22177C12.9824 9.36759 13.0781 9.50127 13.1924 9.6182C13.321 9.76821 13.4388 9.88071 13.5727 10.0414C13.7067 10.2021 13.8192 10.3307 13.6745 10.5771C13.2886 11.2299 12.8105 11.8236 12.2549 12.3396C11.6642 12.891 10.9755 13.3271 10.2245 13.6254C10.1446 13.6585 10.0592 13.6766 9.97273 13.6789C9.90415 13.6804 9.83599 13.6679 9.77242 13.6421C9.70886 13.6163 9.65123 13.5778 9.60308 13.5289C9.36124 13.2388 9.13417 12.9366 8.92273 12.6236C8.87989 12.5535 8.8202 12.4952 8.74909 12.454C8.67799 12.4128 8.59771 12.3901 8.51558 12.3879C8.43867 12.3891 8.36256 12.4036 8.29058 12.4307C8.05486 12.5164 6.80128 13.1325 6.5495 13.2611C6.29771 13.3897 6.12628 13.4539 6.06199 13.5611C5.99195 13.9701 6.0422 14.3908 6.20664 14.7718C6.38471 15.0913 6.63122 15.3674 6.92852 15.5804C7.22582 15.7934 7.56654 15.9381 7.92629 16.004C8.09123 16.0435 8.26027 16.0632 8.42987 16.0629C9.3205 15.9841 10.1888 15.7407 10.9906 15.345C13.562 14.2736 15.2174 11.6646 15.346 11.4986C15.9422 10.7382 16.3034 9.82028 16.3853 8.85749C16.398 8.4576 16.3252 8.05961 16.1719 7.69008C16.0185 7.32055 15.7881 6.988 15.496 6.71462C15.2493 6.49904 14.9285 6.38765 14.6013 6.4039L14.5799 6.42533Z" fill="white"/>
<path d="M15.1103 7.0789L14.602 7.75751L14.8279 7.92675H15.1103V7.0789ZM15.137 7.0789L15.7165 6.46L15.472 6.23106H15.137V7.0789ZM15.8495 8.80391L16.6933 8.88674L16.6959 8.86017L16.6969 8.83348L15.8495 8.80391ZM14.9174 11.1236L14.2509 10.5995L14.2449 10.6071L14.2391 10.6149L14.9174 11.1236ZM14.8531 11.2093L14.1748 10.7006L14.1556 10.7263L14.1383 10.7533L14.8531 11.2093ZM10.787 14.7986L10.4233 14.0327L10.4176 14.0354L10.787 14.7986ZM8.42987 15.4736L8.43006 16.3214L8.47538 16.3214L8.52043 16.3166L8.42987 15.4736ZM8.03879 15.4254L8.2449 14.603L8.21705 14.596L8.18879 14.5909L8.03879 15.4254ZM6.71557 14.5361L5.92092 14.8317L5.95193 14.915L5.99958 14.9902L6.71557 14.5361ZM6.56021 13.7968L6.20166 13.0285L5.68037 13.2718L5.7138 13.8461L6.56021 13.7968ZM6.64057 13.7593L6.28354 12.9903L6.28202 12.991L6.64057 13.7593ZM6.79057 13.6897L7.1476 14.4587L7.16257 14.4517L7.17726 14.4442L6.79057 13.6897ZM8.47272 12.8807L9.1673 12.3945L8.7904 11.8561L8.17502 12.0869L8.47272 12.8807ZM8.62272 13.095L9.32591 12.6213L9.32166 12.615L9.3173 12.6088L8.62272 13.095ZM9.20129 13.8397L8.56854 14.404L8.57497 14.4112L8.58156 14.4182L9.20129 13.8397ZM9.95666 14.1611L9.96944 15.0088L9.97006 15.0088L9.95666 14.1611ZM10.4174 14.0647L10.7451 14.8467L10.7572 14.8414L10.4174 14.0647ZM10.5031 14.0272L10.1919 13.2385L10.1775 13.2442L10.1633 13.2504L10.5031 14.0272ZM12.6138 12.7039L12.0482 12.0722L12.0396 12.0802L12.6138 12.7039ZM14.1513 10.8343L14.8803 11.2672L14.8831 11.2625L14.1513 10.8343ZM14.0013 9.67713L13.35 10.2199L13.3751 10.2501L13.4029 10.2778L14.0013 9.67713ZM13.6156 9.24856L14.2669 8.70579L14.2511 8.68674L14.2341 8.66866L13.6156 9.24856ZM13.4442 9.02356H12.5963V9.2623L12.7209 9.46597L13.4442 9.02356ZM13.4442 8.98606L12.6949 8.58936L12.5963 8.77547V8.98606H13.4442ZM13.9799 7.66284L13.1956 7.34072L13.1924 7.34858L13.1893 7.35649L13.9799 7.66284ZM14.2263 7.06283L15.0106 7.38495L15.0215 7.35842L15.0306 7.33122L14.2263 7.06283ZM14.2692 6.96105V6.11321H13.7518L13.5152 6.57333L14.2692 6.96105ZM14.5799 6.42533V7.27317H14.9311L15.1795 7.02479L14.5799 6.42533ZM13.7281 6.8539L12.9409 6.53901L12.9382 6.54585L13.7281 6.8539ZM12.946 8.75034L13.6747 9.18372L13.6905 9.15716L13.7043 9.12951L12.946 8.75034ZM12.9085 9.22177L12.1204 9.5345L12.1347 9.57056L12.1523 9.60517L12.9085 9.22177ZM13.1924 9.6182L13.8361 9.06644L13.8181 9.04545L13.7988 9.02567L13.1924 9.6182ZM13.6745 10.5771L14.4044 11.0086L14.4057 11.0063L13.6745 10.5771ZM12.2549 12.3396L11.6779 11.7184L11.6764 11.7198L12.2549 12.3396ZM10.2245 13.6254L9.91153 12.8373L9.90008 12.8421L10.2245 13.6254ZM9.97273 13.6789L9.99117 14.5266L9.99528 14.5265L9.97273 13.6789ZM9.60308 13.5289L8.95179 14.0718L8.97439 14.0989L8.99918 14.124L9.60308 13.5289ZM8.92273 12.6236L8.19924 13.0656L8.20932 13.0821L8.22016 13.0982L8.92273 12.6236ZM8.51558 12.3879L8.53868 11.5403L8.5202 11.5398L8.50171 11.5401L8.51558 12.3879ZM8.29058 12.4307L8.58034 13.2276L8.58932 13.2242L8.29058 12.4307ZM6.06199 13.5611L5.33497 13.1249L5.25315 13.2612L5.22631 13.418L6.06199 13.5611ZM6.20664 14.7718L5.42819 15.1077L5.44518 15.1471L5.46607 15.1846L6.20664 14.7718ZM7.92629 16.004L8.12377 15.1794L8.10153 15.1741L8.07905 15.17L7.92629 16.004ZM8.42987 16.0629L8.43164 16.9107L8.46819 16.9106L8.50461 16.9074L8.42987 16.0629ZM10.9906 15.345L10.6645 14.5624L10.6396 14.5728L10.6154 14.5847L10.9906 15.345ZM15.346 11.4986L14.6788 10.9754L14.6756 10.9795L15.346 11.4986ZM16.3853 8.85749L17.2301 8.92928L17.232 8.90688L17.2327 8.88442L16.3853 8.85749ZM15.496 6.71462L16.0753 6.09558L16.0647 6.0857L16.0539 6.07619L15.496 6.71462ZM14.6013 6.4039L14.5593 5.5571L14.2328 5.57332L14.0017 5.80445L14.6013 6.4039ZM14.6013 6.9289L14.6603 7.77469C14.6394 7.77615 14.6187 7.77005 14.602 7.75751L15.1103 7.0789L15.6185 6.4003C15.3095 6.16884 14.9275 6.05626 14.5424 6.08311L14.6013 6.9289ZM15.1103 7.0789V7.92675H15.137V7.0789V6.23106H15.1103V7.0789ZM15.137 7.0789L14.5576 7.69781C14.7042 7.83512 14.8198 8.00224 14.8965 8.18792L15.6801 7.86425L16.4637 7.54058C16.2946 7.13119 16.0399 6.76274 15.7165 6.46L15.137 7.0789ZM15.6801 7.86425L14.8965 8.18792C14.9732 8.37361 15.0092 8.57357 15.0022 8.77435L15.8495 8.80391L16.6969 8.83348C16.7123 8.39081 16.6328 7.94997 16.4637 7.54058L15.6801 7.86425ZM15.8495 8.80391L15.0058 8.72109C14.9385 9.40641 14.6766 10.0582 14.2509 10.5995L14.9174 11.1236L15.5839 11.6476C16.2095 10.852 16.5945 9.89403 16.6933 8.88674L15.8495 8.80391ZM14.9174 11.1236L14.2391 10.6149L14.1748 10.7006L14.8531 11.2093L15.5314 11.718L15.5957 11.6323L14.9174 11.1236ZM14.8531 11.2093L14.1383 10.7533C13.2324 12.1736 11.9449 13.31 10.4233 14.0327L10.787 14.7986L11.1508 15.5644C12.96 14.7052 14.4908 13.3539 15.5679 11.6652L14.8531 11.2093ZM10.787 14.7986L10.4176 14.0354C9.76419 14.3517 9.06113 14.5531 8.3393 14.6306L8.42987 15.4736L8.52043 16.3166C9.43592 16.2182 10.3276 15.9629 11.1564 15.5617L10.787 14.7986ZM8.42987 15.4736L8.42967 14.6257C8.36737 14.6258 8.30531 14.6181 8.2449 14.603L8.03879 15.4254L7.83267 16.2478C8.02804 16.2967 8.22868 16.3215 8.43006 16.3214L8.42987 15.4736ZM8.03879 15.4254L8.18879 14.5909C8.03422 14.5631 7.8871 14.5035 7.75675 14.4159L7.28383 15.1196L6.8109 15.8233C7.1361 16.0419 7.50315 16.1905 7.88879 16.2598L8.03879 15.4254ZM7.28383 15.1196L7.75675 14.4159C7.62641 14.3283 7.51567 14.2146 7.43156 14.082L6.71557 14.5361L5.99958 14.9902C6.20942 15.3211 6.4857 15.6048 6.8109 15.8233L7.28383 15.1196ZM6.71557 14.5361L7.51021 14.2405C7.45135 14.0822 7.41644 13.9161 7.40662 13.7475L6.56021 13.7968L5.7138 13.8461C5.73342 14.1831 5.80322 14.5153 5.92092 14.8317L6.71557 14.5361ZM6.56021 13.7968L6.91876 14.5651L6.99912 14.5276L6.64057 13.7593L6.28202 12.991L6.20166 13.0285L6.56021 13.7968ZM6.64057 13.7593L6.9976 14.5283L7.1476 14.4587L6.79057 13.6897L6.43354 12.9207L6.28354 12.9903L6.64057 13.7593ZM6.79057 13.6897L7.17726 14.4442C7.38268 14.3389 7.75335 14.1561 8.09655 13.9905C8.26747 13.908 8.42858 13.8313 8.55624 13.7717C8.62023 13.7419 8.67374 13.7173 8.71482 13.6989C8.76203 13.6778 8.77617 13.6724 8.77042 13.6746L8.47272 12.8807L8.17502 12.0869C8.04322 12.1363 7.6837 12.3069 7.3596 12.4633C7.01172 12.6312 6.62703 12.8208 6.40387 12.9351L6.79057 13.6897ZM8.47272 12.8807L7.77814 13.3669L7.92814 13.5812L8.62272 13.095L9.3173 12.6088L9.1673 12.3945L8.47272 12.8807ZM8.62272 13.095L7.91953 13.5687C8.11675 13.8615 8.33358 14.1405 8.56854 14.404L9.20129 13.8397L9.83404 13.2753C9.65008 13.0691 9.48031 12.8506 9.32591 12.6213L8.62272 13.095ZM9.20129 13.8397L8.58156 14.4182C8.75884 14.6081 8.97393 14.7588 9.21296 14.8605L9.54494 14.0804L9.87691 13.3002C9.85575 13.2912 9.83671 13.2779 9.82103 13.2611L9.20129 13.8397ZM9.54494 14.0804L9.21296 14.8605C9.45199 14.9622 9.70969 15.0127 9.96944 15.0088L9.95666 14.1611L9.94387 13.3133C9.92089 13.3137 9.89808 13.3092 9.87691 13.3002L9.54494 14.0804ZM9.95666 14.1611L9.97006 15.0088C10.2364 15.0046 10.4994 14.9496 10.7451 14.8466L10.4174 14.0647L10.0897 13.2827C10.0433 13.3022 9.99357 13.3126 9.94325 13.3133L9.95666 14.1611ZM10.4174 14.0647L10.7572 14.8414L10.8429 14.8039L10.5031 14.0272L10.1633 13.2504L10.0775 13.2879L10.4174 14.0647ZM10.5031 14.0272L10.8143 14.8158C11.6904 14.4701 12.4951 13.9656 13.1881 13.3277L12.6138 12.7039L12.0396 12.0802C11.5002 12.5767 10.8738 12.9694 10.1919 13.2385L10.5031 14.0272ZM12.6138 12.7039L13.1794 13.3356C13.8483 12.7367 14.4219 12.0392 14.8803 11.2672L14.1513 10.8343L13.4223 10.4014C13.052 11.025 12.5886 11.5885 12.0483 12.0723L12.6138 12.7039ZM14.1513 10.8343L14.8831 11.2625C15.0846 10.9182 15.1661 10.5167 15.1148 10.1211L14.274 10.2301L13.4332 10.3391C13.4362 10.3623 13.4314 10.3859 13.4196 10.4061L14.1513 10.8343ZM14.274 10.2301L15.1148 10.1211C15.0635 9.72546 14.8823 9.35805 14.5997 9.0765L14.0013 9.67713L13.4029 10.2778C13.4195 10.2943 13.4302 10.3159 13.4332 10.3391L14.274 10.2301ZM14.0013 9.67713L14.6527 9.13436C14.555 9.01723 14.4647 8.92068 14.3908 8.84149L13.771 9.41999L13.1511 9.99849C13.2272 10.08 13.2869 10.1442 13.35 10.2199L14.0013 9.67713ZM13.771 9.41999L14.3908 8.84149C14.3053 8.74988 14.3009 8.7466 14.2669 8.70579L13.6156 9.24856L12.9643 9.79134C13.0374 9.87909 13.0866 9.92939 13.1511 9.99849L13.771 9.41999ZM13.6156 9.24856L14.2341 8.66866C14.209 8.64183 14.1866 8.6125 14.1674 8.58115L13.4442 9.02356L12.7209 9.46597C12.8004 9.5959 12.8929 9.71736 12.9971 9.82846L13.6156 9.24856ZM13.4442 9.02356H14.292V8.98606H13.4442H12.5963V9.02356H13.4442ZM13.4442 8.98606L14.1935 9.38275C14.2715 9.23547 14.4495 8.79735 14.7705 7.96918L13.9799 7.66284L13.1893 7.35649C13.024 7.78311 12.9041 8.08618 12.8202 8.29215C12.7783 8.39532 12.7465 8.47132 12.7233 8.52488C12.6971 8.58552 12.6898 8.59889 12.6949 8.58936L13.4442 8.98606ZM13.9799 7.66284L14.7642 7.98495L15.0106 7.38495L14.2263 7.06283L13.4421 6.74072L13.1956 7.34072L13.9799 7.66284ZM14.2263 7.06283L15.0306 7.33122C15.0286 7.33726 15.0261 7.34312 15.0232 7.34876L14.2692 6.96105L13.5152 6.57333C13.4786 6.64455 13.4474 6.71847 13.4221 6.79445L14.2263 7.06283ZM14.2692 6.96105V7.80889H14.5799V6.96105V6.11321H14.2692V6.96105ZM14.5799 6.42533V5.57749H14.2906V6.42533V7.27317H14.5799V6.42533ZM14.2906 6.42533V5.57749C14.221 5.57749 13.8582 5.55382 13.5284 5.75837C13.1963 5.96432 13.0377 6.29699 12.9409 6.53902L13.7281 6.8539L14.5153 7.16879C14.5468 7.09007 14.5616 7.06936 14.5564 7.07711C14.5477 7.09016 14.5064 7.1471 14.4221 7.19943C14.335 7.25344 14.2564 7.26877 14.2251 7.27283C14.2127 7.27444 14.2094 7.27404 14.2226 7.27366C14.237 7.27324 14.255 7.27317 14.2906 7.27317V6.42533ZM13.7281 6.8539L12.9382 6.54585C12.8368 6.80578 12.6599 7.24159 12.4991 7.63138C12.4189 7.82557 12.3437 8.00599 12.285 8.14497C12.2555 8.21464 12.2309 8.27236 12.2121 8.31553C12.1898 8.36658 12.1838 8.37878 12.1876 8.37118L12.946 8.75034L13.7043 9.12951C13.7897 8.95871 14.3136 7.68608 14.518 7.16196L13.7281 6.8539ZM12.946 8.75034L12.2172 8.31697C12.109 8.49897 12.044 8.70338 12.0272 8.91447L12.8724 8.9817L13.7175 9.04892C13.7138 9.09654 13.6991 9.14266 13.6747 9.18372L12.946 8.75034ZM12.8724 8.9817L12.0272 8.91447C12.0104 9.12552 12.0423 9.33764 12.1204 9.5345L12.9085 9.22177L13.6965 8.90905C13.7141 8.95348 13.7213 9.00134 13.7175 9.04892L12.8724 8.9817ZM12.9085 9.22177L12.1523 9.60517C12.2652 9.82793 12.4115 10.0321 12.586 10.2107L13.1924 9.6182L13.7988 9.02567C13.7448 8.97041 13.6996 8.90725 13.6647 8.83838L12.9085 9.22177ZM13.1924 9.6182L12.5487 10.17C12.6265 10.2608 12.7013 10.3404 12.7597 10.4032C12.8207 10.4688 12.8702 10.5228 12.9214 10.5842L13.5727 10.0414L14.2241 9.49865C14.1413 9.39934 14.065 9.31673 14.0014 9.24841C13.9353 9.17731 13.8868 9.12559 13.8361 9.06644L13.1924 9.6182ZM13.5727 10.0414L12.9214 10.5842C12.9405 10.6071 12.9512 10.6199 12.9613 10.6324C12.9705 10.6439 12.9731 10.6476 12.9723 10.6465C12.972 10.6461 12.9435 10.6067 12.9212 10.5374C12.8959 10.4588 12.8871 10.3691 12.9008 10.281C12.9134 10.2005 12.9398 10.154 12.9433 10.148L13.6745 10.5771L14.4057 11.0063C14.5702 10.726 14.6526 10.3812 14.535 10.0168C14.4471 9.74433 14.2563 9.53729 14.2241 9.49865L13.5727 10.0414ZM13.6745 10.5771L12.9447 10.1457C12.6003 10.7282 12.1737 11.2579 11.6779 11.7184L12.2549 12.3396L12.8319 12.9608C13.4473 12.3892 13.977 11.7317 14.4044 11.0086L13.6745 10.5771ZM12.2549 12.3396L11.6764 11.7198C11.1629 12.1991 10.5643 12.5781 9.91156 12.8374L10.2245 13.6254L10.5375 14.4133C11.3867 14.0761 12.1654 13.583 12.8334 12.9595L12.2549 12.3396ZM10.2245 13.6254L9.90008 12.8421C9.91599 12.8355 9.93297 12.8319 9.95017 12.8314L9.97273 13.6789L9.99528 14.5265C10.1855 14.5214 10.3731 14.4815 10.549 14.4087L10.2245 13.6254ZM9.97273 13.6789L9.95428 12.8313C10.0011 12.8303 10.0478 12.8388 10.0912 12.8565L9.77242 13.6421L9.45362 14.4277C9.62422 14.497 9.80714 14.5306 9.99117 14.5266L9.97273 13.6789ZM9.77242 13.6421L10.0912 12.8565C10.1347 12.8741 10.1741 12.9004 10.207 12.9338L9.60308 13.5289L8.99918 14.124C9.1284 14.2552 9.28304 14.3585 9.45362 14.4277L9.77242 13.6421ZM9.60308 13.5289L10.2544 12.9861C10.0308 12.7178 9.82081 12.4384 9.6253 12.149L8.92273 12.6236L8.22016 13.0982C8.44753 13.4348 8.69171 13.7597 8.95179 14.0718L9.60308 13.5289ZM8.92273 12.6236L9.64622 12.1815C9.52968 11.9908 9.36731 11.8322 9.17389 11.7203L8.74909 12.454L8.32429 13.1878C8.27309 13.1581 8.2301 13.1161 8.19924 13.0656L8.92273 12.6236ZM8.74909 12.454L9.17389 11.7203C8.98045 11.6083 8.76209 11.5464 8.53868 11.5403L8.51558 12.3879L8.49248 13.2354C8.43333 13.2338 8.37552 13.2174 8.32429 13.1878L8.74909 12.454ZM8.51558 12.3879L8.50171 11.5401C8.32746 11.543 8.15497 11.5758 7.99183 11.6373L8.29058 12.4307L8.58932 13.2242C8.57014 13.2314 8.54989 13.2353 8.52944 13.2356L8.51558 12.3879ZM8.29058 12.4307L8.00083 11.6339C7.83157 11.6955 7.40852 11.8967 7.05731 12.0664C6.68104 12.2481 6.29813 12.4375 6.16392 12.506L6.5495 13.2611L6.93508 14.0162C7.05265 13.9561 7.42242 13.7731 7.79482 13.5933C7.9802 13.5037 8.16258 13.4167 8.31169 13.3475C8.3864 13.3128 8.45029 13.2837 8.50073 13.2614C8.52592 13.2503 8.54598 13.2417 8.56121 13.2353C8.57775 13.2284 8.58301 13.2265 8.58032 13.2275L8.29058 12.4307ZM6.5495 13.2611L6.16392 12.506C6.10853 12.5343 6.05895 12.5583 6.00233 12.5861C5.95066 12.6115 5.88657 12.6432 5.82522 12.6771C5.7276 12.7311 5.49128 12.8644 5.33497 13.1249L6.06199 13.5611L6.78901 13.9973C6.7384 14.0816 6.68273 14.1307 6.65765 14.1506C6.63437 14.1691 6.62398 14.1731 6.64564 14.1611C6.66666 14.1495 6.69665 14.1343 6.74996 14.1081C6.7983 14.0844 6.86457 14.0522 6.93508 14.0162L6.5495 13.2611ZM6.06199 13.5611L5.22631 13.418C5.12855 13.9889 5.19869 14.5759 5.42819 15.1077L6.20664 14.7718L6.98509 14.4359C6.88571 14.2056 6.85534 13.9514 6.89767 13.7042L6.06199 13.5611ZM6.20664 14.7718L5.46607 15.1846C5.70501 15.6133 6.03579 15.9838 6.4347 16.2696L6.92852 15.5804L7.42233 14.8912C7.22665 14.751 7.0644 14.5693 6.9472 14.359L6.20664 14.7718ZM6.92852 15.5804L6.4347 16.2696C6.83362 16.5554 7.29081 16.7495 7.77354 16.8379L7.92629 16.004L8.07905 15.17C7.84227 15.1266 7.61801 15.0314 7.42233 14.8912L6.92852 15.5804ZM7.92629 16.004L7.72882 16.8285C7.95901 16.8836 8.19494 16.9112 8.43164 16.9107L8.42987 16.0629L8.4281 15.215C8.3256 15.2153 8.22344 15.2033 8.12377 15.1794L7.92629 16.004ZM8.42987 16.0629L8.50461 16.9074C9.49973 16.8194 10.4699 16.5474 11.3658 16.1053L10.9906 15.345L10.6154 14.5847C9.90768 14.9339 9.14127 15.1488 8.35513 15.2183L8.42987 16.0629ZM10.9906 15.345L11.3167 16.1276C12.7581 15.527 13.9115 14.5121 14.7049 13.66C15.1056 13.2296 15.4242 12.8303 15.6512 12.5276C15.7648 12.376 15.8556 12.2485 15.9217 12.1541C16.0045 12.0359 16.0166 12.0173 16.0164 12.0176L15.346 11.4986L14.6756 10.9795C14.4796 11.2327 12.9774 13.5987 10.6645 14.5624L10.9906 15.345ZM15.346 11.4986L16.0131 12.0218C16.7113 11.1314 17.1343 10.0566 17.2301 8.92928L16.3853 8.85749L15.5405 8.78569C15.4726 9.58393 15.1731 10.345 14.6788 10.9754L15.346 11.4986ZM16.3853 8.85749L17.2327 8.88442C17.2492 8.36399 17.1545 7.84602 16.955 7.3651L16.1719 7.69008L15.3888 8.01506C15.4959 8.27319 15.5467 8.55121 15.5378 8.83055L16.3853 8.85749ZM16.1719 7.69008L16.955 7.3651C16.7554 6.88418 16.4555 6.45137 16.0753 6.09558L15.496 6.71462L14.9166 7.33366C15.1207 7.52463 15.2817 7.75693 15.3888 8.01506L16.1719 7.69008ZM15.496 6.71462L16.0539 6.07619C15.6417 5.71605 15.1059 5.52995 14.5593 5.5571L14.6013 6.4039L14.6434 7.2507C14.7512 7.24535 14.8568 7.28204 14.9381 7.35305L15.496 6.71462ZM14.6013 6.4039L14.0017 5.80445L13.9803 5.82588L14.5799 6.42533L15.1795 7.02479L15.2009 7.00336L14.6013 6.4039Z" fill="#101010" mask="url(#path-2-inside-1_7002_181)"/>
</svg>
