<svg width="29" height="29" viewBox="0 0 29 29" fill="none" xmlns="http://www.w3.org/2000/svg">
<path d="M14.227 28.2908C21.7631 28.2908 27.8724 22.1816 27.8724 14.6454C27.8724 7.10925 21.7631 1 14.227 1C6.6908 1 0.581543 7.10925 0.581543 14.6454C0.581543 22.1816 6.6908 28.2908 14.227 28.2908Z" stroke="white" stroke-linecap="round" stroke-linejoin="round"/>
<path d="M18.5527 9.18721C18.7847 9.17104 19.0148 9.23884 19.2009 9.37825H19.235C19.5343 9.65846 19.7701 9.9995 19.9266 10.3784C20.0831 10.7574 20.1567 11.1654 20.1424 11.5752C20.0366 12.653 19.6247 13.6781 18.9553 14.5294L18.8734 14.6385C17.6106 16.6182 15.816 18.2024 13.695 19.2098C12.7511 19.6666 11.7356 19.9574 10.693 20.0694C10.5251 20.0695 10.3578 20.0488 10.1949 20.008C9.85092 19.9462 9.52351 19.8136 9.23342 19.6186C8.94333 19.4237 8.6969 19.1706 8.50971 18.8754C8.39727 18.5732 8.33059 18.2559 8.31185 17.9339L8.41419 17.8862L8.60522 17.7975C9.15104 17.5177 10.5292 16.8491 10.7476 16.7672L10.9386 17.0401C11.1625 17.3725 11.4087 17.6894 11.6754 17.9885C11.7983 18.1201 11.9474 18.2245 12.1131 18.295C12.2788 18.3655 12.4574 18.4006 12.6374 18.3979C12.8391 18.3947 13.0382 18.353 13.2242 18.2751L13.3334 18.2273C14.3255 17.8358 15.2368 17.2645 16.0215 16.5421C16.7915 15.8526 17.4518 15.0497 17.9796 14.161C18.1155 13.9288 18.1704 13.6582 18.1358 13.3915C18.1012 13.1248 17.9791 12.8771 17.7886 12.6873C17.6862 12.5644 17.5907 12.4621 17.4952 12.3598C17.3997 12.2574 17.3656 12.2233 17.2973 12.1414C17.215 12.0536 17.1418 11.9576 17.079 11.8549V11.8071C17.1404 11.6911 17.3383 11.2136 17.7613 10.1219L18.0751 9.35778C18.09 9.31324 18.1082 9.2699 18.1297 9.22815H18.5254M18.5254 8.54588H18.157C17.8227 8.54588 17.659 8.54588 17.4406 9.09169C17.1745 9.77396 16.5264 11.3432 16.4445 11.5069C16.3911 11.5967 16.3591 11.6975 16.3508 11.8016C16.3425 11.9057 16.3582 12.0103 16.3967 12.1073C16.4909 12.293 16.6128 12.4633 16.7584 12.6122C16.9221 12.8032 17.0722 12.9465 17.2428 13.1512C17.4133 13.3559 17.5566 13.5196 17.3724 13.8335C16.8809 14.6648 16.272 15.4209 15.5644 16.0781C14.8121 16.7804 13.935 17.3357 12.9786 17.7156C12.8768 17.7578 12.7681 17.7809 12.6579 17.7838C12.5706 17.7857 12.4838 17.7698 12.4028 17.7369C12.3219 17.7041 12.2485 17.655 12.1871 17.5928C11.8791 17.2232 11.59 16.8384 11.3207 16.4397C11.2661 16.3504 11.1901 16.2762 11.0995 16.2238C11.009 16.1714 10.9067 16.1424 10.8021 16.1395C10.7042 16.1411 10.6073 16.1596 10.5156 16.1941C10.2154 16.3033 8.61887 17.0879 8.2982 17.2516C7.97754 17.4154 7.75921 17.4973 7.67734 17.6337C7.58813 18.1547 7.65213 18.6904 7.86155 19.1756C8.08833 19.5825 8.40228 19.9342 8.78091 20.2055C9.15954 20.4767 9.59348 20.661 10.0516 20.7449C10.2617 20.7952 10.477 20.8204 10.693 20.8199C11.8273 20.7195 12.9331 20.4095 13.9542 19.9057C17.2291 18.5411 19.3373 15.2185 19.5011 15.007C20.2604 14.0386 20.7205 12.8696 20.8247 11.6434C20.8409 11.1341 20.7482 10.6272 20.5529 10.1566C20.3576 9.686 20.0641 9.26247 19.6921 8.9143C19.3779 8.63975 18.9694 8.49789 18.5527 8.51859L18.5254 8.54588Z" fill="white"/>
</svg>
