<svg width="30" height="30" viewBox="0 0 30 30" fill="none" xmlns="http://www.w3.org/2000/svg">
<path d="M14.872 28.6482C22.4081 28.6482 28.5174 22.539 28.5174 15.0028C28.5174 7.46668 22.4081 1.35742 14.872 1.35742C7.33582 1.35742 1.22656 7.46668 1.22656 15.0028C1.22656 22.539 7.33582 28.6482 14.872 28.6482Z" stroke="#252525" stroke-linecap="round" stroke-linejoin="round"/>
<path d="M28.0176 15.0029C28.0176 7.74296 22.132 1.85748 14.8721 1.85742C7.61206 1.85742 1.72656 7.74292 1.72656 15.0029C1.72662 22.2629 7.6121 28.1484 14.8721 28.1484C22.132 28.1484 28.0175 22.2629 28.0176 15.0029ZM29.0176 15.0029C29.0175 22.8151 22.6843 29.1484 14.8721 29.1484C7.05981 29.1484 0.726619 22.8152 0.726562 15.0029C0.726562 7.19064 7.05978 0.857422 14.8721 0.857422C22.6843 0.857478 29.0176 7.19067 29.0176 15.0029Z" fill="#252525"/>
<path fill-rule="evenodd" clip-rule="evenodd" d="M14.1115 16.7637C13.8249 18.2647 13.477 19.7043 12.4399 20.4616C12.1192 18.1897 12.9107 16.484 13.2791 14.6691C12.6514 13.6184 13.3542 11.4966 14.6436 12.0219C16.2674 12.6633 13.2382 15.9382 15.2713 16.3407C17.3045 16.7432 18.2597 12.6564 16.9429 11.3192C15.0462 9.39519 11.4097 11.2783 11.8532 14.0483C11.9623 14.7305 12.6651 14.9284 12.1329 15.8631C10.9184 15.5902 10.55 14.635 10.5978 13.3524C10.6708 12.3892 11.082 11.4829 11.7587 10.7937C12.4354 10.1045 13.3341 9.67683 14.2957 9.58622C16.5881 9.32696 18.7441 10.4254 19.0716 12.5814C19.4059 15.0171 18.0345 17.6575 15.5852 17.4664C15.0393 17.3702 14.5299 17.1272 14.1115 16.7637Z" fill="#252525"/>
</svg>
