<svg width="29" height="29" viewBox="0 0 29 29" fill="none" xmlns="http://www.w3.org/2000/svg">
<path d="M14.518 28.2908C22.0541 28.2908 28.1634 22.1816 28.1634 14.6454C28.1634 7.10925 22.0541 1 14.518 1C6.98181 1 0.872559 7.10925 0.872559 14.6454C0.872559 22.1816 6.98181 28.2908 14.518 28.2908Z" stroke="white" stroke-linecap="round" stroke-linejoin="round"/>
<path fill-rule="evenodd" clip-rule="evenodd" d="M13.7609 16.4058C13.4743 17.9068 13.1264 19.3464 12.0893 20.1037C11.7687 17.8317 12.5601 16.1261 12.9285 14.3112C12.3008 13.2605 13.0036 11.1387 14.2931 11.664C15.9169 12.3054 12.8876 15.5803 14.9207 15.9828C16.9539 16.3853 17.9091 12.2985 16.5923 10.9613C14.6956 9.03728 11.0591 10.9203 11.5026 13.6904C11.6117 14.3726 12.3145 14.5705 11.7823 15.5052C10.5679 15.2323 10.1994 14.2771 10.2472 12.9944C10.3202 12.0313 10.7314 11.125 11.4081 10.4358C12.0849 9.74664 12.9835 9.31892 13.9451 9.22831C16.2375 8.96905 18.3935 10.0675 18.721 12.2235C19.0553 14.6592 17.6839 17.2996 15.2346 17.1085C14.6887 17.0122 14.1793 16.7693 13.7609 16.4058Z" fill="white"/>
</svg>
