<svg width="37" height="37" viewBox="0 0 37 37" fill="none" xmlns="http://www.w3.org/2000/svg">
<path d="M18.5 36C28.165 36 36 28.165 36 18.5C36 8.83502 28.165 1 18.5 1C8.83502 1 1 8.83502 1 18.5C1 28.165 8.83502 36 18.5 36Z" stroke="white" stroke-width="1.17947" stroke-linecap="round" stroke-linejoin="round"/>
<path fill-rule="evenodd" clip-rule="evenodd" d="M17.1877 21.5617C16.6836 24.175 16.0716 26.6814 14.2474 28C13.6833 24.0443 15.0755 21.0746 15.7235 17.9148C14.6194 16.0855 15.8555 12.3912 18.1238 13.3059C20.98 14.4225 15.6515 20.1243 19.2279 20.8252C22.8042 21.526 24.4844 14.4106 22.1681 12.0823C18.8318 8.7325 12.4352 12.0111 13.2153 16.8339C13.4073 18.0218 14.6434 18.3662 13.7073 19.9936C11.5711 19.5185 10.9231 17.8555 11.0071 15.6222C11.1355 13.9454 11.8589 12.3674 13.0492 11.1675C14.2395 9.96755 15.8202 9.22286 17.5117 9.06511C21.5441 8.61371 25.3364 10.5262 25.9125 14.2799C26.5005 18.5207 24.0883 23.1178 19.7799 22.7852C18.8197 22.6175 17.9237 22.1946 17.1877 21.5617Z" fill="white"/>
</svg>
