<svg width="253" height="64" viewBox="0 0 253 64" fill="none" xmlns="http://www.w3.org/2000/svg">
<g clip-path="url(#clip0_0_7048)">
<path d="M164.495 63.6588C172.031 63.6588 178.14 57.5496 178.14 50.0134C178.14 42.4773 172.031 36.368 164.495 36.368C156.959 36.368 150.85 42.4773 150.85 50.0134C150.85 57.5496 156.959 63.6588 164.495 63.6588Z" stroke="white" stroke-linecap="round" stroke-linejoin="round"/>
<path fill-rule="evenodd" clip-rule="evenodd" d="M165.47 55.4716V50.6957C165.995 50.6957 166.528 50.6957 167.06 50.6957C167.169 50.0135 167.258 49.3721 167.367 48.7172H165.47C165.47 48.3624 165.47 48.0008 165.47 47.646C165.45 47.4148 165.48 47.1821 165.559 46.9637C165.61 46.8358 165.69 46.7217 165.793 46.6304C165.896 46.5392 166.019 46.4734 166.152 46.4384C166.277 46.4064 166.405 46.3881 166.534 46.3838H167.442V44.6713C166.844 44.5601 166.235 44.5166 165.627 44.5417C165.2 44.566 164.785 44.6948 164.419 44.9169C164.062 45.1381 163.779 45.4613 163.607 45.8448C163.41 46.2861 163.319 46.7674 163.341 47.2503C163.341 47.7347 163.341 48.2123 163.341 48.6967H161.574C161.574 49.379 161.574 50.0135 161.574 50.6753C162.161 50.6753 162.741 50.6753 163.328 50.6753V55.4512L165.47 55.4716Z" fill="white"/>
<path d="M126.493 63.6588C134.029 63.6588 140.138 57.5496 140.138 50.0134C140.138 42.4773 134.029 36.368 126.493 36.368C118.957 36.368 112.848 42.4773 112.848 50.0134C112.848 57.5496 118.957 63.6588 126.493 63.6588Z" stroke="white" stroke-linecap="round" stroke-linejoin="round"/>
<path fill-rule="evenodd" clip-rule="evenodd" d="M125.735 51.7737C125.448 53.2747 125.1 54.7143 124.063 55.4716C123.742 53.1997 124.534 51.494 124.902 49.6791C124.274 48.6284 124.977 46.5066 126.267 47.0319C127.89 47.6733 124.861 50.9482 126.894 51.3507C128.928 51.7532 129.883 47.6665 128.566 46.3292C126.669 44.4052 123.033 46.2883 123.476 49.0583C123.585 49.7406 124.288 49.9384 123.756 50.8731C122.541 50.6002 122.173 49.645 122.221 48.3624C122.294 47.3992 122.705 46.493 123.382 45.8038C124.058 45.1146 124.957 44.6868 125.919 44.5962C128.211 44.337 130.367 45.4354 130.695 47.5914C131.029 50.0271 129.658 52.6675 127.208 52.4765C126.662 52.3802 126.153 52.1373 125.735 51.7737Z" fill="white"/>
<path d="M202.224 63.6588C209.76 63.6588 215.869 57.5496 215.869 50.0134C215.869 42.4773 209.76 36.368 202.224 36.368C194.687 36.368 188.578 42.4773 188.578 50.0134C188.578 57.5496 194.687 63.6588 202.224 63.6588Z" stroke="white" stroke-linecap="round" stroke-linejoin="round"/>
<path fill-rule="evenodd" clip-rule="evenodd" d="M203.766 44.5553H200.689C200.174 44.5544 199.664 44.655 199.188 44.8514C198.712 45.0479 198.279 45.3362 197.915 45.6999C197.551 46.0637 197.262 46.4957 197.064 46.9713C196.867 47.4469 196.766 47.9567 196.766 48.4715V51.5486C196.766 52.589 197.179 53.5869 197.915 54.3226C198.65 55.0583 199.648 55.4716 200.689 55.4716H203.766C204.805 55.4698 205.801 55.0557 206.535 54.3202C207.27 53.5847 207.682 52.5879 207.682 51.5486V48.4715C207.682 47.9572 207.581 47.448 207.384 46.9729C207.187 46.4977 206.899 46.066 206.535 45.7023C206.171 45.3387 205.74 45.0502 205.264 44.8534C204.789 44.6566 204.28 44.5553 203.766 44.5553ZM202.224 52.3605C201.76 52.3605 201.306 52.2228 200.92 51.9649C200.534 51.707 200.233 51.3405 200.055 50.9116C199.878 50.4828 199.831 50.0109 199.922 49.5556C200.012 49.1003 200.236 48.6821 200.564 48.3539C200.892 48.0256 201.311 47.8021 201.766 47.7116C202.221 47.621 202.693 47.6675 203.122 47.8451C203.551 48.0228 203.917 48.3236 204.175 48.7095C204.433 49.0955 204.571 49.5493 204.571 50.0135C204.571 50.6359 204.324 51.2329 203.883 51.673C203.443 52.1132 202.846 52.3605 202.224 52.3605ZM204.953 47.2434C204.826 47.2434 204.702 47.2058 204.597 47.1354C204.491 47.0649 204.409 46.9647 204.36 46.8475C204.312 46.7304 204.299 46.6014 204.324 46.477C204.349 46.3526 204.41 46.2383 204.499 46.1486C204.589 46.0589 204.703 45.9978 204.828 45.9731C204.952 45.9484 205.081 45.9611 205.198 46.0096C205.315 46.0581 205.416 46.1403 205.486 46.2458C205.557 46.3513 205.594 46.4753 205.594 46.6021C205.592 46.7717 205.524 46.9338 205.404 47.0536C205.285 47.1735 205.122 47.2417 204.953 47.2434Z" fill="white"/>
<path d="M239.013 63.6588C246.549 63.6588 252.658 57.5496 252.658 50.0134C252.658 42.4773 246.549 36.368 239.013 36.368C231.476 36.368 225.367 42.4773 225.367 50.0134C225.367 57.5496 231.476 63.6588 239.013 63.6588Z" stroke="white" stroke-linecap="round" stroke-linejoin="round"/>
<path fill-rule="evenodd" clip-rule="evenodd" d="M245.576 46.7181C245.496 46.4335 245.344 46.1743 245.135 45.9652C244.926 45.7561 244.667 45.6043 244.382 45.5242C243.304 45.2103 239.006 45.2103 239.006 45.2103C239.006 45.2103 234.748 45.2103 233.718 45.4832C233.43 45.557 233.168 45.7068 232.958 45.9168C232.748 46.1269 232.598 46.3895 232.524 46.6772C232.303 47.7662 232.196 48.8751 232.204 49.9862C232.196 51.0796 232.29 52.1713 232.483 53.2475C232.562 53.5327 232.714 53.7926 232.923 54.0018C233.132 54.2111 233.392 54.3625 233.677 54.4414C234.748 54.7621 239.006 54.7621 239.006 54.7621C239.006 54.7621 243.27 54.7621 244.341 54.4824C244.626 54.4023 244.885 54.2504 245.094 54.0414C245.303 53.8323 245.455 53.573 245.535 53.2884C245.727 52.2098 245.821 51.1159 245.815 50.0203C245.843 48.9144 245.763 47.8084 245.576 46.7181ZM237.655 52.0399V47.9462L241.196 49.993L237.655 52.0399Z" fill="white"/>
</g>
<path d="M14.495 37.3914C17.0589 37.3914 19.5652 38.1517 21.697 39.5761C23.8287 41.0005 25.4902 43.025 26.4714 45.3937C27.4525 47.7624 27.7093 50.3689 27.2091 52.8835C26.7089 55.3981 25.4743 57.7079 23.6613 59.5208C21.8484 61.3338 19.5386 62.5684 17.024 63.0686C14.5094 63.5687 11.9029 63.312 9.53424 62.3309C7.16554 61.3497 5.14098 59.6882 3.71657 57.5564C2.29216 55.4247 1.53189 52.9184 1.53189 50.3545C1.53189 46.9165 2.89764 43.6193 5.3287 41.1882C7.75976 38.7571 11.057 37.3914 14.495 37.3914ZM14.495 36.7091C11.7962 36.7091 9.15801 37.5094 6.91404 39.0088C4.67006 40.5081 2.9211 42.6393 1.88831 45.1326C0.855523 47.626 0.585297 50.3697 1.11181 53.0166C1.63832 55.6636 2.93792 58.0949 4.84626 60.0033C6.75461 61.9116 9.18598 63.2112 11.8329 63.7377C14.4799 64.2642 17.2235 63.994 19.7169 62.9612C22.2103 61.9284 24.3414 60.1795 25.8408 57.9355C27.3401 55.6915 28.1404 53.0533 28.1404 50.3545C28.1404 46.7355 26.7028 43.2648 24.1438 40.7058C21.5848 38.1467 18.114 36.7091 14.495 36.7091Z" fill="white"/>
<path fill-rule="evenodd" clip-rule="evenodd" d="M14.4534 42.8497C13.0992 42.8517 11.7698 43.2129 10.6008 43.8965C9.43173 44.58 8.46496 45.5615 7.79907 46.7406C7.13319 47.9198 6.79202 49.2545 6.81039 50.6086C6.82875 51.9627 7.20598 53.2876 7.9036 54.4483L6.53906 58.5419L10.7691 57.1774C11.7896 57.742 12.9258 58.0656 14.0907 58.1232C15.2555 58.1809 16.4181 57.9712 17.4894 57.5101C18.5607 57.049 19.5122 56.3489 20.2711 55.4633C21.0299 54.5776 21.576 53.5301 21.8675 52.4008C22.159 51.2715 22.1881 50.0905 21.9526 48.9483C21.7171 47.806 21.2233 46.7328 20.5089 45.8109C19.7946 44.889 18.8787 44.1428 17.8314 43.6295C16.7842 43.1162 15.6333 42.8495 14.467 42.8497H14.4534Z" stroke="white" stroke-linecap="round" stroke-linejoin="round"/>
<path fill-rule="evenodd" clip-rule="evenodd" d="M12.4418 47.3321C12.319 47.0319 12.2234 47.0251 12.0324 47.0115H11.8141C11.6911 47.0021 11.5676 47.0172 11.4505 47.0559C11.3334 47.0945 11.2251 47.1559 11.1318 47.2366C10.9125 47.4327 10.738 47.6738 10.6203 47.9434C10.5025 48.213 10.4443 48.5049 10.4495 48.799C10.5122 49.505 10.7776 50.1779 11.2137 50.7367C12.0048 51.9523 13.1106 52.9308 14.4135 53.5681C15.8941 54.1753 16.3307 54.1207 16.665 54.0525C16.9413 54.0128 17.2049 53.9104 17.4355 53.7531C17.6661 53.5959 17.8577 53.3878 17.9955 53.1451C18.1192 52.8644 18.1571 52.5535 18.1046 52.2513C18.0637 52.1763 17.934 52.1285 17.7498 52.033C17.5656 51.9375 16.6377 51.4872 16.4672 51.4258C16.3864 51.3887 16.2949 51.3821 16.2097 51.4072C16.1244 51.4323 16.0511 51.4873 16.0032 51.5622C15.8497 51.7985 15.6835 52.0263 15.5052 52.2445C15.4452 52.3014 15.3692 52.3385 15.2874 52.3507C15.2056 52.3629 15.122 52.3497 15.048 52.3127C14.4906 52.1029 13.9787 51.7879 13.5402 51.3848C13.1307 51.0061 12.779 50.5694 12.4964 50.0885C12.3872 49.8975 12.4964 49.7883 12.5714 49.686C12.6465 49.5836 12.7556 49.4881 12.8511 49.3789C12.9336 49.2919 13.0026 49.193 13.0558 49.0856C13.0834 49.0317 13.0977 48.9721 13.0977 48.9116C13.0977 48.8511 13.0834 48.7915 13.0558 48.7376C12.9739 48.6284 12.5987 47.7074 12.4418 47.3321Z" stroke="white" stroke-linecap="round" stroke-linejoin="round"/>
<path d="M89.9755 62.9766C97.5116 62.9766 103.621 56.8673 103.621 49.3312C103.621 41.795 97.5116 35.6858 89.9755 35.6858C82.4393 35.6858 76.3301 41.795 76.3301 49.3312C76.3301 56.8673 82.4393 62.9766 89.9755 62.9766Z" stroke="white" stroke-linecap="round" stroke-linejoin="round"/>
<path d="M94.3013 43.8731C94.5332 43.857 94.7633 43.9248 94.9494 44.0642H94.9835C95.2828 44.3444 95.5186 44.6854 95.6751 45.0643C95.8317 45.4433 95.9052 45.8513 95.891 46.2611C95.7852 47.3389 95.3732 48.364 94.7038 49.2153L94.6219 49.3245C93.3592 51.3041 91.5646 52.8883 89.4435 53.8957C88.4996 54.3525 87.4841 54.6433 86.4415 54.7553C86.2736 54.7554 86.1063 54.7348 85.9434 54.6939C85.5995 54.6321 85.272 54.4995 84.982 54.3045C84.6919 54.1096 84.4454 53.8565 84.2582 53.5614C84.1458 53.2591 84.0791 52.9418 84.0604 52.6198L84.1627 52.5721L84.3538 52.4834C84.8996 52.2036 86.2778 51.535 86.4961 51.4531L86.6871 51.7261C86.911 52.0585 87.1572 52.3753 87.424 52.6744C87.5469 52.806 87.6959 52.9105 87.8616 52.981C88.0273 53.0515 88.2059 53.0865 88.386 53.0838C88.5876 53.0806 88.7868 53.0389 88.9727 52.961L89.0819 52.9132C90.074 52.5217 90.9854 51.9504 91.77 51.228C92.5401 50.5385 93.2004 49.7356 93.7282 48.8469C93.864 48.6148 93.9189 48.3441 93.8844 48.0774C93.8498 47.8107 93.7276 47.563 93.5371 47.3732C93.4348 47.2504 93.3393 47.148 93.2437 47.0457C93.1482 46.9433 93.1141 46.9092 93.0459 46.8274C92.9635 46.7395 92.8904 46.6435 92.8276 46.5408V46.493C92.889 46.3771 93.0868 45.8995 93.5098 44.8078L93.8237 44.0437C93.8385 43.9992 93.8568 43.9558 93.8783 43.9141H94.274M94.274 43.2318H93.9055C93.5712 43.2318 93.4075 43.2318 93.1892 43.7776C92.9231 44.4599 92.2749 46.0291 92.193 46.1928C92.1397 46.2826 92.1076 46.3834 92.0993 46.4875C92.0911 46.5916 92.1068 46.6962 92.1453 46.7932C92.2394 46.9789 92.3614 47.1492 92.5069 47.2981C92.6706 47.4892 92.8207 47.6324 92.9913 47.8371C93.1619 48.0418 93.3051 48.2055 93.1209 48.5194C92.6295 49.3508 92.0205 50.1068 91.3129 50.7641C90.5606 51.4663 89.6836 52.0216 88.7271 52.4015C88.6253 52.4437 88.5166 52.4668 88.4064 52.4697C88.3191 52.4716 88.2323 52.4557 88.1513 52.4228C88.0704 52.39 87.997 52.3409 87.9357 52.2787C87.6277 51.9091 87.3385 51.5243 87.0692 51.1257C87.0146 51.0364 86.9386 50.9621 86.8481 50.9097C86.7575 50.8573 86.6553 50.8283 86.5507 50.8255C86.4527 50.8271 86.3558 50.8455 86.2641 50.88C85.9639 50.9892 84.3674 51.7738 84.0467 51.9376C83.7261 52.1013 83.5077 52.1832 83.4259 52.3196C83.3367 52.8406 83.4007 53.3763 83.6101 53.8616C83.8369 54.2684 84.1508 54.6201 84.5294 54.8914C84.9081 55.1627 85.342 55.3469 85.8002 55.4308C86.0102 55.4811 86.2255 55.5063 86.4415 55.5058C87.5758 55.4055 88.6816 55.0955 89.7028 54.5916C92.9777 53.227 95.0859 49.9044 95.2496 49.6929C96.009 48.7245 96.469 47.5555 96.5732 46.3293C96.5894 45.82 96.4968 45.3131 96.3015 44.8425C96.1061 44.3719 95.8127 43.9484 95.4406 43.6002C95.1265 43.3257 94.718 43.1838 94.3013 43.2045L94.274 43.2318Z" fill="white"/>
<path d="M52.1083 37.3914C54.6722 37.3914 57.1785 38.1517 59.3102 39.5761C61.442 41.0005 63.1035 43.025 64.0847 45.3937C65.0658 47.7624 65.3225 50.3689 64.8224 52.8835C64.3222 55.3981 63.0875 57.7079 61.2746 59.5208C59.4617 61.3338 57.1519 62.5684 54.6373 63.0686C52.1227 63.5687 49.5162 63.312 47.1475 62.3309C44.7788 61.3497 42.7543 59.6882 41.3299 57.5564C39.9054 55.4247 39.1452 52.9184 39.1452 50.3545C39.1452 46.9165 40.5109 43.6193 42.942 41.1882C45.373 38.7571 48.6703 37.3914 52.1083 37.3914ZM52.1083 36.7091C49.4095 36.7091 46.7713 37.5094 44.5273 39.0088C42.2833 40.5081 40.5344 42.6393 39.5016 45.1326C38.4688 47.626 38.1986 50.3697 38.7251 53.0166C39.2516 55.6636 40.5512 58.0949 42.4595 60.0033C44.3679 61.9116 46.7993 63.2112 49.4462 63.7377C52.0932 64.2642 54.8368 63.994 57.3302 62.9612C59.8235 61.9284 61.9547 60.1795 63.454 57.9355C64.9534 55.6915 65.7537 53.0533 65.7537 50.3545C65.7537 46.7355 64.3161 43.2648 61.7571 40.7058C59.198 38.1467 55.7273 36.7091 52.1083 36.7091Z" fill="white"/>
<path d="M57.7226 44.6985C58.0978 44.6985 58.4935 44.8691 58.4048 45.6059C58.3639 46.1586 58.0432 48.0962 57.7226 50.1908C57.245 53.1587 56.7333 56.3994 56.7333 56.3994C56.7333 56.3994 56.6582 57.3069 55.9828 57.4638C55.9125 57.4708 55.8416 57.4708 55.7713 57.4638C55.1287 57.3742 54.5201 57.1204 54.0042 56.7269C53.8473 56.6109 51.0431 54.8302 50.0129 53.9569C49.9141 53.8851 49.8345 53.79 49.7812 53.6801C49.7279 53.5701 49.7024 53.4488 49.7072 53.3267C49.7119 53.2046 49.7466 53.0856 49.8083 52.9801C49.8699 52.8747 49.9566 52.786 50.0607 52.722C51.4866 51.4189 53.1855 49.7951 54.2089 48.7648C54.5159 48.4578 54.8229 47.8847 54.4681 47.8847C53.9951 47.9957 53.5554 48.2179 53.1855 48.5329C50.3745 50.4705 47.6113 52.2854 47.6113 52.2854C47.3397 52.4249 47.0362 52.4907 46.7312 52.4764C46.4118 52.4718 46.0947 52.4212 45.7897 52.3263C44.6025 51.9715 43.238 51.4939 43.238 51.4939C43.238 51.4939 42.2828 50.9003 43.9202 50.2727C43.9202 50.2727 50.7429 47.4617 53.1309 46.4724C54.0383 46.0767 57.1222 44.8145 57.1222 44.8145C57.3145 44.743 57.5174 44.7038 57.7226 44.6985ZM57.7226 44.0162C57.4334 44.0322 57.1493 44.0992 56.8834 44.2141C56.7469 44.2687 53.7722 45.4899 52.8648 45.8857C50.5246 46.8204 43.7292 49.6109 43.661 49.6723C43.354 49.7951 42.3715 50.1771 42.2964 51.0368C42.2854 51.2576 42.3348 51.4772 42.4394 51.672C42.544 51.8668 42.6998 52.0293 42.89 52.1421L42.9514 52.183H43.0265C43.0265 52.183 44.4388 52.6674 45.6191 53.0222C45.9886 53.1348 46.3722 53.1945 46.7585 53.1996C47.1995 53.2042 47.6335 53.0886 48.0139 52.8653C48.0139 52.8653 49.4739 51.9033 51.3092 50.6615C50.7429 51.2005 50.1698 51.7327 49.6377 52.2171C49.4608 52.3571 49.3167 52.5341 49.2153 52.7356C49.114 52.9371 49.0578 53.1583 49.0509 53.3838C49.0581 53.6003 49.1126 53.8126 49.2104 54.0059C49.3082 54.1991 49.447 54.3687 49.6172 54.5027C50.4564 55.185 52.3463 56.4472 53.2469 57.0408L53.6494 57.3C54.2818 57.7794 55.0309 58.081 55.819 58.1733C55.943 58.174 56.0666 58.1603 56.1875 58.1324C56.5372 58.0176 56.8442 57.7998 57.0682 57.5077C57.2922 57.2155 57.4227 56.8625 57.4428 56.495C57.4906 56.2152 57.975 53.1382 58.4321 50.3136C58.5208 49.7268 58.6095 49.1537 58.6914 48.6284C58.9097 47.2093 59.0803 46.0972 59.1076 45.6673C59.1409 45.4523 59.1276 45.2326 59.0688 45.0231C59.0099 44.8136 58.9068 44.6191 58.7664 44.4529C58.6326 44.3121 58.4702 44.2016 58.2902 44.1287C58.1102 44.0557 57.9166 44.022 57.7226 44.0299V44.0162Z" fill="white"/>
<defs>
<clipPath id="clip0_0_7048">
<rect width="140.493" height="63.6763" fill="white" transform="translate(112.506 0.32373)"/>
</clipPath>
</defs>
</svg>
