<svg width="110" height="53" viewBox="0 0 110 53" fill="none" xmlns="http://www.w3.org/2000/svg">
<g clip-path="url(#clip0_146_48)">
<path d="M41.2174 52.4499C47.0674 52.4499 51.8098 47.7075 51.8098 41.8575C51.8098 36.0075 47.0674 31.2651 41.2174 31.2651C35.3674 31.2651 30.625 36.0075 30.625 41.8575C30.625 47.7075 35.3674 52.4499 41.2174 52.4499Z" stroke="white" stroke-width="0.847843" stroke-linecap="round" stroke-linejoin="round"/>
<path fill-rule="evenodd" clip-rule="evenodd" d="M41.9743 46.0945V42.3871C42.3821 42.3871 42.7952 42.3871 43.2083 42.3871C43.2931 41.8575 43.3619 41.3597 43.4467 40.8512H41.9743C41.9743 40.5758 41.9743 40.2951 41.9743 40.0197C41.9589 39.8403 41.9823 39.6596 42.0432 39.4901C42.0827 39.3908 42.145 39.3022 42.2251 39.2314C42.3051 39.1606 42.4006 39.1095 42.5039 39.0823C42.601 39.0575 42.7004 39.0433 42.8005 39.0399H43.5049V37.7106C43.0406 37.6243 42.568 37.5905 42.0961 37.6099C41.7645 37.6288 41.4426 37.7289 41.1587 37.9012C40.8813 38.0729 40.6618 38.3238 40.5285 38.6215C40.3754 38.9641 40.3047 39.3377 40.3219 39.7125C40.3219 40.0886 40.3219 40.4593 40.3219 40.8353H38.9502C38.9502 41.365 38.9502 41.8575 38.9502 42.3712C39.4057 42.3712 39.8558 42.3712 40.3113 42.3712V46.0786L41.9743 46.0945Z" fill="white"/>
<path d="M11.7174 52.4499C17.5674 52.4499 22.3098 47.7075 22.3098 41.8575C22.3098 36.0075 17.5674 31.2651 11.7174 31.2651C5.86738 31.2651 1.125 36.0075 1.125 41.8575C1.125 47.7075 5.86738 52.4499 11.7174 52.4499Z" stroke="white" stroke-width="0.847843" stroke-linecap="round" stroke-linejoin="round"/>
<path fill-rule="evenodd" clip-rule="evenodd" d="M11.1301 43.2239C10.9076 44.3891 10.6375 45.5066 9.83252 46.0945C9.5836 44.3308 10.198 43.0068 10.484 41.598C9.9967 40.7824 10.5422 39.1353 11.5432 39.5431C12.8037 40.0409 10.4522 42.5831 12.0304 42.8956C13.6087 43.208 14.3502 40.0356 13.328 38.9976C11.8557 37.504 9.03279 38.9658 9.37705 41.116C9.46178 41.6457 10.0073 41.7992 9.59419 42.5248C8.65147 42.313 8.36547 41.5715 8.40254 40.5758C8.45922 39.8282 8.77843 39.1247 9.30374 38.5897C9.82905 38.0547 10.5266 37.7227 11.2731 37.6523C13.0526 37.4511 14.7262 38.3038 14.9804 39.9774C15.2399 41.8681 14.1754 43.9177 12.2741 43.7694C11.8503 43.6947 11.4549 43.5061 11.1301 43.2239Z" fill="white"/>
<path d="M70.5055 52.4499C76.3555 52.4499 81.0979 47.7075 81.0979 41.8575C81.0979 36.0075 76.3555 31.2651 70.5055 31.2651C64.6555 31.2651 59.9131 36.0075 59.9131 41.8575C59.9131 47.7075 64.6555 52.4499 70.5055 52.4499Z" stroke="white" stroke-width="0.847843" stroke-linecap="round" stroke-linejoin="round"/>
<path fill-rule="evenodd" clip-rule="evenodd" d="M71.7025 37.6205H69.3139C68.9142 37.6199 68.5183 37.698 68.1489 37.8504C67.7794 38.0029 67.4437 38.2267 67.1608 38.5091C66.878 38.7914 66.6536 39.1268 66.5005 39.496C66.3474 39.8652 66.2686 40.2609 66.2686 40.6606V43.0492C66.2686 43.8568 66.5894 44.6314 67.1605 45.2025C67.7316 45.7736 68.5062 46.0945 69.3139 46.0945H71.7025C72.5092 46.0931 73.2824 45.7716 73.8524 45.2007C74.4224 44.6297 74.7425 43.8559 74.7425 43.0492V40.6606C74.7425 40.2613 74.6639 39.866 74.5111 39.4972C74.3583 39.1284 74.1344 38.7932 73.8521 38.5109C73.5698 38.2287 73.2347 38.0047 72.8658 37.852C72.497 37.6992 72.1017 37.6205 71.7025 37.6205ZM70.5055 43.6794C70.1452 43.6794 69.7929 43.5726 69.4933 43.3724C69.1937 43.1722 68.9602 42.8876 68.8223 42.5547C68.6844 42.2218 68.6483 41.8555 68.7186 41.5021C68.7889 41.1487 68.9624 40.824 69.2172 40.5692C69.472 40.3144 69.7967 40.1409 70.1501 40.0706C70.5035 40.0003 70.8698 40.0364 71.2027 40.1743C71.5356 40.3122 71.8202 40.5457 72.0204 40.8453C72.2206 41.1449 72.3274 41.4972 72.3274 41.8575C72.3274 42.3407 72.1355 42.8041 71.7938 43.1458C71.4521 43.4875 70.9887 43.6794 70.5055 43.6794ZM72.624 39.7073C72.5255 39.7073 72.4293 39.6781 72.3474 39.6233C72.2655 39.5686 72.2017 39.4909 72.1641 39.3999C72.1264 39.309 72.1165 39.2089 72.1357 39.1123C72.1549 39.0157 72.2023 38.927 72.272 38.8574C72.3416 38.7878 72.4303 38.7403 72.5269 38.7211C72.6234 38.7019 72.7235 38.7118 72.8145 38.7495C72.9055 38.7871 72.9832 38.851 73.0379 38.9328C73.0926 39.0147 73.1218 39.1109 73.1218 39.2094C73.1205 39.341 73.0676 39.4668 72.9745 39.5599C72.8814 39.653 72.7556 39.7059 72.624 39.7073Z" fill="white"/>
<path d="M99.0631 52.4499C104.913 52.4499 109.656 47.7075 109.656 41.8575C109.656 36.0075 104.913 31.2651 99.0631 31.2651C93.2131 31.2651 88.4707 36.0075 88.4707 41.8575C88.4707 47.7075 93.2131 52.4499 99.0631 52.4499Z" stroke="white" stroke-width="0.847843" stroke-linecap="round" stroke-linejoin="round"/>
<path fill-rule="evenodd" clip-rule="evenodd" d="M104.158 39.2994C104.096 39.0785 103.978 38.8772 103.816 38.7149C103.654 38.5527 103.452 38.4348 103.231 38.3726C102.395 38.129 99.058 38.129 99.058 38.129C99.058 38.129 95.7531 38.129 94.9534 38.3408C94.7301 38.3981 94.5262 38.5144 94.3632 38.6774C94.2001 38.8404 94.0839 39.0443 94.0266 39.2677C93.8552 40.113 93.7718 40.9738 93.7777 41.8363C93.7719 42.6851 93.8446 43.5325 93.9948 44.3679C94.0561 44.5893 94.1736 44.7911 94.3361 44.9535C94.4985 45.1159 94.7002 45.2335 94.9216 45.2947C95.7532 45.5437 99.058 45.5437 99.058 45.5437C99.058 45.5437 102.368 45.5436 103.2 45.3265C103.421 45.2643 103.622 45.1464 103.784 44.9842C103.946 44.8219 104.064 44.6206 104.126 44.3997C104.276 43.5624 104.348 42.7133 104.344 41.8628C104.366 41.0043 104.304 40.1458 104.158 39.2994ZM98.0093 43.4305V40.2527L100.758 41.8416L98.0093 43.4305Z" fill="white"/>
</g>
<path d="M40.317 2.33467C42.3073 2.33467 44.2528 2.92485 45.9076 4.03056C47.5624 5.13627 48.8522 6.70786 49.6138 8.5466C50.3754 10.3853 50.5747 12.4086 50.1864 14.3606C49.7982 16.3126 48.8398 18.1056 47.4325 19.5129C46.0252 20.9202 44.2322 21.8786 42.2802 22.2669C40.3282 22.6552 38.3049 22.4559 36.4662 21.6943C34.6274 20.9326 33.0558 19.6429 31.9501 17.988C30.8444 16.3332 30.2542 14.3877 30.2542 12.3975C30.2542 9.72864 31.3144 7.16913 33.2016 5.282C35.0887 3.39486 37.6482 2.33467 40.317 2.33467ZM40.317 1.80505C38.222 1.80505 36.1741 2.42629 34.4322 3.5902C32.6903 4.7541 31.3326 6.40841 30.5309 8.34392C29.7292 10.2794 29.5194 12.4092 29.9281 14.4639C30.3369 16.5187 31.3457 18.406 32.8271 19.8874C34.3084 21.3688 36.1958 22.3776 38.2505 22.7863C40.3053 23.195 42.435 22.9853 44.3706 22.1836C46.3061 21.3819 47.9604 20.0242 49.1243 18.2823C50.2882 16.5404 50.9094 14.4924 50.9094 12.3975C50.9094 11.0064 50.6354 9.62905 50.1031 8.34392C49.5708 7.05879 48.7906 5.89109 47.807 4.9075C46.8234 3.9239 45.6557 3.14367 44.3706 2.61135C43.0854 2.07903 41.708 1.80505 40.317 1.80505Z" fill="white"/>
<path fill-rule="evenodd" clip-rule="evenodd" d="M40.2852 6.57166C39.234 6.57321 38.202 6.8536 37.2945 7.38422C36.3871 7.91483 35.6366 8.67668 35.1197 9.59202C34.6028 10.5074 34.338 11.5435 34.3522 12.5946C34.3665 13.6457 34.6593 14.6742 35.2008 15.5752L34.1416 18.7529L37.4252 17.6937C38.2174 18.132 39.0994 18.3831 40.0036 18.4279C40.9079 18.4727 41.8103 18.3099 42.6419 17.9519C43.4735 17.594 44.2122 17.0505 44.8012 16.3631C45.3903 15.6756 45.8142 14.8624 46.0405 13.9858C46.2667 13.1092 46.2893 12.1924 46.1065 11.3057C45.9237 10.419 45.5404 9.58593 44.9859 8.87028C44.4314 8.15463 43.7204 7.5754 42.9074 7.17697C42.0945 6.77854 41.2011 6.57148 40.2958 6.57166H40.2852Z" stroke="white" stroke-width="0.847843" stroke-linecap="round" stroke-linejoin="round"/>
<path fill-rule="evenodd" clip-rule="evenodd" d="M38.7225 10.0513C38.6272 9.81826 38.553 9.81296 38.4048 9.80237H38.2353C38.1398 9.79513 38.0439 9.80685 37.953 9.83684C37.8621 9.86684 37.778 9.91452 37.7057 9.97715C37.5354 10.1294 37.4 10.3165 37.3086 10.5258C37.2172 10.7351 37.172 10.9616 37.176 11.19C37.2247 11.738 37.4307 12.2604 37.7692 12.6941C38.3833 13.6378 39.2417 14.3974 40.2531 14.892C41.4024 15.3634 41.7414 15.321 42.0009 15.2681C42.2154 15.2373 42.42 15.1578 42.599 15.0357C42.778 14.9136 42.9267 14.7521 43.0336 14.5637C43.1297 14.3458 43.1591 14.1044 43.1184 13.8699C43.0866 13.8116 42.986 13.7745 42.843 13.7004C42.7 13.6262 41.9797 13.2767 41.8473 13.229C41.7846 13.2003 41.7136 13.1952 41.6474 13.2146C41.5812 13.2341 41.5243 13.2768 41.4871 13.3349C41.368 13.5184 41.2389 13.6952 41.1005 13.8646C41.054 13.9088 40.9949 13.9376 40.9315 13.947C40.868 13.9565 40.8031 13.9462 40.7457 13.9175C40.313 13.7547 39.9156 13.5101 39.5752 13.1972C39.2573 12.9033 38.9843 12.5642 38.7649 12.191C38.6802 12.0427 38.7649 11.9579 38.8232 11.8785C38.8814 11.799 38.9661 11.7249 39.0403 11.6402C39.1043 11.5726 39.1579 11.4958 39.1992 11.4124C39.2206 11.3706 39.2317 11.3243 39.2317 11.2774C39.2317 11.2304 39.2206 11.1841 39.1992 11.1423C39.1356 11.0576 38.8443 10.3426 38.7225 10.0513Z" stroke="white" stroke-width="0.847843" stroke-linecap="round" stroke-linejoin="round"/>
<path d="M98.9088 22.1954C104.759 22.1954 109.501 17.4531 109.501 11.603C109.501 5.753 104.759 1.01062 98.9088 1.01062C93.0588 1.01062 88.3164 5.753 88.3164 11.603C88.3164 17.4531 93.0588 22.1954 98.9088 22.1954Z" stroke="white" stroke-width="0.847843" stroke-linecap="round" stroke-linejoin="round"/>
<path d="M102.266 7.36603C102.447 7.35347 102.625 7.40611 102.77 7.51432H102.796C103.028 7.73184 103.211 7.99658 103.333 8.29073C103.454 8.58488 103.512 8.90163 103.501 9.2197C103.418 10.0564 103.099 10.8521 102.579 11.513L102.515 11.5977C101.535 13.1344 100.142 14.3642 98.4956 15.1462C97.7629 15.5008 96.9746 15.7265 96.1653 15.8135C96.0349 15.8135 95.9051 15.7975 95.7786 15.7658C95.5116 15.7178 95.2574 15.6149 95.0323 15.4635C94.8071 15.3122 94.6158 15.1158 94.4705 14.8866C94.3832 14.652 94.3314 14.4057 94.3169 14.1558L94.3963 14.1187L94.5446 14.0498C94.9683 13.8327 96.0381 13.3137 96.2076 13.2501L96.3559 13.462C96.5297 13.72 96.7208 13.9659 96.9279 14.1981C97.0233 14.3003 97.139 14.3814 97.2676 14.4361C97.3963 14.4908 97.5349 14.518 97.6747 14.5159C97.8312 14.5134 97.9858 14.4811 98.1302 14.4206L98.2149 14.3835C98.985 14.0796 99.6925 13.6361 100.302 13.0753C100.899 12.5401 101.412 11.9168 101.822 11.227C101.927 11.0468 101.97 10.8367 101.943 10.6296C101.916 10.4226 101.821 10.2303 101.673 10.083C101.594 9.98765 101.52 9.90821 101.446 9.82876C101.371 9.74932 101.345 9.72284 101.292 9.65928C101.228 9.5911 101.171 9.51657 101.123 9.43684V9.39977C101.17 9.30973 101.324 8.939 101.652 8.09161L101.896 7.49843C101.907 7.46386 101.921 7.43022 101.938 7.39781H102.245M102.245 6.86818H101.959C101.7 6.86818 101.573 6.86818 101.403 7.29188C101.197 7.8215 100.694 9.03963 100.63 9.16674C100.589 9.23641 100.564 9.31465 100.557 9.39546C100.551 9.47626 100.563 9.55746 100.593 9.6328C100.666 9.77696 100.761 9.90912 100.874 10.0247C101.001 10.173 101.117 10.2842 101.25 10.4431C101.382 10.602 101.493 10.7291 101.35 10.9727C100.969 11.6181 100.496 12.205 99.9468 12.7152C99.3627 13.2603 98.682 13.6914 97.9395 13.9863C97.8605 14.019 97.7761 14.037 97.6906 14.0392C97.6228 14.0407 97.5554 14.0283 97.4925 14.0028C97.4297 13.9773 97.3727 13.9393 97.3251 13.8909C97.086 13.6041 96.8616 13.3053 96.6525 12.9959C96.6102 12.9266 96.5512 12.8689 96.4809 12.8282C96.4106 12.7876 96.3312 12.7651 96.25 12.7629C96.174 12.7641 96.0987 12.7784 96.0276 12.8052C95.7945 12.89 94.5552 13.499 94.3063 13.6261C94.0574 13.7532 93.8879 13.8168 93.8243 13.9227C93.7551 14.3271 93.8048 14.743 93.9673 15.1197C94.1434 15.4355 94.3871 15.7085 94.681 15.9191C94.9749 16.1297 95.3118 16.2727 95.6674 16.3378C95.8305 16.3768 95.9976 16.3964 96.1653 16.3961C97.0458 16.3181 97.9042 16.0775 98.6969 15.6864C101.239 14.6271 102.876 12.0479 103.003 11.8837C103.592 11.132 103.949 10.2245 104.03 9.27266C104.043 8.87733 103.971 8.48386 103.819 8.11854C103.668 7.75322 103.44 7.42445 103.151 7.15418C102.907 6.94106 102.59 6.83093 102.266 6.847L102.245 6.86818Z" fill="white"/>
<path d="M69.5153 2.33467C71.5055 2.33467 73.451 2.92485 75.1058 4.03056C76.7607 5.13627 78.0504 6.70786 78.8121 8.5466C79.5737 10.3853 79.773 12.4086 79.3847 14.3606C78.9964 16.3126 78.038 18.1056 76.6307 19.5129C75.2234 20.9202 73.4304 21.8786 71.4784 22.2669C69.5264 22.6552 67.5031 22.4559 65.6644 21.6943C63.8257 20.9326 62.2541 19.6429 61.1484 17.988C60.0426 16.3332 59.4525 14.3877 59.4525 12.3975C59.4525 9.72864 60.5127 7.16913 62.3998 5.282C64.2869 3.39486 66.8464 2.33467 69.5153 2.33467ZM69.5153 1.80505C67.4203 1.80505 65.3723 2.42629 63.6304 3.5902C61.8885 4.7541 60.5309 6.40841 59.7292 8.34392C58.9274 10.2794 58.7177 12.4092 59.1264 14.4639C59.5351 16.5187 60.5439 18.406 62.0253 19.8874C63.5067 21.3688 65.3941 22.3776 67.4488 22.7863C69.5035 23.195 71.6333 22.9853 73.5688 22.1836C75.5043 21.3819 77.1586 20.0242 78.3225 18.2823C79.4864 16.5404 80.1077 14.4924 80.1077 12.3975C80.1077 9.58818 78.9917 6.89396 77.0052 4.9075C75.0188 2.92104 72.3245 1.80505 69.5153 1.80505Z" fill="white"/>
<path d="M73.8739 8.00692C74.1652 8.00692 74.4724 8.13932 74.4035 8.71131C74.3718 9.1403 74.1228 10.6444 73.8739 12.2704C73.5032 14.5742 73.106 17.0899 73.106 17.0899C73.106 17.0899 73.0477 17.7943 72.5234 17.9161C72.4688 17.9216 72.4138 17.9216 72.3592 17.9161C71.8604 17.8466 71.3879 17.6496 70.9875 17.3441C70.8657 17.2541 68.6889 15.8718 67.8892 15.1939C67.8076 15.1394 67.7413 15.065 67.6964 14.9777C67.6516 14.8904 67.6297 14.7932 67.6329 14.6951C67.6361 14.5971 67.6642 14.5015 67.7146 14.4173C67.765 14.3331 67.836 14.2632 67.921 14.2141C69.0279 13.2025 70.3466 11.942 71.1411 11.1423C71.3794 10.9039 71.6177 10.4591 71.3423 10.4591C70.9752 10.5453 70.6338 10.7177 70.3466 10.9622C68.1646 12.4663 66.0196 13.8751 66.0196 13.8751C65.8088 13.9834 65.5732 14.0345 65.3364 14.0234C65.0885 14.0198 64.8423 13.9806 64.6056 13.9069C63.6893 13.6527 62.6301 13.2819 62.6301 13.2819C62.6301 13.2819 61.8886 12.8212 63.1597 12.3339C63.1597 12.3339 68.4559 10.1519 70.3096 9.38393C71.014 9.07675 73.4078 8.09695 73.4078 8.09695C73.5572 8.04147 73.7147 8.01105 73.8739 8.00692ZM73.8739 7.47729C73.6494 7.48968 73.4289 7.54168 73.2225 7.63089C73.1166 7.67325 70.8074 8.62128 70.103 8.92846C68.2917 9.68052 63.0167 11.8467 62.9637 11.8678C62.7254 11.9632 61.9628 12.2598 61.9045 12.9271C61.8959 13.0985 61.9343 13.269 62.0155 13.4202C62.0967 13.5714 62.2176 13.6975 62.3653 13.7851L62.4129 13.8168H62.4712C62.4712 13.8168 63.5675 14.1929 64.4837 14.4683C64.7706 14.5557 65.0684 14.602 65.3682 14.606C65.7041 14.6173 66.0369 14.5387 66.3321 14.3782C66.3321 14.3782 67.4655 13.6315 68.8902 12.6676C68.4506 13.086 68.0057 13.4991 67.5926 13.8751C67.4553 13.9838 67.3434 14.1211 67.2648 14.2776C67.1861 14.434 67.1425 14.6057 67.1371 14.7808C67.1427 14.9488 67.185 15.1136 67.2609 15.2636C67.3368 15.4137 67.4446 15.5453 67.5767 15.6493C68.2282 16.179 69.6952 17.1588 70.3943 17.6195L70.7068 17.8208C71.1977 18.1929 71.7792 18.427 72.391 18.4987C72.4872 18.4992 72.5832 18.4885 72.677 18.4669C72.9544 18.3767 73.1972 18.2033 73.3726 17.9702C73.5479 17.737 73.6471 17.4556 73.6568 17.164C73.6938 16.9469 74.0699 14.5583 74.4247 12.3657C74.4936 11.9102 74.5624 11.4653 74.626 11.0575C74.7954 9.95592 74.9279 9.09264 74.949 8.75898C74.9749 8.59204 74.9646 8.42151 74.9189 8.25888C74.8733 8.09625 74.7932 7.94531 74.6842 7.81625C74.5803 7.707 74.4543 7.62119 74.3145 7.56456C74.1748 7.50794 74.0246 7.48179 73.8739 7.48789V7.47729Z" fill="white"/>
<defs>
<clipPath id="clip0_146_48">
<rect width="109.059" height="49.4295" fill="white" transform="translate(0.860352 3.28528)"/>
</clipPath>
</defs>
</svg>
