<svg width="29" height="29" viewBox="0 0 29 29" fill="none" xmlns="http://www.w3.org/2000/svg">
<path d="M14.6454 28.2908C22.1816 28.2908 28.2908 22.1816 28.2908 14.6454C28.2908 7.10925 22.1816 1 14.6454 1C7.10926 1 1 7.10925 1 14.6454C1 22.1816 7.10926 28.2908 14.6454 28.2908Z" stroke="#252525" stroke-linecap="round" stroke-linejoin="round"/>
<path d="M19.873 9.32973C20.2482 9.32973 20.6439 9.5003 20.5552 10.2372C20.5143 10.7898 20.1936 12.7274 19.873 14.822C19.3954 17.7899 18.8837 21.0307 18.8837 21.0307C18.8837 21.0307 18.8086 21.9381 18.1332 22.095C18.0628 22.1021 17.992 22.1021 17.9217 22.095C17.2791 22.0054 16.6705 21.7516 16.1546 21.3582C15.9977 21.2422 13.1935 19.4614 12.1633 18.5881C12.0645 18.5163 11.9849 18.4212 11.9316 18.3113C11.8783 18.2014 11.8528 18.08 11.8576 17.9579C11.8623 17.8359 11.897 17.7168 11.9587 17.6114C12.0203 17.5059 12.107 17.4172 12.2111 17.3532C13.637 16.0501 15.3359 14.4263 16.3593 13.3961C16.6663 13.089 16.9733 12.5159 16.6185 12.5159C16.1455 12.627 15.7058 12.8492 15.3359 13.1641C12.5249 15.1017 9.76171 16.9166 9.76171 16.9166C9.49008 17.0561 9.18662 17.122 8.88158 17.1076C8.56216 17.103 8.24507 17.0525 7.94005 16.9575C6.7529 16.6027 5.38836 16.1251 5.38836 16.1251C5.38836 16.1251 4.43318 15.5316 6.07063 14.9039C6.07063 14.9039 12.8933 12.0929 15.2813 11.1036C16.1887 10.7079 19.2726 9.44572 19.2726 9.44572C19.4649 9.37424 19.6678 9.33505 19.873 9.32973ZM19.873 8.64746C19.5837 8.66342 19.2996 8.7304 19.0338 8.84532C18.8973 8.8999 15.9226 10.1212 15.0152 10.5169C12.675 11.4516 5.8796 14.2421 5.81137 14.3035C5.50435 14.4263 4.52188 14.8084 4.44683 15.668C4.43579 15.8888 4.48524 16.1085 4.58984 16.3032C4.69444 16.498 4.85022 16.6606 5.0404 16.7733L5.10181 16.8142H5.17686C5.17686 16.8142 6.58915 17.2987 7.76948 17.6534C8.13901 17.766 8.52261 17.8257 8.90888 17.8308C9.34993 17.8354 9.78391 17.7199 10.1643 17.4965C10.1643 17.4965 11.6243 16.5345 13.4596 15.2928C12.8933 15.8318 12.3202 16.3639 11.7881 16.8484C11.6112 16.9884 11.467 17.1653 11.3657 17.3668C11.2643 17.5683 11.2082 17.7896 11.2013 18.015C11.2085 18.2315 11.2629 18.4438 11.3608 18.6371C11.4586 18.8304 11.5974 18.9999 11.7676 19.134C12.6068 19.8162 14.4967 21.0784 15.3973 21.672L15.7998 21.9313C16.4322 22.4107 17.1813 22.7122 17.9694 22.8046C18.0934 22.8052 18.217 22.7915 18.3379 22.7636C18.6876 22.6488 18.9946 22.4311 19.2186 22.1389C19.4425 21.8467 19.5731 21.4938 19.5932 21.1262C19.641 20.8465 20.1254 17.7694 20.5825 14.9448C20.6712 14.3581 20.7599 13.785 20.8418 13.2596C21.0601 11.8405 21.2307 10.7284 21.258 10.2986C21.2913 10.0835 21.278 9.86382 21.2192 9.65432C21.1603 9.44481 21.0572 9.25037 20.9168 9.08411C20.783 8.94337 20.6206 8.83283 20.4406 8.75988C20.2606 8.68693 20.067 8.65326 19.873 8.66111V8.64746Z" fill="#252525"/>
</svg>
