<svg width="28" height="28" viewBox="0 0 28 28" fill="none" xmlns="http://www.w3.org/2000/svg">
<path d="M13.9362 0.68227C16.5 0.68227 19.0063 1.44254 21.1381 2.86695C23.2699 4.29136 24.9314 6.31593 25.9126 8.68463C26.8937 11.0533 27.1504 13.6598 26.6502 16.1744C26.15 18.689 24.9154 20.9988 23.1025 22.8117C21.2896 24.6247 18.9798 25.8593 16.4652 26.3595C13.9506 26.8596 11.3441 26.6029 8.9754 25.6218C6.6067 24.6406 4.58214 22.9791 3.15773 20.8473C1.73333 18.7156 0.973049 16.2093 0.973049 13.6454C0.973049 10.2074 2.3388 6.91014 4.76986 4.47909C7.20092 2.04803 10.4981 0.68227 13.9362 0.68227ZM13.9362 0C11.2374 0 8.59918 0.80029 6.3552 2.29967C4.11123 3.79904 2.36226 5.93016 1.32947 8.42354C0.296684 10.9169 0.0264593 13.6605 0.55297 16.3075C1.07948 18.9544 2.37908 21.3858 4.28743 23.2942C6.19577 25.2025 8.62714 26.5021 11.2741 27.0286C13.921 27.5551 16.6647 27.2849 19.1581 26.2521C21.6514 25.2193 23.7825 23.4704 25.2819 21.2264C26.7813 18.9824 27.5816 16.3442 27.5816 13.6454C27.5816 10.0264 26.1439 6.55566 23.5849 3.99665C21.0259 1.43764 17.5552 0 13.9362 0Z" fill="white"/>
<path d="M19.5514 7.9894C19.9267 7.9894 20.3224 8.15997 20.2337 8.89682C20.1928 9.44946 19.8721 11.3871 19.5514 13.4817C19.0738 16.4496 18.5621 19.6903 18.5621 19.6903C18.5621 19.6903 18.4871 20.5978 17.8116 20.7547C17.7413 20.7617 17.6705 20.7617 17.6001 20.7547C16.9575 20.6651 16.3489 20.4113 15.833 20.0178C15.6761 19.9018 12.872 18.1211 11.8418 17.2478C11.743 17.176 11.6634 17.0809 11.6101 16.971C11.5567 16.861 11.5313 16.7397 11.536 16.6176C11.5407 16.4955 11.5755 16.3765 11.6371 16.271C11.6988 16.1656 11.7855 16.0769 11.8895 16.0129C13.3155 14.7098 15.0143 13.086 16.0377 12.0557C16.3448 11.7487 16.6518 11.1756 16.297 11.1756C15.824 11.2866 15.3843 11.5088 15.0143 11.8238C12.2034 13.7614 9.44018 15.5762 9.44018 15.5762C9.16855 15.7158 8.86508 15.7816 8.56005 15.7673C8.24063 15.7627 7.92353 15.7121 7.61852 15.6172C6.43136 15.2624 5.06683 14.7848 5.06683 14.7848C5.06683 14.7848 4.11165 14.1912 5.7491 13.5635C5.7491 13.5635 12.5718 10.7526 14.9597 9.7633C15.8672 9.36759 18.951 8.10539 18.951 8.10539C19.1434 8.03391 19.3463 7.99472 19.5514 7.9894ZM19.5514 7.30713C19.2622 7.32308 18.9781 7.39007 18.7122 7.50499C18.5758 7.55957 15.6011 8.78083 14.6937 9.17655C12.3535 10.1113 5.55806 12.9017 5.48983 12.9631C5.18281 13.086 4.20034 13.468 4.12529 14.3277C4.11426 14.5485 4.1637 14.7681 4.26831 14.9629C4.37291 15.1577 4.52869 15.3202 4.71887 15.433L4.78027 15.4739H4.85532C4.85532 15.4739 6.26762 15.9583 7.44795 16.3131C7.81747 16.4257 8.20108 16.4854 8.58734 16.4905C9.02839 16.4951 9.46238 16.3795 9.84272 16.1562C9.84272 16.1562 11.3028 15.1942 13.1381 13.9524C12.5718 14.4914 11.9987 15.0236 11.4665 15.508C11.2897 15.648 11.1455 15.825 11.0442 16.0265C10.9428 16.228 10.8867 16.4492 10.8798 16.6747C10.887 16.8912 10.9414 17.1035 11.0392 17.2968C11.137 17.49 11.2759 17.6596 11.4461 17.7936C12.2852 18.4759 14.1751 19.7381 15.0757 20.3317L15.4783 20.5909C16.1106 21.0703 16.8597 21.3719 17.6479 21.4642C17.7719 21.4649 17.8955 21.4511 18.0163 21.4233C18.3661 21.3085 18.673 21.0907 18.897 20.7986C19.121 20.5064 19.2516 20.1534 19.2717 19.7859C19.3195 19.5061 19.8039 16.4291 20.261 13.6045C20.3497 13.0177 20.4384 12.4446 20.5202 11.9193C20.7386 10.5002 20.9091 9.38805 20.9364 8.95822C20.9697 8.74318 20.9565 8.52349 20.8977 8.31398C20.8388 8.10448 20.7357 7.91004 20.5953 7.74378C20.4614 7.60304 20.2991 7.4925 20.119 7.41955C19.939 7.3466 19.7455 7.31292 19.5514 7.32077V7.30713Z" fill="white"/>
</svg>
