<svg width="37" height="37" viewBox="0 0 37 37" fill="none" xmlns="http://www.w3.org/2000/svg">
<path d="M18.5 0.93457C23.1587 0.93457 27.6267 2.78493 30.9209 6.0791L31.2256 6.3916C34.3289 9.65295 36.0654 13.987 36.0654 18.5C36.0654 21.7569 35.1596 24.945 33.4561 27.7109L33.1055 28.2588C31.296 30.9669 28.7716 33.1154 25.8184 34.4688L25.2217 34.7285C22.2125 35.9749 18.9203 36.3583 15.7129 35.8428L15.0732 35.7275C11.8789 35.0921 8.92834 33.5825 6.54785 31.3721L6.0791 30.9209C3.7761 28.6179 2.16241 25.7229 1.41113 22.5625L1.27246 21.9268C0.594718 18.5195 0.942109 14.9879 2.27148 11.7783L2.53125 11.1816C3.88464 8.22845 6.03309 5.70404 8.74121 3.89453C11.6298 1.96449 15.0259 0.934571 18.5 0.93457ZM18.5 1.94043C14.2453 1.94043 10.1596 3.57807 7.08496 6.50391L6.79102 6.79102C3.68552 9.89652 1.94043 14.1082 1.94043 18.5C1.94043 21.7752 2.91187 24.977 4.73145 27.7002C6.55101 30.4233 9.13733 32.5455 12.1631 33.7988L12.7334 34.0234C15.6042 35.0899 18.719 35.3402 21.7305 34.7412L22.3301 34.6104C25.3094 33.9021 28.0379 32.38 30.209 30.209C32.5249 27.8931 34.1023 24.9427 34.7412 21.7305L34.8496 21.127C35.3031 18.3048 35.0188 15.4128 34.0234 12.7334L33.7988 12.1631C32.6238 9.32622 30.6849 6.87558 28.2031 5.08105L27.7002 4.73145C24.977 2.91187 21.7752 1.94043 18.5 1.94043Z" fill="white" stroke="white" stroke-width="0.131052"/>
<path d="M24.6129 12.2344C25.0362 12.2344 25.4825 12.4268 25.3825 13.258C25.3363 13.8813 24.9746 16.0669 24.6129 18.4296C24.0742 21.7772 23.497 25.4328 23.497 25.4328C23.497 25.4328 23.4123 26.4563 22.6505 26.6333C22.5711 26.6413 22.4912 26.6413 22.4119 26.6333C21.6871 26.5322 21.0006 26.246 20.4187 25.8022C20.2417 25.6713 17.0787 23.6627 15.9166 22.6777C15.8052 22.5966 15.7154 22.4894 15.6553 22.3654C15.5951 22.2414 15.5664 22.1045 15.5717 21.9668C15.5771 21.8291 15.6162 21.6948 15.6858 21.5759C15.7553 21.4569 15.8531 21.3569 15.9705 21.2847C17.5789 19.8148 19.4952 17.9832 20.6496 16.8211C20.9959 16.4748 21.3998 15.8938 20.9996 15.8938C20.9246 15.8616 19.9817 16.312 19.5644 16.6672C16.3938 18.8528 13.2077 20.7922 13.2077 20.7922C12.9013 20.9496 12.559 21.0239 12.2149 21.0077C11.8546 21.0025 11.497 20.9454 11.1529 20.8384C9.81383 20.4382 8.27467 19.8995 8.27467 19.8995C8.27467 19.8995 7.19725 19.2299 9.04425 18.5219C9.04425 18.5219 16.7401 15.3512 19.4336 14.2353C20.4572 13.789 23.9357 12.3653 23.9357 12.3653C24.1527 12.2846 24.3815 12.2404 24.6129 12.2344Z" fill="white"/>
</svg>
