<svg width="28" height="28" viewBox="0 0 28 28" fill="none" xmlns="http://www.w3.org/2000/svg">
<path d="M13.6454 0.68227C16.2093 0.68227 18.7156 1.44254 20.8473 2.86695C22.9791 4.29136 24.6406 6.31593 25.6218 8.68463C26.6029 11.0533 26.8596 13.6598 26.3595 16.1744C25.8593 18.689 24.6247 20.9988 22.8117 22.8117C20.9988 24.6247 18.689 25.8593 16.1744 26.3595C13.6598 26.8596 11.0533 26.6029 8.68463 25.6218C6.31593 24.6406 4.29137 22.9791 2.86696 20.8473C1.44255 18.7156 0.682277 16.2093 0.682277 13.6454C0.682277 10.2074 2.04803 6.91014 4.47909 4.47909C6.91015 2.04803 10.2074 0.68227 13.6454 0.68227ZM13.6454 0C10.9466 0 8.3084 0.80029 6.06443 2.29967C3.82045 3.79904 2.07149 5.93016 1.0387 8.42354C0.00591331 10.9169 -0.264313 13.6605 0.262198 16.3075C0.788709 18.9544 2.08831 21.3858 3.99665 23.2942C5.905 25.2025 8.33637 26.5021 10.9833 27.0286C13.6303 27.5551 16.3739 27.2849 18.8673 26.2521C21.3607 25.2193 23.4918 23.4704 24.9911 21.2264C26.4905 18.9824 27.2908 16.3442 27.2908 13.6454C27.2908 10.0264 25.8532 6.55566 23.2942 3.99665C20.7352 1.43764 17.2644 0 13.6454 0Z" fill="white"/>
<path fill-rule="evenodd" clip-rule="evenodd" d="M13.6043 6.14063C12.2501 6.14263 10.9207 6.50384 9.75163 7.18739C8.58261 7.87094 7.61584 8.85237 6.94995 10.0315C6.28407 11.2107 5.9429 12.5454 5.96126 13.8995C5.97963 15.2536 6.35686 16.5785 7.05448 17.7392L5.68994 21.8328L9.92002 20.4683C10.9405 21.0329 12.0767 21.3565 13.2416 21.4141C14.4064 21.4718 15.569 21.2621 16.6403 20.801C17.7116 20.3399 18.6631 19.6398 19.422 18.7542C20.1808 17.8685 20.7269 16.821 21.0184 15.6917C21.3098 14.5624 21.3389 13.3814 21.1034 12.2391C20.868 11.0969 20.3741 10.0237 19.6598 9.10177C18.9455 8.17985 18.0296 7.43367 16.9823 6.92041C15.9351 6.40714 14.7842 6.1404 13.6179 6.14063H13.6043Z" stroke="white" stroke-linecap="round" stroke-linejoin="round"/>
<path fill-rule="evenodd" clip-rule="evenodd" d="M11.5922 10.6232C11.4694 10.323 11.3738 10.3161 11.1828 10.3025H10.9645C10.8415 10.2932 10.7179 10.3082 10.6008 10.3469C10.4838 10.3855 10.3755 10.447 10.2822 10.5276C10.0629 10.7237 9.88839 10.9648 9.77066 11.2344C9.65292 11.504 9.59469 11.7959 9.59993 12.09C9.66259 12.7961 9.92795 13.4689 10.3641 14.0277C11.1552 15.2434 12.261 16.2219 13.5639 16.8591C15.0445 17.4663 15.4811 17.4117 15.8154 17.3435C16.0917 17.3038 16.3553 17.2014 16.5859 17.0442C16.8165 16.8869 17.0081 16.6789 17.1458 16.4361C17.2695 16.1554 17.3075 15.8445 17.255 15.5423C17.2141 15.4673 17.0844 15.4195 16.9002 15.324C16.716 15.2285 15.7881 14.7782 15.6176 14.7168C15.5368 14.6797 15.4453 14.6732 15.3601 14.6982C15.2748 14.7233 15.2015 14.7783 15.1536 14.8532C15.0001 15.0895 14.8339 15.3173 14.6556 15.5355C14.5956 15.5924 14.5196 15.6295 14.4378 15.6418C14.356 15.654 14.2724 15.6407 14.1984 15.6037C13.641 15.3939 13.1291 15.0789 12.6906 14.6758C12.2811 14.2972 11.9294 13.8604 11.6467 13.3795C11.5376 13.1885 11.6467 13.0793 11.7218 12.977C11.7968 12.8746 11.906 12.7791 12.0015 12.67C12.084 12.5829 12.153 12.484 12.2062 12.3766C12.2338 12.3227 12.2481 12.2631 12.2481 12.2026C12.2481 12.1421 12.2338 12.0825 12.2062 12.0286C12.1243 11.9195 11.7491 10.9984 11.5922 10.6232Z" stroke="white" stroke-linecap="round" stroke-linejoin="round"/>
</svg>
