<svg width="30" height="29" viewBox="0 0 30 29" fill="none" xmlns="http://www.w3.org/2000/svg">
<path d="M14.842 6.33789L15.3068 6.35156C16.3893 6.41324 17.4505 6.69041 18.427 7.16895C19.5426 7.71579 20.5185 8.51101 21.2795 9.49316C22.0404 10.4753 22.5667 11.6191 22.8176 12.8359C23.0684 14.0527 23.0372 15.3107 22.7268 16.5137C22.4162 17.7168 21.8341 18.8328 21.0256 19.7764C20.2171 20.7199 19.204 21.4668 18.0627 21.958C16.9215 22.4492 15.6825 22.6717 14.4416 22.6104C13.2746 22.5526 12.1357 22.2418 11.0998 21.7051L7.06758 23.0059C6.88821 23.0637 6.69141 23.0157 6.55879 22.8818C6.4263 22.7479 6.38014 22.5508 6.43965 22.3721L7.73262 18.4912C7.06487 17.3042 6.70425 15.9678 6.68574 14.6035C6.66619 13.1612 7.0293 11.7395 7.73848 10.4834C8.44786 9.22721 9.47845 8.18132 10.7238 7.45312C11.9692 6.72499 13.3857 6.34003 14.8283 6.33789H14.842ZM14.592 7.3418C13.4087 7.38282 12.2529 7.71757 11.2287 8.31641C10.1361 8.95531 9.23196 9.87246 8.60957 10.9746C7.9872 12.0767 7.6686 13.3243 7.68574 14.5898C7.70291 15.8554 8.05525 17.0939 8.70723 18.1787C8.76377 18.2728 8.78698 18.382 8.77559 18.4893L8.75313 18.5947L7.70039 21.751L10.9904 20.6895L11.091 20.668C11.1924 20.6571 11.2953 20.6784 11.3859 20.7285C12.3396 21.2562 13.4019 21.5584 14.4904 21.6123C15.5791 21.6662 16.666 21.47 17.6672 21.0391C18.6683 20.6082 19.5576 19.9536 20.2668 19.126C20.9759 18.2983 21.4866 17.319 21.759 16.2637C22.0313 15.2084 22.0581 14.1045 21.8381 13.0371C21.618 11.9697 21.156 10.967 20.4885 10.1055C19.8209 9.24391 18.9652 8.54608 17.9865 8.06641C17.1302 7.64672 16.1996 7.40373 15.2502 7.34961L14.842 7.33789H14.8293L14.592 7.3418Z" fill="#252525"/>
<path d="M12.1957 10.5019H12.4115L12.4477 10.5029L12.6332 10.5244C12.718 10.5413 12.819 10.5728 12.9145 10.6347C13.1094 10.7612 13.2119 10.9576 13.2826 11.1298L13.6166 11.9297C13.6778 12.0736 13.7353 12.2062 13.7816 12.3076C13.8048 12.3583 13.8232 12.3979 13.8373 12.4257C13.8479 12.4467 13.8524 12.4534 13.851 12.4511L13.8354 12.4277L13.8803 12.5C13.9438 12.6242 13.9769 12.7618 13.977 12.9013C13.977 13.0387 13.9438 13.1741 13.8822 13.2968L13.8832 13.2978C13.8109 13.4439 13.7166 13.5776 13.6059 13.6972L13.6068 13.6982C13.5484 13.765 13.4833 13.831 13.4428 13.873C13.4152 13.9015 13.3953 13.9231 13.3803 13.9404C13.625 14.3328 13.9185 14.6925 14.2582 15.0068L14.4076 15.1377C14.755 15.4275 15.148 15.658 15.5707 15.8213C15.7089 15.6463 15.8418 15.4673 15.9633 15.2802C16.0761 15.1053 16.2479 14.9767 16.4477 14.9179L16.601 14.8877C16.7414 14.8727 16.8829 14.8943 17.015 14.9472L17.016 14.9453C17.0262 14.9489 17.0373 14.9548 17.0502 14.9599C17.0517 14.9606 17.0536 14.9612 17.0551 14.9619C17.1905 15.0162 17.4612 15.1422 17.6986 15.2558C17.9748 15.3879 18.2598 15.5272 18.3598 15.5791L18.4779 15.6386C18.5152 15.657 18.5596 15.6794 18.601 15.7021C18.6539 15.7312 18.7861 15.8031 18.8832 15.9394L18.9232 16.0019L18.9565 16.0771C18.9654 16.1027 18.9723 16.1294 18.977 16.1562C19.0462 16.5554 18.9958 16.9662 18.8324 17.3369C18.8257 17.3522 18.8182 17.3673 18.81 17.3818C18.6345 17.691 18.3898 17.9559 18.0961 18.1562C17.8025 18.3564 17.4673 18.4875 17.1156 18.538L17.1147 18.5371C16.9121 18.5769 16.6618 18.6104 16.2699 18.5478C15.9771 18.501 15.611 18.4027 15.1274 18.2255L14.6029 18.0205C14.5931 18.0164 14.5832 18.0124 14.5736 18.0078C13.1897 17.3309 12.0146 16.2912 11.1742 15C10.7554 14.4519 10.4784 13.8101 10.3686 13.1318L10.3305 12.833L10.3285 12.7978C10.322 12.4319 10.395 12.0687 10.5414 11.7334C10.6879 11.398 10.9053 11.0984 11.1781 10.8545L11.184 10.8486L11.2953 10.7617C11.4109 10.6801 11.5384 10.6158 11.6732 10.5713C11.8417 10.5157 12.0188 10.4929 12.1957 10.5019ZM12.1557 11.5C12.0986 11.4956 12.0411 11.5026 11.9867 11.5205C11.9323 11.5384 11.8817 11.5679 11.8383 11.6054C11.6755 11.7526 11.5453 11.9326 11.4574 12.1338C11.3706 12.3327 11.3269 12.5477 11.3285 12.7646C11.3785 13.2913 11.5596 13.7958 11.8529 14.2334L12.0121 14.4541C12.75 15.5881 13.7801 16.5018 14.9936 17.0996C15.7112 17.3933 16.1468 17.5157 16.4272 17.5605C16.6879 17.6022 16.8183 17.5785 16.9447 17.5527L16.9731 17.5478C17.1737 17.519 17.3651 17.4442 17.5326 17.33C17.6927 17.2208 17.8262 17.0775 17.9252 16.9111C17.9769 16.7862 18.0028 16.6536 18.0043 16.5195L17.8988 16.4668C17.8144 16.423 17.5431 16.2903 17.267 16.1582C17.13 16.0926 16.9948 16.0284 16.8842 15.9775C16.8288 15.952 16.7806 15.9307 16.7426 15.914L16.7406 15.913C16.6772 16.0081 16.6137 16.103 16.5463 16.1953L16.2719 16.5507L16.2289 16.5976C16.0945 16.7252 15.9239 16.8085 15.7406 16.8359C15.5742 16.8607 15.4053 16.8358 15.2514 16.7695C14.634 16.5372 14.0671 16.1895 13.5815 15.7431L13.5805 15.7422C13.135 15.3302 12.7522 14.8551 12.4447 14.332L12.4418 14.3271C12.3201 14.1141 12.2972 13.8865 12.3734 13.6748C12.4273 13.5251 12.541 13.3886 12.5473 13.3808C12.6065 13.3 12.6734 13.2291 12.7231 13.1777C12.7797 13.1191 12.8169 13.0823 12.8539 13.04L12.8676 13.0254L12.934 12.9443C12.9438 12.9302 12.9506 12.9142 12.9594 12.8994C12.9548 12.8907 12.9491 12.8835 12.9457 12.8769C12.923 12.8321 12.8973 12.7791 12.8715 12.7226C12.8196 12.609 12.758 12.4668 12.6957 12.3203C12.5716 12.0284 12.4361 11.6982 12.3598 11.5156L12.3578 11.5117C12.3564 11.5083 12.3552 11.505 12.3539 11.5019H12.1938C12.1812 11.5019 12.1682 11.5009 12.1557 11.5Z" fill="#252525"/>
<path d="M28.0176 14.3193C28.0176 7.05936 22.132 1.17388 14.8721 1.17383C7.61206 1.17383 1.72656 7.05933 1.72656 14.3193C1.72662 21.5793 7.6121 27.4648 14.8721 27.4648C22.132 27.4648 28.0175 21.5793 28.0176 14.3193ZM29.0176 14.3193C29.0175 22.1315 22.6843 28.4648 14.8721 28.4648C7.05981 28.4648 0.726619 22.1316 0.726562 14.3193C0.726562 6.50705 7.05978 0.173828 14.8721 0.173828C22.6843 0.173884 29.0176 6.50708 29.0176 14.3193Z" fill="#252525"/>
</svg>
