<svg width="37" height="37" viewBox="0 0 37 37" fill="none" xmlns="http://www.w3.org/2000/svg">
<path d="M18.5 0.93457C23.1587 0.93457 27.6267 2.78493 30.9209 6.0791L31.2256 6.3916C34.3289 9.65295 36.0654 13.987 36.0654 18.5C36.0654 21.7569 35.1596 24.945 33.4561 27.7109L33.1055 28.2588C31.296 30.9669 28.7716 33.1154 25.8184 34.4688L25.2217 34.7285C22.2125 35.9749 18.9203 36.3583 15.7129 35.8428L15.0732 35.7275C11.8789 35.0921 8.92834 33.5825 6.54785 31.3721L6.0791 30.9209C3.7761 28.6179 2.16241 25.7229 1.41113 22.5625L1.27246 21.9268C0.594719 18.5195 0.942109 14.9879 2.27148 11.7783L2.53125 11.1816C3.88464 8.22845 6.03309 5.70404 8.74121 3.89453L9.28906 3.54395C12.055 1.84045 15.2431 0.934571 18.5 0.93457ZM18.5 1.94043C14.2453 1.94043 10.1596 3.57807 7.08496 6.50391L6.79102 6.79102C3.68551 9.89652 1.94043 14.1082 1.94043 18.5C1.94043 21.7752 2.91187 24.977 4.73145 27.7002L5.08105 28.2031C6.87558 30.6849 9.32622 32.6238 12.1631 33.7988L12.7334 34.0234C15.6042 35.0899 18.719 35.3402 21.7305 34.7412C24.9427 34.1023 27.8931 32.5249 30.209 30.209L30.6348 29.7676C32.7186 27.5234 34.1422 24.7419 34.7412 21.7305C35.3402 18.719 35.0899 15.6042 34.0234 12.7334L33.7988 12.1631C32.6238 9.32621 30.6849 6.87558 28.2031 5.08105L27.7002 4.73145C24.977 2.91187 21.7752 1.94043 18.5 1.94043Z" fill="white" stroke="white" stroke-width="0.131052"/>
<path fill-rule="evenodd" clip-rule="evenodd" d="M18.8514 10.3613C17.4906 10.3633 16.1547 10.7263 14.9799 11.4132C13.8052 12.1001 12.8337 13.0863 12.1646 14.2712C11.4955 15.4561 11.1526 16.7974 11.1711 18.158C11.1895 19.5187 11.5686 20.8501 12.2696 22.0165L10.8984 26.13L15.1491 24.7589C16.1746 25.3262 17.3163 25.6513 18.4869 25.7093C19.6574 25.7672 20.8257 25.5565 21.9022 25.0932C22.9787 24.6299 23.9348 23.9263 24.6974 23.0364C25.46 22.1464 26.0087 21.0937 26.3016 19.959C26.5945 18.8242 26.6237 17.6374 26.3871 16.4896C26.1505 15.3418 25.6542 14.2633 24.9364 13.3369C24.2186 12.4105 23.2982 11.6607 22.2459 11.1449C21.1935 10.6291 20.037 10.3611 18.8651 10.3613H18.8514Z" fill="white" stroke="white" stroke-width="0.821475" stroke-linecap="round" stroke-linejoin="round"/>
<path fill-rule="evenodd" clip-rule="evenodd" d="M16.4594 14.2288C16.3116 13.8677 16.1967 13.8595 15.9669 13.8431H15.7043C15.5564 13.8318 15.4077 13.85 15.2669 13.8965C15.126 13.943 14.9958 14.0169 14.8836 14.1139C14.6198 14.3498 14.4099 14.6398 14.2683 14.9641C14.1266 15.2884 14.0566 15.6395 14.0629 15.9933C14.1383 16.8426 14.4575 17.652 14.9821 18.3241C15.9337 19.7865 17.2639 20.9635 18.8312 21.73C20.6121 22.4605 21.1374 22.3948 21.5395 22.3127C21.8719 22.265 22.1889 22.1419 22.4663 21.9526C22.7437 21.7634 22.9741 21.5132 23.1399 21.2212C23.2887 20.8836 23.3344 20.5096 23.2712 20.1461C23.222 20.0558 23.066 19.9984 22.8444 19.8835C22.6228 19.7686 21.5067 19.2269 21.3015 19.153C21.2043 19.1085 21.0943 19.1006 20.9918 19.1307C20.8892 19.1609 20.801 19.2271 20.7434 19.3172C20.5588 19.6014 20.3588 19.8754 20.1443 20.1379C20.0722 20.2064 19.9807 20.251 19.8823 20.2657C19.7839 20.2804 19.6834 20.2644 19.5944 20.2199C18.9239 19.9676 18.3081 19.5887 17.7807 19.1038C17.288 18.6483 16.865 18.1229 16.525 17.5444C16.3937 17.3146 16.525 17.1833 16.6153 17.0602C16.7056 16.9371 16.8369 16.8222 16.9518 16.6909C17.051 16.5862 17.134 16.4673 17.198 16.338C17.2311 16.2732 17.2484 16.2015 17.2484 16.1287C17.2484 16.056 17.2311 15.9842 17.198 15.9194C17.0995 15.7881 16.6481 14.6802 16.4594 14.2288Z" fill="#101010"/>
</svg>
