<svg width="29" height="30" viewBox="0 0 29 30" fill="none" xmlns="http://www.w3.org/2000/svg">
<path d="M27.5332 15.0029C27.5332 7.74296 21.6477 1.85748 14.3877 1.85742C7.12769 1.85742 1.24219 7.74292 1.24219 15.0029C1.24224 22.2629 7.12772 28.1484 14.3877 28.1484C21.6476 28.1484 27.5331 22.2629 27.5332 15.0029ZM28.5332 15.0029C28.5331 22.8151 22.1999 29.1484 14.3877 29.1484C6.57544 29.1484 0.242244 22.8152 0.242188 15.0029C0.242188 7.19064 6.5754 0.857422 14.3877 0.857422C22.1999 0.857478 28.5332 7.19067 28.5332 15.0029Z" fill="#252525"/>
<path fill-rule="evenodd" clip-rule="evenodd" d="M20.951 11.707C20.8709 11.4224 20.7191 11.1632 20.51 10.9541C20.3009 10.745 20.0417 10.5932 19.7571 10.5131C18.6791 10.1992 14.3808 10.1992 14.3808 10.1992C14.3808 10.1992 10.1234 10.1992 9.09318 10.4721C8.80545 10.5459 8.54285 10.6957 8.33281 10.9057C8.12277 11.1158 7.97301 11.3784 7.89921 11.6661C7.67843 12.7551 7.57097 13.864 7.57854 14.9751C7.57107 16.0685 7.66472 17.1602 7.85827 18.2364C7.93716 18.5216 8.08862 18.7815 8.29787 18.9907C8.50712 19.2 8.76703 19.3514 9.05224 19.4303C10.1234 19.751 14.3808 19.751 14.3808 19.751C14.3808 19.751 18.645 19.751 19.7161 19.4713C20.0007 19.3912 20.26 19.2393 20.4691 19.0302C20.6781 18.8212 20.83 18.5619 20.9101 18.2773C21.1024 17.1987 21.1961 16.1048 21.1898 15.0092C21.2184 13.9033 21.1384 12.7973 20.951 11.707ZM13.0299 17.0287V12.9351L16.5709 14.9819L13.0299 17.0287Z" fill="#252525"/>
</svg>
