<svg width="37" height="37" viewBox="0 0 37 37" fill="none" xmlns="http://www.w3.org/2000/svg">
<path d="M18.5 36.0005C28.165 36.0005 36 28.1653 36 18.5002C36 8.83512 28.165 1 18.5 1C8.83502 1 1 8.83512 1 18.5002C1 28.1653 8.83502 36.0005 18.5 36.0005Z" stroke="white" stroke-width="1.17947" stroke-linecap="round" stroke-linejoin="round"/>
<path fill-rule="evenodd" clip-rule="evenodd" d="M27.8831 13.7953C27.7686 13.3886 27.5516 13.0181 27.2529 12.7193C26.9541 12.4206 26.5836 12.2036 26.1769 12.0891C24.6365 11.6406 18.4943 11.6406 18.4943 11.6406C18.4943 11.6406 12.4106 11.6406 10.9384 12.0306C10.5273 12.1361 10.152 12.3501 9.85187 12.6502C9.55172 12.9504 9.33773 13.3256 9.23226 13.7368C8.91677 15.293 8.76321 16.8776 8.77403 18.4654C8.76336 20.0278 8.89718 21.5879 9.17376 23.1257C9.2865 23.5333 9.50292 23.9047 9.80194 24.2037C10.101 24.5027 10.4724 24.7191 10.8799 24.8319C12.4106 25.2901 18.4943 25.2901 18.4943 25.2901C18.4943 25.2901 24.5877 25.2901 26.1184 24.8904C26.5251 24.7759 26.8956 24.5589 27.1944 24.2602C27.4931 23.9614 27.7101 23.5909 27.8246 23.1842C28.0994 21.6429 28.2332 20.0797 28.2243 18.5141C28.2652 16.9338 28.1509 15.3533 27.8831 13.7953ZM16.5639 21.4V15.5502L21.6239 18.4751L16.5639 21.4Z" fill="white"/>
</svg>
