<svg width="30" height="29" viewBox="0 0 30 29" fill="none" xmlns="http://www.w3.org/2000/svg">
<path d="M15.0995 28.2908C22.6357 28.2908 28.7449 22.1816 28.7449 14.6454C28.7449 7.10925 22.6357 1 15.0995 1C7.56336 1 1.4541 7.10925 1.4541 14.6454C1.4541 22.1816 7.56336 28.2908 15.0995 28.2908Z" stroke="white" stroke-linecap="round" stroke-linejoin="round"/>
<path fill-rule="evenodd" clip-rule="evenodd" d="M21.663 11.3501C21.5829 11.0655 21.431 10.8062 21.2219 10.5972C21.0128 10.3881 20.7536 10.2362 20.469 10.1561C19.391 9.84228 15.0927 9.84229 15.0927 9.84229C15.0927 9.84229 10.8353 9.84229 9.80509 10.1152C9.51737 10.189 9.25476 10.3388 9.04472 10.5488C8.83468 10.7588 8.68493 11.0214 8.61112 11.3092C8.39034 12.3982 8.28288 13.5071 8.29045 14.6182C8.28299 15.7116 8.37663 16.8033 8.57019 17.8794C8.64908 18.1646 8.80053 18.4246 9.00978 18.6338C9.21904 18.8431 9.47894 18.9945 9.76416 19.0734C10.8353 19.3941 15.0927 19.3941 15.0927 19.3941C15.0927 19.3941 19.3569 19.3941 20.428 19.1143C20.7127 19.0342 20.9719 18.8824 21.181 18.6733C21.3901 18.4642 21.5419 18.205 21.622 17.9204C21.8144 16.8418 21.908 15.7479 21.9017 14.6523C21.9303 13.5464 21.8504 12.4404 21.663 11.3501ZM13.7418 16.6718V12.5782L17.2828 14.625L13.7418 16.6718Z" fill="white"/>
</svg>
