<svg width="29" height="29" viewBox="0 0 29 29" fill="none" xmlns="http://www.w3.org/2000/svg">
<path d="M14.161 28.2908C21.6972 28.2908 27.8064 22.1816 27.8064 14.6454C27.8064 7.10925 21.6972 1 14.161 1C6.62488 1 0.515625 7.10925 0.515625 14.6454C0.515625 22.1816 6.62488 28.2908 14.161 28.2908Z" stroke="#252525" stroke-linecap="round" stroke-linejoin="round"/>
<path fill-rule="evenodd" clip-rule="evenodd" d="M20.7245 11.3516C20.6444 11.067 20.4925 10.8077 20.2834 10.5986C20.0744 10.3896 19.8151 10.2377 19.5305 10.1576C18.4525 9.84375 14.1542 9.84375 14.1542 9.84375C14.1542 9.84375 9.89684 9.84375 8.86662 10.1167C8.57889 10.1905 8.31629 10.3402 8.10625 10.5503C7.89621 10.7603 7.74645 11.0229 7.67264 11.3106C7.45187 12.3996 7.3444 13.5085 7.35198 14.6196C7.34451 15.713 7.43816 16.8048 7.63171 17.8809C7.7106 18.1661 7.86206 18.426 8.07131 18.6353C8.28056 18.8445 8.54047 18.996 8.82568 19.0749C9.89685 19.3955 14.1542 19.3955 14.1542 19.3955C14.1542 19.3955 18.4184 19.3955 19.4896 19.1158C19.7742 19.0357 20.0334 18.8838 20.2425 18.6748C20.4516 18.4657 20.6034 18.2064 20.6835 17.9218C20.8759 16.8432 20.9695 15.7493 20.9633 14.6538C20.9919 13.5479 20.9119 12.4418 20.7245 11.3516ZM12.8033 16.6733V12.5797L16.3443 14.6265L12.8033 16.6733Z" fill="#252525"/>
</svg>
